<?xml version="1.0" encoding="UTF-8"?>
<svg id="Layer_1" data-name="Layer 1" xmlns="http://www.w3.org/2000/svg" baseProfile="tiny" version="1.2" viewBox="0 0 555.59 555.59">
  <path d="M439.28,325.66c2.87,2.05,5.89,3.86,8.61,6.16,7.25,6.13,12.49,13.67,16.03,22.42,2.9,7.17,4.52,14.67,5.62,22.31.57,3.94,1.17,7.87,1.62,11.83.03.28.12.53.33.72-.52,1.1-.26,2.3-.45,3.44-.68-.44-1.32-.1-1.95.12-4.06,1.42-7.96,3.23-11.93,4.88-2.55,1.05-2.56,1.07-2.36-1.66.56-7.32.6-14.66,1.04-21.99.05-.91-.07-1.71-1.17-1.76-1.14-.06-1.42.75-1.45,1.71-.07,1.86-.16,3.71-.23,5.57-.23,6.34-.47,12.68-.68,19.02-.03.83-.23,1.33-1.12,1.57-.87.23-1.69.64-2.5,1.04-1.42.7-1.63,1.58-.8,3.04.14,2.6-.67,5.1-.87,7.66-.01.13-.24.24-.37.36-2.04-.09-4.07-.2-6.11-.25-2.28-.06-4.37-.7-6.3-1.89-1.85-1.15-3.59-2.46-5.23-3.89-4.62-4.02-9.6-7.4-15.44-9.45-4.66-1.64-9.36-3.16-14.17-4.28-7.02-1.63-14.06-3.15-21.22-3.99-1.72-.2-2.6.7-2.59,2.43.01,1.51.79,2.54,1.89,3.43,1.72,1.39,3.67,2.4,5.73,3.07,5.82,1.91,10.77,5.34,15.76,8.71.25.17.59.36.46.74-.12.33-.46.2-.71.21-1.95.08-3.89.18-5.84.21-4.81.07-9.61-.23-14.4-.56-4.83-.34-9.64-1-14.41-1.82-3.66-.63-7.25-1.6-10.94-2.07-3.1-.4-5.87.85-7.33,3.34-.93,1.58-.53,3.15,1.06,4.03,1.08.6,2.29.82,3.48,1.08.02.67-.07,1.31-.29,1.94-1.36,0-2.71-.15-4.05-.34-2.45-.34-4.94,1.06-5.42,3.29-.56,2.65-.03,4.09,2.76,5.48,1.18.59,2.44.96,3.74,1.17,0,.26-.02.51-.03.77-3.54.35-5.46,4.19-3.55,7.28,1.81,2.91,4.79,3.71,7.97,4-.31.8.4,1.52.19,2.32,0,.32.02.64-.02.95-.36,3.68,1.23,6.28,4.37,8.07,1.55.88,3.18,1.55,4.87,2.07,5.98,1.84,12.06,3.27,18.13,4.79,4.26,1.07,8.56,2.01,12.94,2.4,7.74.68,15.49.57,23.24.25,4.39-.18,8.75-.67,12.99-1.97,2.79-.85,5.71-.89,8.62-.64-.17,1.32.54,1.87,1.74,2.06,3.85.61,7.7,1.17,11.59,1.39.94.05,1.29.31,1.2,1.27-.12,1.22-.17,2.44-.19,3.67-.13,8.25-.24,16.51-.37,24.76-.07,4.35-.17,8.71-.22,13.06-.02,1.2-.35,1.89-1.76,1.7-.89-.12-1.81.02-2.71.02-9.21-.01-18.42-.04-27.63-.04-21.28,0-42.56.02-63.84.02-22.46,0-44.92-.02-67.38-.02-2.13,0-4.26-.02-6.39.02-1.09.02-1.51-.36-1.43-1.52.21-2.85.38-5.7.44-8.55.14-6.48.32-12.96.54-19.45.34-10.15.58-20.31.84-30.47.13-5.17.22-10.34.32-15.51.01-.6.04-1.25-.69-1.46-.56-.16-1.18-.23-1.62.34-.36.47-.27,1.04-.28,1.58-.23,12.56-.59,25.11-1.01,37.67-.37,11.24-.62,22.49-.89,33.74-.08,3.53.06,3.71-3.66,3.68-15.74-.1-31.49-.06-47.23-.08-.39-.46-.33-1.01-.36-1.55-.08-1.36.23-2.7.25-4.05.05-3.71.41-7.4.51-11.1.18-6.51.62-13,.92-19.5.12-2.53.08-5.07.29-7.59.48-5.94.73-11.89,1.07-17.84.19-3.28.59-6.56.96-9.83.35-3.04.75-6.08,1.18-9.11.41-2.89.89-5.78,1.34-8.67,4.62-.14,9.2-.67,13.79-1.21,4.76-.55,9.52-1.1,14.2-2.18,5.88-1.36,11.5-3.51,17.12-5.65,4.69-1.79,9.47-3.36,13.92-5.71,2.14-1.13,4.07-2.55,5.17-4.83,1.04-2.17.8-4.78-.57-6.2.07-.47.17-.95,0-1.43.32-.32.62-.64,1.05-.83,1.57-.69,3.14-1.39,4.69-2.12,3.5-1.64,3.75-5.76,1.98-8.02-.08-.1-.17-.19-.25-.29h0c-.04-.2-.09-.38-.35-.39l-.08-.08c-.27-.53-.76-.73-1.3-.86-.31-.07-.67-.11-.71-.5-.05-.48.38-.52.7-.68,1.06-.55,2.32-.78,3.08-1.82h0c.1-.09.19-.18.29-.27.05-.05.09-.11.11-.18.37-.07.65-.23.65-.66.05-.05.08-.12.09-.19.27-.25.52-.5.29-.91.19-.52.2-1.05.02-1.57.19-.4.13-.73-.28-.95-.04-.15-.08-.29-.12-.44-.07-.11-.13-.22-.2-.33-.1-.17-.19-.33-.29-.5-.02-.21-.09-.37-.32-.42-.05-.07-.11-.11-.19-.14-.05-.18-.11-.37-.36-.35-.72-.62-1.58-.72-2.5-.8-2.13-.17-4.15.61-6.25.64.35-.67.32-1.38.19-2.1.89-.65,1.99-.86,2.95-1.37,1.52-.8,1.94-1.97,1.22-3.51-.38-.83-.92-1.54-1.67-2.1-2.39-1.79-4.95-1.65-7.62-.81-4.49,1.4-8.94,2.96-13.5,4.07-8.61,2.1-17.3,3.84-26.14,4.72.46-1.43.92-2.87,1.38-4.3l.05-.04c.09-.03.14-.09.16-.18,2.62-2.81,5.99-4.48,9.34-6.19,2.54-1.29,5.1-2.56,6.95-4.85.91-1.12,1.07-2.37.74-3.7-.32-1.3-1.44-1.95-2.72-1.59-2.69.76-5.37,1.58-8.05,2.37-.81-.47.03-.8.18-.96,1.48-1.51,2.98-3.01,4.54-4.43,2.7-2.44,5.69-4.44,9.08-5.83,5.79-2.37,11.85-3.77,17.98-4.88,4.47-.81,8.98-1.46,13.47-2.16.37-.06.74-.05.81-.53.74.19,1.48.4,2.22.55,3,.6,5.94,1.5,8.99,1.9,2.68.36,5.34.88,8.01,1.32.88.4,1.81.28,2.73.28.58.08,1.16.18,1.74.24,3.14.31,6.27.7,9.42.99,5.9.53,11.79,1,17.72.95.31.06.61.17.92.17,4.48.04,8.96.11,13.44.09,2.52-.01,5.06.19,7.56-.25.5.02.99.05,1.49.05,8.38-.11,16.73-.73,25.05-1.63,5.98-.65,11.92-1.58,17.85-2.56,3.43-.56,6.83-1.28,10.24-1.93,1.18-.28,2.28,0,3.4.38,1.24.41,2.22,1.3,3.43,1.74h.02Z" fill="#de5840" stroke-width="0"/>
  <path d="M305.05,323.38c-.08.48-.44.47-.81.53-4.49.71-8.99,1.35-13.47,2.16-6.13,1.11-12.19,2.51-17.98,4.88-3.39,1.39-6.38,3.38-9.08,5.83-1.57,1.42-3.07,2.92-4.54,4.43-.16.16-.99.49-.18.96-2.76.9-5.55,1.75-8.29,2.72-2.74.97-5.43,2.05-8.15,3.08-2.57.98-5.03,2.2-7.53,3.34-4.71,2.16-9.28,4.54-13.04,8.18-3.87,3.74-7.54,7.69-11.83,10.97-1.76,1.34-3.72,2.18-5.83,2.72-2.04.53-4.07,1.05-6.12,1.53-.74.17-.89.64-.64,1.2.66,1.51,1.23,3.09,1.95,4.54,1.42,2.87,2.48,5.89,3.88,8.77,1.39,2.88,2.49,5.9,3.7,8.86,1.71,4.16,3.74,8.2,5.21,12.46.26.76.66,1.47,1.03,2.18.25.47.52.73,1.17.35,2-1.19,4.3-1.4,6.54-1.47,3.76-.12,7.53,0,11.29.03-.45,2.89-.93,5.77-1.34,8.67-.43,3.03-.83,6.07-1.18,9.11-.37,3.27-.78,6.54-.96,9.83-.34,5.95-.58,11.9-1.07,17.84-.21,2.52-.17,5.06-.29,7.59-.31,6.5-.74,12.99-.92,19.5-.1,3.7-.46,7.39-.51,11.1-.02,1.35-.33,2.69-.25,4.05.03.54-.03,1.1.35,1.55-.18.05-.35.16-.52.16-4.19.02-8.39.14-12.58-.1-.07,0-.32.09-.21-.17-2.86.02-5.71.07-8.57.07-6.9,0-13.79.12-20.69-.04-5.99-.14-11.97,0-17.95-.13-1.12-.02-2.25.5-3.35-.09.17-1.43-.15-1.8-1.56-1.83-.72-.01-1.44-.01-2.17-.02-.1-11.58,0-23.16.16-34.74.05-3.48-.05-6.95-.09-10.43.46-.65,1.19-.96,1.83-1.36,6.33-3.9,12.69-7.73,18.99-11.67,9.83-6.16,19.62-12.37,29.23-18.87,2.48-1.68,4.94-3.37,7.41-5.06.62-.43.98-.96.5-1.72-.5-.79-1.14-.78-1.86-.32-.3.2-.63.37-.92.57-7.27,5.11-14.71,9.95-22.22,14.71-9.38,5.94-18.8,11.81-28.22,17.68-4,2.49-8.04,4.9-12.07,7.35-1.69-.1-2.7,1.17-3.9,2-.71.49-1.85.64-1.93,1.83h.01c-.89-.1-1.42.44-1.9,1.08-8.31,4.95-16.69,9.78-25.44,13.91-5.61,2.65-11.5,4.16-17.72,4.77-5.38.52-10.62.19-15.71-1.35-6.6-1.99-11.83-5.92-15.3-12.03-3.08-5.43-3.15-11.13-1.77-17,1.37-5.84,3.47-11.43,5.81-16.93.18-.43.26-.86.26-1.32.51-1.05,1.07-2.08,1.52-3.16,2.49-5.98,5.44-11.75,8.11-17.64.72-1.59,1.68-3.08,2.25-4.75.89-1.37,1.64-2.82,2.18-4.36.51-.09.54-.56.72-.91,2.35-4.64,4.76-9.25,7.22-13.85.97-1.81,2.32-3.43,2.83-5.48l.06-.06c.26-.03.29-.22.29-.43.74-.91,1.16-2,1.69-3.03.03-.07.07-.14.1-.21.06-.2.11-.4.17-.59.49-.23.67-.7.91-1.13.71-1.24,1.41-2.49,2.13-3.72,1.17-2.01,2.48-3.93,3.65-5.94,1.75-3.02,3.64-5.96,5.54-8.89,1.89-2.9,3.89-5.73,5.87-8.57.67-.96,1.46-1.84,1.84-2.97,0,0-.01-.01-.01-.02.21-.03.36-.14.4-.36.74-.68,1.4-1.41,1.78-2.36.16-.16.35-.3.48-.48,3.17-4.4,6.8-8.42,10.27-12.58,1.08-1.3,2.51-2.3,3.26-3.87.35-.2.73-.32,1.01-.66,1.91-2.31,4.1-4.35,6.29-6.38,6.19-5.74,12.57-11.26,20.05-15.28,6.72-3.61,13.83-6.34,20.93-9.09,2.99-1.16,5.99-2.31,8.99-3.47.81.21,1.36-.72,2.17-.49.5.22.89.55,1.21,1.02,3.46,5.13,7.75,9.44,12.88,12.91,6.43,4.35,13.51,7.06,21.06,8.68,3.94.85,7.9,1.45,11.91,1.8,4.74.41,9.51.38,14.26.35,2.54-.02,5.08-.03,7.62-.14,4.6-.2,9.14-1.09,13.76-1.02.72.01,1.45-.04,2.17-.07.82-.57,1.09.53,1.71.57,5.32,4.08,11.37,6.7,17.68,8.79,1.46.48,2.92.94,4.39,1.4h-.01ZM238.81,330.27c2.73-.07,5.91-.19,9.06-.61,10.98-1.48,21.33-4.98,31.28-9.76.94-.45,1.96-.73,2.77-1.42.42-.35.89-.72.42-1.36-.42-.57-.85-1.12-1.67-.66-.2.11-.4.22-.6.31-8.32,3.87-16.8,7.29-25.81,9.21-13.68,2.91-27.13,2.39-40.24-2.81-9.77-3.87-18.25-9.62-25.2-17.55-.54-.61-1.1-1.2-1.69-1.76-.52-.49-1.04-.18-1.45.18-.4.35-.57.83-.25,1.34.22.34.47.66.73.98,3.37,4.21,7.37,7.77,11.74,10.87,12.11,8.59,25.6,13.01,40.93,13.02l-.02.02ZM109.41,417.23c.25-.09.74-.22,1.18-.43,6.04-2.93,12.09-5.82,18.09-8.81,9.58-4.77,19.15-9.54,28.66-14.44,12.94-6.66,25.82-13.43,38.73-20.15.75-.39.97-.95.65-1.67-.34-.75-.86-1.13-1.73-.65-1.71.93-3.45,1.81-5.17,2.72-13.1,6.93-26.25,13.78-39.47,20.49-13.17,6.69-26.38,13.33-39.74,19.63-.78.37-1.58.7-2.24,1.27-.38.33-.56.72-.28,1.2.25.42.44.93,1.32.83h0Z" fill="#f0b242" stroke-width="0"/>
  <path d="M194.22,289.58c-3,1.16-5.99,2.31-8.99,3.47-7.1,2.76-14.21,5.48-20.93,9.09-7.48,4.02-13.86,9.55-20.05,15.28-2.19,2.03-4.38,4.07-6.29,6.38-.28.34-.66.46-1.01.66.11-.67.28-1.33.34-2.01.85-10.71,1.7-21.41,2.51-32.12.71-9.4,1.35-18.8,2.07-28.2.62-8,1.29-15.99,1.99-23.98.58-6.5,1.22-12.99,1.87-19.48.41-4.06.87-8.11,1.31-12.16.06-.19-.06-.25-.2-.31h.02c-.14-.45.39-.72.32-1.15.27-.35.21-.78.25-1.18.95-8.97,2.21-17.9,3.62-26.8,1.32-8.32,2.83-16.61,4.67-24.83,1.37-6.14,2.85-12.26,4.63-18.29,2.06-6.98,4.48-13.84,7.45-20.49,2.91-6.52,6.54-12.58,11.15-18.05,3.31-3.92,6.95-7.51,10.64-11.05,5.75-4.61,11.55-9.15,17.98-12.81,8.09-4.61,16.61-8.1,25.85-9.53,7.26-1.12,14.56-1.15,21.75.57,5.02,1.2,9.7,3.27,13.75,6.54,1.02.82,2.18.52,3.26.6,18.61,1.42,32.45,10.71,42.59,25.94,4.71,7.08,7.5,15,9.41,23.26,1.81,7.84,2.84,15.77,3.18,23.8.03.91-.6,1.47-1.1,2.09-.23.28-.55.5-.71.82-1.5,3.09-3.41,5.94-4.9,9.05-1.92,4.01-3.78,8.03-5.28,12.21-1.01,2.82-2.4,5.57-2.2,8.7.04.61-.4.36-.71.45-.69.2-1.37-.69-2.02.02-.09-.03-.17-.07-.26-.1-.01-.31.02-.65-.41-.75-1.94-.44-3.94-.18-5.86-.12-1.6.05-3.23,1.03-4.71,2-1.71,1.11-3,2.81-4.99,3.55-.18.07-1.36.36-.62,1.22-1.84,1.18-2.56,1.03-3.12-.85-1.59-5.3-3.84-10.34-6.22-15.32-.95-1.98-1.67-4.14-3.27-5.75-1.89-1.89-3.85-3.72-5.76-5.59-5.32-5.22-10.18-10.85-14.16-17.17-6.34-10.08-10.67-20.93-12.31-32.78-.04-.29.08-.7-.31-.82-.39-.12-.5.29-.69.52-1.24,1.5-2.45,3.02-3.73,4.49-11.29,12.93-24.95,22.69-40.34,30.15-6.23,3.02-12.74,5.38-19.06,8.17-5.52,2.44-9.4,6.52-11.43,12.26-.63,1.79-1.15,3.61-1.72,5.42-.2.03-.31.1-.08.27.08.26-.02.44-.25.57-.09-.08-.18-.15-.27-.23-.03.04-.05.08-.08.13.11.04.23.07.34.11-.04.23-.07.47-.11.7-.56.18-.76.9-1.48,1.01-.13-.58-.27-1.14-.37-1.71-.79-4.24-.58-8.52-.57-12.79,0-.54.34-1.43-.33-1.55-.72-.12-.69.75-.76,1.32-.02.17-.11.34-.19.5-1.68,2.88-2.64,6.08-3.76,9.18-1.77,4.91-3.09,9.94-3.75,15.18-.67,5.38-1.23,10.74-1.31,16.17-.09,6.26.54,12.43,1.66,18.57.33,1.8.71,3.6,1.17,5.38.52,2.01,1.03,4.03,1.77,5.97,1.09,2.85,2.34,5.64,3.58,8.43.87,1.94,1.73,3.9,2.78,5.74,1.15,2.03,2.17,4.14,3.32,6.17.78,1.37,1.43,2.89,2.13,4.34,1.05,2.17,2.43,4.19,3.31,6.41,1.07,2.71,2.55,5.21,3.73,7.86,1.55,3.48,3.09,6.98,4.68,10.45,1.66,3.63,3.17,7.33,4.56,11.07.34.92.8,1.8,1.2,2.7.26.58,1.43,1.09.12,1.78-.11.06-.09.32.05.31.77-.07.82,1.12,1.64.92l.02.02ZM253.28,106.91c.04-1.28-.65-2.34-1.01-3.51.08,1.38,0,2.79.61,4.09.25,1.19.33,2.42.91,3.53.09.44.16.89.27,1.33,2.66,10.18,7.12,19.5,13.23,28.05,3.03,4.24,6.36,8.24,10.3,11.69.68.64,1.36,1.29,2.04,1.93l.18-.18c-.55-.68-1.11-1.36-1.66-2.04-.12-.17-.23-.34-.35-.51-.08-.09-.16-.19-.24-.28l-.26-.36.04-.03h-.06c-.17-.27-.31-.55-.5-.81-8.88-12.2-16.76-24.96-22.21-39.11l-1.29-3.78h0ZM169.49,150.15c.58-.07,1.04-.47,1.53-.78,11.36-7.3,22.88-14.33,34.38-21.39,12.2-7.5,24.38-15.03,35.92-23.53,2.23-1.64,4.3-3.48,6.37-5.31.98-.87.89-1.74-.09-2.16-.72-.31-1.12.25-1.53.61-7.24,6.46-15.42,11.6-23.49,16.89-11.3,7.41-22.96,14.24-34.41,21.41-5.07,3.17-10.14,6.34-15.2,9.53-1.42.89-2.79,1.85-4.17,2.8-.46.31-.63.77-.45,1.31.18.52.64.58,1.14.63h0Z" fill="#1a2d4d" stroke-width="0"/>
  <path d="M421.35,123.2c-.13-4.07-.73-8.11-.61-12.2.25-8.34,2.21-16.25,5.62-23.85,2.26-5.04,5.11-9.71,8.68-13.88,3.66-4.28,7.87-7.98,12.79-10.85,4.97-2.9,10.23-5.04,15.84-6.25,9.49-2.05,18.97-1.98,28.31.75,7.2,2.1,13.43,5.99,18.99,11,5.43,4.9,10.3,10.31,14.42,16.35,2.66,3.9,4.63,8.17,6.16,12.64,1.35,3.96,2.15,8.03,2.65,12.15.49,4.09.4,8.21-.2,12.3-.68,4.67-1.81,9.2-3.48,13.62-2.06,5.46-4.79,10.54-8.19,15.26-4.63,6.42-10.25,11.82-16.98,16.02-6.06,3.78-12.57,6.31-19.74,7.11-7.52.84-14.78-.36-21.96-2.42-5.83-1.67-11.61-3.51-16.96-6.4-3.74-2.02-7.32-4.33-10.14-7.6-.35-.41-.68-.54-1.16-.51-.11-.29-.25-.57-.33-.86-1.35-5.27-3.34-10.29-5.92-15.09-1.39-2.59-3.23-4.9-4.82-7.36-.09-.4.07-1.02-.71-.81h0c-.02-1.03,0-2.07-1.16-2.58-.01-.18-.02-.36-.04-.54.31-.3.3-.57-.07-.81,0-.25-.01-.51-.02-.76-.02-.51.35-1.15-.43-1.44-.01-.26-.02-.53-.04-.79.39-.86.18-1.59-.51-2.2h.01ZM478.44,85.66h-35.25c-1.88,0-2.01.13-2.01,2.02v25.59c0,3.18-.02,6.35.01,9.53.02,1.82.28,2.04,2.04,2.04,6.55.03,13.11-.09,19.66-.21,2.88-.05,5.76.42,8.66,0,1.34-.19,1.7.5,1.1,1.7-.16.32-.38.62-.57.92-2.58,4.12-5.87,7.66-9.11,11.25-2.29,2.54-4.95,4.77-6.56,7.89-1,1.94-.34,4.12,1.56,5.25,1.76,1.05,3.74,1.11,5.65,1.19,5.16.21,10.32.2,15.49.33,3.85.1,7.71,0,11.53-.37,4.86-.45,9.64-1.45,14.13-3.48,1.7-.77,3.29-1.73,4.36-3.34,1.4-2.11.55-4.08-1.25-6.26-2.24-2.72-5.19-4.44-8.49-5.6-.72-.25-1.87-.46-1.89-1.06-.03-.7,1.11-.85,1.8-1.13,5.08-2.04,10.35-3.51,15.52-5.28.6-.21,1.74-.26,1.55-.96-.18-.68-1.28-.34-1.94-.23-4.99.89-9.84,2.28-14.57,4.1-1.73.67-3.46,1.39-4.96,2.49-1.05.77-1.02,1.32-.06,2.16,1.29,1.14,2.92,1.59,4.46,2.21,3.29,1.32,5.99,3.32,7.96,6.29.71,1.07.52,2.26-.51,2.96-2.29,1.59-4.86,2.57-7.51,3.39-5.03,1.55-10.23,1.75-15.41,1.87-6.25.15-12.51.06-18.76-.24-1.35-.06-2.72-.1-4.05-.31-1.1-.18-2.24-.45-2.75-1.69-.51-1.25.28-2.07,1-2.88,3.13-3.51,6.27-7.01,9.41-10.51,2.76-3.07,5.2-6.37,6.97-10.11.33-.69.78-.61,1.31-.63,3.29-.13,6.58.11,9.88.06,9.21-.16,18.42-.08,27.63-.05,1.13,0,1.61-.26,1.61-1.52-.04-11.84-.05-23.68,0-35.52,0-1.44-.64-1.83-1.83-1.89-.41-.02-.82-.01-1.22-.01h-34.57l-.02.04Z" fill="#a7dce0" stroke-width="0"/>
  <path d="M147.06,206.52c-.44,4.05-.91,8.1-1.31,12.16-.65,6.49-1.3,12.98-1.87,19.48-.71,7.99-1.37,15.98-1.99,23.98-.73,9.4-1.36,18.8-2.07,28.2-.81,10.71-1.66,21.41-2.51,32.12-.05.67-.22,1.34-.34,2.01-.75,1.57-2.18,2.57-3.26,3.87-3.47,4.16-7.1,8.18-10.27,12.58-.13.18-.32.32-.48.48-.81-.56-1.59.09-2.36.16-4.96.45-9.44,2.4-13.6,5.02-4.24,2.68-7.87,6.09-10.66,10.27-2.8,4.21-4.49,8.9-5.3,13.88-.61,3.78-1.09,7.58-1.71,11.36-.14.83-.34,1.74-1.18,2.64-.15-1.31-.37-2.36-.37-3.41-.02-31.49,0-62.98-.04-94.47,0-1.13.32-1.45,1.48-1.68,5.92-1.21,11.42-3.48,16.56-6.72,4.6-2.9,8.54-6.55,12.14-10.52,3.51-3.88,6.67-8.09,8.36-13.17.28-.85.52-1.74.66-2.62.38-2.43-.87-3.91-3.42-3.9-4.32.01-8.53.7-12.54,2.4-3.28,1.39-6.35,3.08-9.26,5.19-5.23,3.8-9.21,8.6-12.32,14.19-.33.59-.66,1.56-1.27,1.42-.73-.17-.34-1.16-.34-1.77-.02-14.52,0-29.04-.06-43.56,0-1.56.51-2.66,1.51-3.72,3.91-4.15,7.37-8.67,10.63-13.34,1-1.44,2.02-2.89,2.69-4.53.26-.64.66-.74,1.3-.53,3.55,1.2,7.18,1.04,10.86.74,1.75-.14,3.51-.33,5.27-.33,2.31,0,4.63-.25,6.91-.2,4.95.11,9.94.03,14.82,1.22,1.69.41,3.45.57,5.17.84h-.02c.07.1.14.2.2.31v-.05Z" fill="#c9e8ea" stroke-width="0"/>
  <path d="M85.59,404.25c-.57,1.67-1.53,3.16-2.25,4.75-2.68,5.89-5.62,11.66-8.11,17.64-.45,1.08-1.01,2.11-1.52,3.16-1.64-1.29-2.81-3.02-4.15-4.59-4.48-5.22-8.28-10.95-12.08-16.67-2.57-3.87-4.91-7.91-7.19-11.98-2.63-4.71-5.13-9.48-7.4-14.37-2.43-5.23-4.65-10.56-6.75-15.94-2.06-5.27-3.78-10.64-5.51-16.01-1.57-4.85-2.77-9.8-3.93-14.77-.57-2.46-1.14-4.92-1.63-7.39-.71-3.57-1.13-7.21-1.88-10.77-.58-2.75-.71-5.54-1.19-8.29-.42-2.44-.43-4.94-.68-7.41-.55-5.54-.84-11.08-.87-16.65-.02-4.24.06-8.47.27-12.71.17-3.56.58-7.1.88-10.65.12-1.44.29-2.87.29-4.32,0-.99.67-1.16,1.39-.67,1.77,1.2,3.68,2.11,5.65,2.92,3.29,1.35,6.69,1.8,10.16,1,3.51-.81,6.93-2,10.46-2.68,4.84-.93,9.72-1.34,14.67-.53,3.61.59,7.02,1.69,10.22,3.33,3.36,1.72,6.18,4.21,8.65,7.09.41.48.83.95,1.25,1.43.61.7.94,1.45.99,2.43.51,10.15.07,20.31.26,30.46.02,1.25-.59,2.49-.06,3.75.08.19.03.5-.27.51-.13,0-.34-.15-.4-.29-1.34-2.96-3.41-5.41-5.46-7.87-1.86-2.23-4.01-4.14-6.34-5.84-3.23-2.35-6.75-4.16-10.58-5.32-3.87-1.17-7.77-1.73-11.86-1.34-3.27.31-6.08,1.39-8.71,3.29-3.07,2.21-4.66,5.28-5.27,8.84-.91,5.22.19,10.13,3.4,14.33,2.72,3.55,6.1,6.48,9.57,9.34,4.42,3.64,8.74,7.4,12.57,11.71,2.64,2.98,5.18,6.03,7.44,9.28,1.89,2.71,3.83,5.44,5.18,8.62-1.28.06-2.37-.45-3.48-.72-6.19-1.51-11.96-4.11-17.42-7.3-3.42-2-6.56-4.49-9.52-7.16-3.95-3.57-7.2-7.73-9.82-12.34-1.61-2.82-2.72-5.89-3.7-8.99-.18-.56-.34-1.14-.61-1.65-.22-.42-.3-1.18-1.11-.83-.68.29-1.16.72-.94,1.57.5,1.97,1.01,3.94,1.81,5.81,1.34,3.11,2.82,6.16,4.77,8.93,2.77,3.93,6,7.43,9.61,10.63,3.17,2.81,6.67,5.09,10.31,7.19,3.25,1.87,6.71,3.31,10.23,4.62,3.18,1.18,6.4,2.2,9.74,2.74,2.26.37,2.39,2.24,2.96,3.73,2.29,5.95,3.73,12.15,5.53,18.25.68,2.29,1.74,4.45,2.26,6.8.12.54.13,1.08.14,1.62,0,6.76.02,13.52.02,20.28h0Z" fill="#c9e8ea" stroke-width="0"/>
  <path d="M189.61,84.37c-3.69,3.55-7.33,7.14-10.64,11.05-4.62,5.47-8.24,11.53-11.15,18.05-2.97,6.65-5.38,13.51-7.45,20.49-1.78,6.03-3.26,12.14-4.63,18.29-1.84,8.23-3.35,16.52-4.67,24.83-1.41,8.9-2.67,17.83-3.62,26.8-.04.4.02.82-.25,1.18.04-1.32-.47-1.75-1.9-1.87-3.99-.35-7.94-1.14-11.93-1.47-3.11-.25-6.26,0-9.39-.1-4.76-.16-9.46.71-14.2.84-1.1.03-2.15-.22-3.23-.29-.29-.02-.59-.08-.68-.36-.14-.43.28-.52.54-.65,2.36-1.14,4.79-2.1,7.23-3.04,3.45-1.33,7-2.4,10.33-4.04,4-1.97,6.95-4.92,8.96-8.85,1.75-3.43,2.44-7.05,1.62-10.85-.28-1.31-.86-2.55-1.97-3.47-2.6-2.17-5.64-3.15-8.97-3.29-2.31-.1-4.67-.22-6.89.36-3.13.82-6.2,1.97-8.84,3.93-3.89,2.88-6.63,6.61-7.94,11.32-.91,3.28-.98,6.59-.54,9.94.3,2.32.28,4.75.99,6.94.67,2.06.22,3.53-.87,5.16-2.73,4.05-5.61,7.98-8.73,11.73-.72.87-1.41,1.77-2.12,2.64-.16.2-.36.47-.66.38-.34-.1-.23-.44-.25-.7,0-.18,0-.36,0-.54,0-27.59.02-55.17-.04-82.76,0-1.72.67-2.82,1.85-3.83,3.75-3.19,7.42-6.48,11.25-9.57,2.88-2.32,5.94-4.41,8.93-6.59,5.56-4.04,11.42-7.63,17.38-11.03,6.16-3.51,12.52-6.62,19.02-9.46,6.58-2.88,13.28-5.41,20.1-7.66,5.91-1.94,11.85-3.83,17.99-4.97.88-.16,1.73-.53,2.61-.73,1.71-.37,2.67.42,2.76,2.2h0Z" fill="#c9e8ea" stroke-width="0"/>
  <path d="M424.32,133.14c1.59,2.46,3.43,4.77,4.82,7.36,2.58,4.79,4.57,9.81,5.92,15.09.08.3.22.58.33.86,2.03,8.43,2.93,17.02,3.67,25.64.57,6.72,1.51,13.4,2.45,20.08.08.57.08,1.21.97,1.15.59-.04.77.45.8.91.19,3.14,1.52,5.93,2.6,8.8-.68,1.1.28,2.52,1.53,3.03.04.06.06.14.04.21-.04.56-.46.77-.9.85-1.16.21-.42,1.18-.69,1.75-.24.5.1.94.72,1.01.56.99.85,2.14,1.65,2.99-.02.52.48.73.68,1.12,3.88,7.42,8.46,14.45,12.66,21.69,5.16,8.9,9.28,18.18,10.88,28.44,1,6.4,1.26,12.77-.15,19.17-1.9,8.57-6.47,15.19-13.94,19.8-.9-.15-1.71-.08-2.24.81-.27.45-.42,1.02-.94,1.24-1.19.51-2.46.92-3.65,1.27-2.81.84-5.47,2.02-8.2,3.02-.78.29-1.1-.07-1.62-.17v-.54c.09-.09.18-.21.29-.27.99-.49,1.51-.99.25-1.82-.41-.27-.32-.83-.25-1.27.26-1.59.17-3.19.23-4.78.01-.41-.23-.55-.59-.57-.38-.32-.47-.73-.46-1.22.02-2.95-.47-5.87-.94-8.75-1.2-7.36-3-14.6-5.08-21.76-2.3-7.94-4.49-15.91-6.44-23.94-1.84-7.57-3-15.25-3.32-23.04-.14-3.38-.08-6.78-.11-10.17-.04-5.45.3-10.87.71-16.28.55-7.13,1.03-14.26,1.23-21.4.17-6.25.02-12.49-.73-18.71-.68-5.59-1.95-11.03-3.92-16.3-1.99-5.31-4.6-10.3-7.73-15.06-3.24-4.92-6.71-9.62-10.95-13.74-.23-.22-.54-.39-.16-.73,2.15.77,4.26,1.64,6.29,2.71,4.39,2.32,8.25,5.32,11.78,8.78.55.69,1.06,1.42,1.8,1.94h0c.12.37.35.65.71.81h0Z" fill="#1a2d4e" stroke-width="0"/>
  <path d="M59.99,167.33c-1.02-.81-.61-1.53.04-2.37,2.83-3.63,5.56-7.34,8.42-10.95,1.54-1.95,3.25-3.76,4.9-5.62,3.32-3.72,6.9-7.2,10.43-10.71.22-.22.43-.49.7-.64.59-.34,1.06-.31,1.09.54,0,.27,0,.54,0,.82v126.58c0,.43.24,1.06-.2,1.26-.55.25-.87-.41-1.13-.76-2.3-3.09-5.47-5.11-8.72-6.95-3.35-1.9-7-3.05-10.85-3.52-4.45-.54-8.89-.71-13.3.3-1.12.26-1.56-.15-1.07-1.21.88-1.92,1.18-3.97,1.68-5.98,1.28-5.15,1.16-10.13-1.5-14.93-3.06-5.52-7.77-8.82-13.58-10.87-1.73-.61-3.52-.71-5.29-1.02-.68-.12-.8-.34-.57-1,2.79-7.92,5.92-15.7,9.77-23.18,1.46-2.84,2.85-5.72,4.46-8.46.58.21.6.68.83,1.01.42,1.1.73,2.24,1.26,3.28,3.26,6.41,8.38,10.88,14.84,13.85,1.6.74,3.45,1.1,5.08.15,2.08-1.21,3.23-3.29,4.02-5.45,2.22-6.1,2.19-12.27.14-18.42-1.63-4.88-4.45-9.04-8.02-12.69-1.07-1.09-1.99-2.37-3.43-3.05h0Z" fill="#c9e8ea" stroke-width="0"/>
  <path d="M471.03,392.54c.19-1.14-.07-2.34.45-3.44,4.18,2.86,7.89,6.28,11.45,9.85,6.24,6.27,10.86,13.61,14.56,21.59,3.91,8.45,1.93,16.06-3.39,23.1-3.17,4.18-7.56,6.73-12.42,8.58-2.58.98-5.21,1.74-7.87,2.42-.45.12-.84.34-1.09.75-.7.01-1.39.02-2.09.04-.12-1.22-.84-1.51-1.98-1.44-5.84.37-11.69.33-17.52-.15-3.42-.28-6.86-.44-10.24-1.17.23-1.92.38-3.86.72-5.77.51-2.88.93-5.78,1.32-8.67.4-2.97.91-5.93,1.36-8.89.64-4.28,1.4-8.54,1.98-12.83.2-1.45.64-2.9.35-4.39.13-.12.36-.23.37-.36.2-2.56,1.01-5.06.87-7.66,2.33-.96,4.67-1.92,7-2.88,4.85-1.99,9.7-3.97,14.55-5.97,1.96-.81,2.13-1.11,1.61-2.7h.01Z" fill="#f0b242" stroke-width="0"/>
  <path d="M85.46,373.84c-.96-1.09-.93-2.26-1.15-3.22-.89-3.91-2.31-7.65-3.43-11.49-.6-2.06-1.38-4.06-2.3-6.01-1.42-3-3.02-5.91-4.81-8.7-1.9-2.96-3.88-5.88-6.16-8.57-3.4-3.99-6.99-7.78-10.85-11.34-4.58-4.22-9.69-7.85-13.8-12.59-3.73-4.3-5.19-9.24-3.81-14.69,1.04-4.12,3.68-7.14,7.97-8.47,3.93-1.22,7.81-.92,11.76-.16,6.23,1.19,11.45,4.2,16.06,8.44,3.76,3.45,6.65,7.53,8.86,12.11.14.28.33.54.48.82.77,1.38,1.33,2.78,1.32,4.45-.05,16.28.02,32.57-.08,48.85-.02,3.42.32,6.84-.07,10.59v-.02Z" fill="#c9e8ea" stroke-width="0"/>
  <path d="M470.64,455.42c.7-.01,1.39-.02,2.09-.04.24,13.8.55,27.6.2,41.41-.02.63-.11,1.26-.16,1.89-.4.02-.81.1-1.2.07-1.11-.1-1.98.05-2.11,1.43-.06.67-.65.63-1.16.65-4.53.17-9.06.07-13.59.06-1.34,0-1.63-.47-1.61-1.74.14-9.24.24-18.48.5-27.71.12-4.44.11-8.87.12-13.31,0-1.1.31-1.42,1.52-1.33,4.8.37,9.59.09,14.38-.38.68-.07.96-.39,1.04-1h-.02Z" fill="#de5840" stroke-width="0"/>
  <path d="M122.32,170.03c1.65-.15,3.65.29,5.67.91,2.98.92,5.08,3.99,4.57,7.42-.89,6-4.01,10.23-8.93,13.29-2.99,1.86-6.45,2.75-9.74,3.96-3.39,1.24-6.84,2.33-9.82,4.47-.66.47-1.1.16-1.36-.66-.57-1.78-.63-3.63-.95-5.45-.61-3.49-.49-6.97.52-10.31,1.93-6.36,6.25-10.45,12.53-12.64,2.33-.81,4.66-.96,7.52-.99h-.01Z" fill="#c9e8ea" stroke-width="0"/>
  <path d="M87.76,280.18c-.35-2.07.94-3.94,1.86-5.87,2.11-4.43,4.85-8.46,8.25-12.01,3.27-3.42,6.98-6.25,11.27-8.34,2.66-1.3,5.42-2.24,8.29-2.87,2.02-.45,4.08-.62,6.16-.48.83.06.96.43.94,1.12-.02.88-.25,1.7-.58,2.49-2.94,7.04-7.81,12.64-13.4,17.66-2.38,2.14-4.93,4.15-7.7,5.71-4.09,2.29-8.41,4.17-13.12,4.9-.09.01-.18.02-.27.04-1.69.4-1.7.4-1.71-1.27v-1.09h0Z" fill="#c9e8ea" stroke-width="0"/>
  <path d="M48.28,188.57c-.1-.94-.05-1.92-.33-2.81-.45-1.4.13-2.42.8-3.53,2.49-4.13,5.15-8.15,7.77-12.2.75-1.15,1.37-1.33,2.38-.52.2.24.37.52.6.72,3.25,2.73,5.87,5.95,7.82,9.73,2.22,4.31,3.57,8.78,3.04,13.72-.34,3.2-.84,6.31-2.5,9.17-1.33,2.28-2.48,2.66-4.93,1.55-1.5-.68-2.81-1.61-4.22-2.41-1.66-.93-3.13-2.14-4.42-3.51-2.69-2.86-4.79-6.12-6.01-9.9h0Z" fill="#c9e8ea" stroke-width="0"/>
  <path d="M470.64,455.42c-.08.61-.36.94-1.04,1-4.78.46-9.58.74-14.38.38-1.21-.09-1.51.23-1.52,1.33-.01,4.44,0,8.88-.12,13.31-.26,9.24-.36,18.47-.5,27.71-.02,1.27.28,1.74,1.61,1.74,4.53,0,9.06.1,13.59-.06.5-.02,1.09.02,1.16-.65.13-1.38,1-1.53,2.11-1.43.39.04.8-.04,1.2-.07,1.11.28,1.32,1.09.9,1.97-.5,1.03-1.62.82-2.41.63-4.68-1.11-9.42-.58-14.14-.61-11.96-.07-23.91-.03-35.87-.02-21.27.02-42.55.07-63.82.08-24.77.01-49.54,0-74.3,0-11.14,0-22.28-.05-33.41-.05-7.48,0-14.97.18-22.45,0-4.39-.11-8.78-.07-13.17-.09-.41,0-.88-.2-1.25.16-.11.27.15.17.21.18,4.19.24,8.39.12,12.58.1.17,0,.34-.11.52-.16,15.75.02,31.49-.01,47.24.08,3.73.02,3.58-.15,3.66-3.68.27-11.25.51-22.49.89-33.74.42-12.55.78-25.11,1.01-37.67,0-.54-.09-1.11.28-1.58.44-.57,1.06-.5,1.62-.34.73.2.7.86.69,1.46-.1,5.17-.19,10.34-.32,15.51-.26,10.16-.5,20.31-.84,30.47-.22,6.48-.4,12.96-.54,19.45-.06,2.85-.23,5.71-.44,8.55-.09,1.15.33,1.54,1.43,1.52,2.13-.04,4.26-.02,6.39-.02,22.46,0,44.92.02,67.38.02,21.28,0,42.56-.02,63.84-.02,9.21,0,18.42.03,27.63.04.91,0,1.83-.14,2.71-.02,1.4.19,1.74-.49,1.76-1.7.06-4.35.16-8.71.22-13.06.13-8.25.24-16.51.37-24.76.02-1.22.07-2.45.19-3.67.1-.96-.25-1.21-1.2-1.27-3.89-.21-7.74-.77-11.59-1.39-1.2-.19-1.91-.74-1.74-2.07.26-.64.8-.61,1.35-.56.93.08,1.86.16,2.78.24,3.37.73,6.81.88,10.24,1.17,5.84.48,11.68.52,17.52.15,1.14-.07,1.86.22,1.98,1.44h0Z" fill="#1f2437" stroke-width="0"/>
  <path d="M403.74,118.91c-.37.34-.06.51.16.73,4.24,4.11,7.71,8.81,10.95,13.74,3.13,4.76,5.74,9.75,7.73,15.06,1.97,5.26,3.24,10.71,3.92,16.3.76,6.22.91,12.47.73,18.71-.2,7.14-.68,14.27-1.23,21.4-.41,5.41-.76,10.84-.71,16.28.03,3.39-.03,6.78.11,10.17.32,7.79,1.48,15.46,3.32,23.04,1.95,8.03,4.14,16,6.44,23.94,2.08,7.16,3.88,14.4,5.08,21.76.47,2.88.96,5.8.94,8.75,0,.48.08.9.46,1.22-.43,2.91-.13,5.81.06,8.72v.54c-.36.48-.29,1.03-.27,1.57-.91.31-1.81.61-2.72.92-.18-.01-.37-.02-.55-.04.52-.29.83-.6.91-1.32.33-2.85.06-5.68,0-8.53-.09-4.73-.74-9.38-1.53-14.01-1.3-7.57-3.4-14.97-5.51-22.35-1.87-6.56-3.63-13.15-5.32-19.76-2.53-9.87-3.51-19.92-3.79-30.07-.12-4.49.24-8.97.31-13.46.04-2.66.44-5.31.56-7.98.22-4.92.81-9.82.96-14.74.18-5.76.14-11.52.04-17.28-.08-4.66-.65-9.29-1.66-13.84-2.02-9.13-5.78-17.5-11.03-25.22-3.7-5.45-8.11-10.3-12.57-15.11l.22-.96c.53-1.02,1.1-.41,1.52.04.71.76,1.48,1.4,2.44,1.78h.03Z" fill="#506496" stroke-width="0"/>
  <path d="M50.47,242.09c.11,4.08-1.39,7.31-2.04,10.71-.05.27-.1.53-.18.79-.36,1.21-.68,1.28-1.61.44-2.25-2.02-4.96-3.28-7.69-4.44-6.42-2.72-9.62-7.69-10.55-14.42-.37-2.68-.39-5.31.3-7.92.27-1,.71-1.95,1.1-2.91.25-.61.82-.64,1.38-.64,2.2,0,4.26.69,6.31,1.36,3.03.98,5.58,2.82,7.74,5.05,3.34,3.44,5.46,7.52,5.24,11.98h0Z" fill="#c9e8ea" stroke-width="0"/>
  <path d="M120.78,344.13c-.38,1.13-1.17,2.01-1.84,2.97-1.98,2.84-3.98,5.67-5.87,8.57-1.9,2.93-3.78,5.86-5.54,8.89-1.16,2-2.47,3.93-3.65,5.94-.72,1.23-1.43,2.48-2.13,3.72-.24.43-.43.9-.91,1.13-3.52,2.32-6.49,5.25-9.38,8.73-.18-1.38.27-2.26.44-3.14.72-3.72.71-7.55,1.64-11.2,1.03-4.05,2.32-8.02,4.78-11.53,2.38-3.4,5.19-6.23,8.61-8.63,2.81-1.97,5.8-3.46,8.95-4.66,1.52-.58,3.18-1.03,4.89-.79h0Z" fill="#c9e8ea" stroke-width="0"/>
  <path d="M441.44,320.83c-.02-.54-.09-1.1.27-1.57.53.1.84.46,1.62.17,2.73-1,5.39-2.19,8.2-3.02,1.19-.36,2.46-.77,3.65-1.27.52-.22.67-.79.94-1.24.53-.89,1.34-.96,2.24-.81-.07.55.29.47.59.36.68-.24,1.35-.53,2.03-.78,5.89-2.11,10.32-5.96,13.32-11.4,2.71-4.92,3.57-10.33,3.55-15.87-.04-13.33-3.54-25.71-10.67-36.99-4.29-6.79-9.27-13.09-13.98-19.58-1.46-2.01-2.92-4.02-4.38-6.04-.14-1.28-1.02-2.18-1.7-3.17-.35-.51-.47-.08-.55.25-.63-.06-.97-.51-.72-1.01.28-.57-.47-1.53.69-1.75.44-.08.86-.29.9-.85,1.64,2.4,3.24,4.84,4.93,7.2,4.8,6.71,9.68,13.37,14.44,20.1,4.72,6.67,8.46,13.86,10.58,21.78,2.36,8.85,3.83,17.82,2.23,27.03-2.22,12.79-9.77,20.62-22.21,23.97-2.59.7-5.29.73-7.84,1.45-2.26.63-4.4,1.7-6.6,2.56-.5.19-1.03.31-1.55.46l.02.02Z" fill="#1a2d4d" stroke-width="0"/>
  <path d="M158.56,498.71c.72,0,1.44,0,2.17.02,1.41.02,1.72.39,1.56,1.83-.59.96-1.58.76-2.44.77-2.86.05-5.72.02-8.58.02-27.68,0-55.36,0-83.03.01-.68,0-1.37.02-2.04-.08-.65-.1-1.31-.42-1.22-1.19.07-.67.58-1.11,1.32-1.13h89.43c.95,0,1.91.09,2.83-.24h0Z" fill="#1f2437" stroke-width="0"/>
  <path d="M151.31,454.84c4.02-2.45,8.07-4.86,12.07-7.35,9.42-5.87,18.85-11.74,28.22-17.68,7.5-4.75,14.95-9.59,22.22-14.71.3-.21.62-.38.92-.57.72-.46,1.36-.48,1.86.32.48.76.12,1.29-.5,1.72-2.47,1.69-4.93,3.38-7.41,5.06-9.61,6.5-19.4,12.72-29.23,18.87-6.3,3.94-12.66,7.78-18.99,11.67-.65.4-1.37.71-1.83,1.36-2.06.68-3.72,2.08-5.58,3.12-1.8,1.01-3.54,2.15-5.3,3.24-.81.5-1.56.64-2.21-.25-.15-.32-.17-.65-.06-.99h-.01c1.94-1.27,3.89-2.54,5.83-3.82h0Z" fill="#1f2437" stroke-width="0"/>
  <path d="M35.66,258.61c-5.09-.32-9.04-2.19-12.55-5.14-.49-.41-.44-.83-.34-1.33.88-4.37,1.76-8.73,2.63-13.1.09-.45.11-1.05.61-1.09.68-.06.62.68.72,1.1,1.25,5.03,4.13,8.88,8.58,11.46,1.9,1.1,3.98,1.89,5.99,2.79,1.4.62,2.49,1.59,3.69,2.45.51.36.33.78-.29.95-2.21.6-4.35,1.5-6.68,1.58-.95.03-1.86.47-2.37.35v-.02Z" fill="#c9e8ea" stroke-width="0"/>
  <path d="M48.28,188.57c1.22,3.78,3.32,7.04,6.01,9.9,1.28,1.37,2.76,2.57,4.42,3.51,1.41.8,2.73,1.73,4.22,2.41,2.45,1.11,3.6.74,4.93-1.55,1.66-2.86,2.16-5.96,2.5-9.17.53-4.93-.82-9.41-3.04-13.72-1.95-3.78-4.57-7-7.82-9.73-.24-.2-.4-.48-.6-.72.66-.58.98-1.33,1.09-2.18,1.44.68,2.37,1.96,3.43,3.05,3.57,3.65,6.39,7.81,8.02,12.69,2.06,6.15,2.09,12.32-.14,18.42-.79,2.16-1.94,4.25-4.02,5.45-1.64.95-3.48.59-5.08-.15-6.46-2.97-11.58-7.44-14.84-13.85-.53-1.04-.85-2.19-1.26-3.28,1.12.42,1.29-1.06,2.19-1.09h0Z" fill="#f1fafa" stroke-width="0"/>
  <path d="M310.46,176.1c.66-.71,1.33.18,2.02-.02.31-.09.75.17.71-.45-.19-3.13,1.2-5.88,2.2-8.7,1.49-4.18,3.35-8.2,5.28-12.21,1.49-3.11,3.4-5.97,4.9-9.05.15-.31.48-.54.71-.82.5-.63,1.13-1.19,1.1-2.09.91-.41,1.13-1.35,1.62-2.09,3.37-5,7.09-9.72,11.54-13.82.64-.59,1.17-1.61,2.37-.85.28.18.63-.25.93-.46.73-.52,1.46-1.04,2.2-1.56.13.11.25.22.38.32-1.36.8-2.9,1.7-3.69,2.85-1.26,1.84-2.69,3.48-4.21,5.06-5.01,5.22-8.71,11.36-12.32,17.56-1.72,2.96-3.14,6.09-4.59,9.19-1.23,2.64-2.39,5.33-3.45,8.05-1.17,3.02-2.41,6.01-3.1,9.21-.26,1.23-.13,2,.83,2.68.54.38,1.03.76.78,1.53-1.7-1.99-3.85-3.33-6.23-4.34h.02Z" fill="#112139" stroke-width="0"/>
  <path d="M98.54,379.66c-.51,2.05-1.86,3.67-2.83,5.48-2.45,4.59-4.86,9.2-7.22,13.85-.17.34-.21.82-.72.91-.11-2.85.17-5.71-.18-8.55-.04-.31.09-.52.28-.72,1.87-1.95,3.68-3.95,5.63-5.81.76-.73,1.32-1.6,2.05-2.32.98-.96,1.99-1.88,2.99-2.82v-.02Z" fill="#c9e8ea" stroke-width="0"/>
  <path d="M346.42,124.31c-.13-.11-.25-.22-.38-.32,4.6-3.47,9.76-5.82,15.23-7.53,10.3-3.22,20.71-2.96,31.14-.72,2.08.44,4.14.97,6.2,1.5.44.11.8.05,1.16-.15-.07.32-.15.64-.22.96-1.06.46-1.86-.21-2.8-.53-2.74-.91-5.58-1.51-8.44-1.91-2.14-.3-4.28-.63-6.43-.73-3.3-.16-6.6-.25-9.9.06-2.08.2-4.1.77-6.14,1.12-1.53.26-2.98.6-4.41,1.13-1.7.64-3.21,1.77-5.18,1.79-.59,0-1.5.38-1.8,1.24-.13.36-.38.67-.83.46-.49-.23-.88.08-1.31.16-1.1.21-1.72,1.06-2.52,1.73-.93.78-2.3,1.03-3.37,1.74h0Z" fill="#1a2d4d" stroke-width="0"/>
  <path d="M438.16,321.71c.18.01.37.02.55.04-1.21.66-.92,1.57-.38,2.48.29.49.63.95.95,1.43-1.21-.45-2.19-1.33-3.43-1.74-1.12-.37-2.22-.66-3.41-.38,1.9-.61,3.81-1.22,5.72-1.83h0Z" fill="#a7dce0" stroke-width="0"/>
  <path d="M423.61,132.33c-.74-.52-1.25-1.25-1.8-1.94.11-.32.32-.54.65-.65,1.16.52,1.14,1.56,1.16,2.58h-.01Z" fill="#c9e8ea" stroke-width="0"/>
  <path d="M447.41,216.07c-1.25-.52-2.21-1.93-1.53-3.03.71.91,1.06,2,1.53,3.03Z" fill="#1a2d4d" stroke-width="0"/>
  <path d="M145.49,458.66c-.12.34-.1.67.06.99-.7-.8-1.3.24-1.96.1.48-.64,1.01-1.17,1.9-1.09Z" fill="#fbbda2" stroke-width="0"/>
  <path d="M421.35,123.2c.7.61.91,1.34.51,2.2-.38-.69-.49-1.43-.51-2.2Z" fill="#c9e8ea" stroke-width="0"/>
  <path d="M421.9,126.19c.77.29.4.92.43,1.44-.75-.3-.42-.92-.43-1.44Z" fill="#c9e8ea" stroke-width="0"/>
  <path d="M422.35,128.39c.37.24.39.51.07.81-.38-.24-.37-.51-.07-.81Z" fill="#c9e8ea" stroke-width="0"/>
  <path d="M98.9,379.17c0,.2-.03.4-.29.43.1-.14.2-.28.29-.43Z" fill="#c9e8ea" stroke-width="0"/>
  <path d="M121.17,343.76c-.05.22-.19.33-.4.36.01-.26.19-.32.4-.36Z" fill="#c9e8ea" stroke-width="0"/>
  <path d="M100.68,375.94c-.03.07-.07.14-.1.21,0-.09.03-.16.1-.21Z" fill="#c9e8ea" stroke-width="0"/>
  <path d="M438.16,321.71c-1.91.61-3.81,1.22-5.72,1.83-3.41.65-6.81,1.37-10.24,1.93-5.93.98-11.87,1.91-17.85,2.56-8.33.91-16.67,1.52-25.05,1.63-.5,0-.99-.03-1.49-.05-1.75-.01-3.51-.03-5.26-.04.06-.39.31-.55.67-.51,1.21.13,1.38-.38,1.03-1.44-1.19-3.55-1.98-7.22-2.67-10.88-.84-4.5-1.48-9.05-2.07-13.61-.7-5.37-1.03-10.77-1.23-16.16-.18-4.74-.15-9.49.13-14.25.37-6.26.85-12.49,1.68-18.7.71-5.31,1.54-10.6,2.61-15.84,1.03-5.03,2.22-10.03,3.59-14.98.2-.73.26-1.51.35-2.27.05-.48-.05-.96-.63-1.03-.46-.06-1.03-.26-1.27.41-.09.24-.28.34-.51.38-.32-2.06.39-4.02.71-6,.19-1.21-.48-1.79-1.27-2.09-.92-.34-1.12.64-1.4,1.28-.11.25-.19.51-.22.78-.5,4.06-1.4,8.06-2.4,12-1.24,4.88-1.84,9.88-3.24,14.73-.73,2.55-.96,5.29-1.39,7.95-.74,4.57-1.28,9.18-1.65,13.8-.43,5.4-.63,10.82-.85,16.23-.2,5.07.42,10.13.28,15.21-.03,1.16.19,2.33.32,3.5.33,2.95.68,5.9,1.02,8.85.3,2.59.46,5.21.93,7.78.83,4.55,1.83,9.08,2.8,13.6.21.99-.08,1.29-1.06,1.29-3.63-.03-7.26,0-10.89,0-5.93.04-11.82-.42-17.72-.95-3.15-.28-6.28-.67-9.42-.99-.58-.06-1.16-.16-1.74-.24.08-.45.04-.89-.05-1.35-.34-1.64-.7-3.27-.95-4.92-.72-4.78-1.23-9.58-1.48-14.42-.31-6.03-.3-12.05.19-18.05.46-5.57,1.3-11.11,2.6-16.58,1.2-5.06,2.62-10.05,4.4-14.93,2.31-6.33,4.7-12.62,7.08-18.92,2.63-6.94,4.81-14.01,6.67-21.2,1.62-6.25,3.14-12.53,4.68-18.8,2.56-10.45,5.12-20.89,8.74-31.04,3.27-9.18,7.28-17.94,13.23-25.72.39-.52.68-1,.08-1.53-.64-.56-1.22-.48-1.73.2-1.03,1.37-2.16,2.68-3.1,4.11-5.73,8.75-9.58,18.37-12.72,28.28-2.86,9.01-5.04,18.2-7.26,27.39-2.18,9.05-4.23,18.13-7.02,27.02-2,6.39-4.38,12.65-6.81,18.89-2.47,6.37-5.01,12.71-6.81,19.31-1.74,6.36-3.12,12.8-3.83,19.38-.73,6.8-1.22,13.58-.82,20.44.39,6.69,1.09,13.32,2.18,19.92.11.67.74,1.51-.02,2.24-2.67-.45-5.33-.97-8.01-1.32-3.05-.41-5.99-1.3-8.99-1.9-.75-.15-1.48-.37-2.22-.55-1.46-.47-2.93-.92-4.39-1.4-6.31-2.08-12.36-4.7-17.68-8.79.32-.91-.33-1.21-.97-1.47-.99-.39-2-.73-2.99-1.11-.22-.08-.63-.06-.49-.47.39-1.19.38-2.36-.08-3.57-.31.15-.62.29-.92.43,0-.53-.01-1-.36-1.52-.88-1.33-1.88-2.59-2.37-4.17-.49-1.57-1.05-3.14-2.23-4.37-.09-.25-.21-.49-.27-.75-1.11-5.13-.92-10.26-.02-15.39.97-5.55,2.62-10.89,4.97-16.02,1.23-1.07,1.93-2.39,1.92-4.05v-.29s.07-.03.09-.05c.01-.01,0-.05.01-.07-.03.04-.06.09-.09.13-.12,0-.23-.01-.35-.02-.24.2-1.29-.44-.65.67.26.46-.11.78-.57,1.21-.04-.63-.07-1.05-.1-1.48-.02-.09-.04-.18-.06-.27.11-.81.62-1.5.8-2.26.17-.7,1.04-1.89-.22-2.13-1.37-.26-.84-.72-.53-1.37.13-.28.21-.58.32-.88,1.27-1.58,2.57-3.15,3.79-4.76,1.56-2.06,3.38-3.92,4.97-5.95,1.39-1.77,3.12-3.41,4.69-5.11,3.65-3.98,7.12-8.11,10.47-12.35,1.52-1.93,3.03-3.87,4.28-6.02.96-1.66,1.54-3.51,2.69-5.06,2.25-3.03,4.74-5.88,6.7-9.13.33-.55.93-1.1.18-1.77.56-1.23,1.2-2.43,1.68-3.68,2.22-5.82,3.75-11.68.72-17.72.54-1.29-.38-1.61-1.29-1.94h0c.25-.77-.24-1.14-.78-1.53-.96-.68-1.09-1.45-.83-2.68.69-3.2,1.93-6.2,3.1-9.21,1.05-2.72,2.21-5.4,3.45-8.05,1.45-3.1,2.86-6.23,4.59-9.19,3.61-6.2,7.31-12.34,12.32-17.56,1.52-1.58,2.94-3.22,4.21-5.06.79-1.15,2.34-2.04,3.69-2.85,1.06-.72,2.44-.96,3.37-1.74.8-.67,1.42-1.52,2.52-1.73.43-.08.82-.39,1.31-.16.44.21.7-.09.83-.46.3-.86,1.21-1.24,1.8-1.24,1.97,0,3.47-1.15,5.18-1.79,1.43-.54,2.88-.88,4.41-1.13,2.05-.34,4.06-.92,6.14-1.12,3.3-.32,6.6-.22,9.9-.06,2.15.1,4.29.44,6.43.73,2.87.4,5.7,1,8.44,1.91.94.31,1.74.99,2.8.53,4.46,4.81,8.87,9.66,12.57,15.11,5.25,7.72,9.01,16.1,11.03,25.22,1.01,4.55,1.58,9.18,1.66,13.84.1,5.76.14,11.53-.04,17.28-.15,4.92-.74,9.82-.96,14.74-.12,2.67-.52,5.32-.56,7.98-.07,4.49-.44,8.96-.31,13.46.28,10.15,1.27,20.2,3.79,30.07,1.69,6.61,3.45,13.2,5.32,19.76,2.1,7.38,4.2,14.78,5.51,22.35.79,4.63,1.44,9.28,1.53,14.01.06,2.85.32,5.68,0,8.53-.08.71-.4,1.03-.91,1.32h-.07ZM323.58,198.07c.7-1.8,1.42-3.59,2.08-5.41.12-.34.25-.87-.29-1.03-.42-.12-.59.28-.79.59-1,1.49-1.92,3.02-2.4,4.78-.31.55-.67,1.08-.91,1.66-1.98,4.82-4.57,9.33-7.26,13.78-2.95,4.88-6.31,9.49-9.74,14.04-2.75,3.64-5.59,7.23-8.55,10.71-4.26,4.99-8.75,9.77-12.9,14.86-1.8,2.21-2.9,4.69-3.35,7.5.76-.82,1.11-1.89,1.81-2.75,4.55-5.58,9.41-10.89,14.2-16.26,6.58-7.38,12.57-15.19,18.13-23.34,3.07-4.49,5.81-9.17,8.15-14.07.76-1.6,1.94-3.11,1.83-5.05h0ZM404.72,325.78c.86,0,1.72-.01,2.58.01.83.03,1.02-.31.8-1.09-.48-1.69-1.11-3.32-1.45-5.06-.33-1.72-1.08-3.31-1.62-4.97-.62-1.91-1.09-3.87-1.68-5.79-.51-1.66-1.17-3.28-1.63-4.96-.55-2.01-.98-4.05-1.55-6.04-.73-2.54-1.45-5.09-1.98-7.68-.75-3.65-1.31-7.35-1.83-11.05-.57-4.02-1.01-8.05-1.15-12.09-.16-4.35-.03-8.71-.04-13.06,0-3.57.48-7.11.92-10.63.5-3.96.91-7.93,1.71-11.86.85-4.2,1.78-8.39,2.51-12.63.52-3.05,1.26-6.07,1.86-9.11.66-3.39,1.21-6.82,1.88-10.2.61-3.09,1.07-6.2,1.66-9.29.71-3.71.7-7.52,1.13-11.28.5-4.36.47-8.78.24-13.16-.1-1.97-.08-3.95-.39-5.93-.35-2.26-1.09-4.41-1.44-6.67-.43-2.78-1.1-3.07-3.54-1.72-.26-.37-.59-.7-.77-1.1-2.22-4.98-5.35-9.37-8.83-13.53-.54-.64-1.13-.89-1.84-.21-.65.62-.7,1.2-.04,1.86.77.77,1.56,1.52,2.22,2.38,3.21,4.15,6.04,8.54,7.85,13.49,1,2.75,2.15,5.55,2.17,8.48.03,5.87.34,11.75-.41,17.63-.65,5.09-1.34,10.18-2.35,15.2-1.19,5.92-2.53,11.8-3.89,17.68-1.24,5.35-2.39,10.72-3.38,16.12-.68,3.72-1.28,7.45-1.75,11.2-.47,3.71-1.1,7.42-1.16,11.14-.09,6.06-.21,12.13.14,18.2.22,3.93.57,7.84,1.24,11.69,1.15,6.61,2.62,13.16,4.55,19.59,1.36,4.53,2.75,9.05,4.25,13.53,1.16,3.47,2.5,6.88,3.79,10.3.19.51.45,1.23,1.25.57l-.03.04ZM376.66,132.13c-.03-1.06-.87-1.41-1.86-.88-5.05,2.69-9.69,5.94-13.97,9.74-5.02,4.46-9.16,9.63-12.56,15.38-2.56,4.32-4.73,8.83-6.57,13.51-1.69,4.3-3.12,8.68-4.46,13.09-1.35,4.45-2.41,8.99-3.66,13.47-.24.88-.28,1.57.66,1.87,1,.31,1.37-.42,1.57-1.23.33-1.36.56-2.75.96-4.09,1.58-5.22,2.96-10.51,4.67-15.7,2.82-8.55,6.45-16.69,11.55-24.12,3.09-4.49,6.8-8.46,10.96-12,3.57-3.03,7.42-5.63,11.59-7.75.58-.3,1.11-.63,1.13-1.29h-.01Z" fill="#1a2d4e" stroke-width="0"/>
  <path d="M232.32,411.62c-3.76-.02-7.53-.15-11.29-.03-2.24.07-4.53.28-6.54,1.47-.65.38-.92.13-1.17-.35-.38-.71-.77-1.42-1.03-2.18-1.47-4.27-3.5-8.3-5.21-12.46-1.22-2.96-2.31-5.98-3.7-8.86-1.39-2.88-2.45-5.9-3.88-8.77-.72-1.45-1.29-3.03-1.95-4.54-.25-.56-.1-1.02.64-1.2,2.05-.48,4.09-1,6.12-1.53,2.11-.54,4.07-1.38,5.83-2.72,4.3-3.28,7.96-7.23,11.83-10.97,3.76-3.64,8.33-6.01,13.04-8.18,2.5-1.15,4.96-2.36,7.53-3.34,2.71-1.03,5.41-2.11,8.15-3.08s5.52-1.82,8.29-2.72c2.68-.79,5.36-1.61,8.05-2.37,1.28-.36,2.39.29,2.72,1.59.33,1.32.17,2.57-.74,3.7-1.85,2.3-4.42,3.56-6.95,4.85-3.35,1.71-6.72,3.38-9.34,6.19-.05.06-.11.12-.16.18l-.05.04c-.87-.07-1.21.72-1.73,1.15-1.29,1.05-2.49,2.23-3.72,3.35.06.12.11.24.17.35,1.26-.58,2.63-.07,3.9-.55,8.84-.88,17.53-2.61,26.14-4.72,4.56-1.11,9.01-2.68,13.5-4.07,2.67-.83,5.23-.98,7.62.81.75.56,1.29,1.27,1.67,2.1.71,1.54.3,2.71-1.22,3.51-.96.51-2.06.72-2.95,1.37-.64-.05-1.27.04-1.87.25-4.64,1.65-9.26,3.38-13.93,4.94-8.77,2.93-17.59,5.66-26.88,6.42-.89.07-1.53.56-1.45,1.45.08.94.69,1.3,1.73,1.17,3.69-.45,7.35-1.04,10.97-1.88,6.61-1.52,13.1-3.5,19.48-5.8,3.95-1.42,8.02-2.53,11.77-4.46,2.1-.03,4.12-.81,6.25-.64.92.07,1.78.18,2.5.8.05.19.14.33.36.35.08.03.14.07.19.14.03.2.11.36.32.42.1.17.19.33.29.5.07.11.13.22.2.33.04.15.08.29.11.44-.08.37-.16.74.28.95.18.53.17,1.05-.02,1.57-.41.2-.35.56-.29.91,0,.08-.03.14-.09.19h-1.61c-.16-.12-.21-.27-.16-.47.6-2.39-1.41-3.63-2.46-5.22-.5-.76-1.78-.2-2.7-.28-.51-.05-.88.23-1.09.67-.66,1.38-.98,2.89-.58,4.32.34,1.21.67,2.66,2.15,3.2-.12.56-.65.64-1.04.89-.73-.1-1.42-.01-2.13.27-3.53,1.4-7.06,2.79-10.61,4.13-9.77,3.67-19.64,6.95-30.09,8.12-.78.09-1.74.25-1.62,1.41.12,1.13.9,1.29,1.88,1.16,4.19-.53,8.31-1.39,12.4-2.4,5.67-1.4,11.22-3.21,16.66-5.3,4.75-1.82,9.66-3.27,14.06-5.94,1.41-.21,2.8-.24,4.12.42,0,0,.08.08.08.07.05.19.13.35.35.39h0c.08.1.17.19.25.29,1.77,2.26,1.51,6.37-1.98,8.02-1.55.73-3.12,1.43-4.69,2.12-.43.19-.74.51-1.05.83-.65-.95-1.48-.64-2.3-.31-4.14,1.72-8.26,3.46-12.5,4.94-7.77,2.71-15.65,4.94-23.89,5.62-.95.08-1.61.41-1.47,1.49.15,1.19,1.03,1.2,1.95,1.1,8.6-.96,16.88-3.21,25.01-6.11,4.47-1.6,8.81-3.51,13.2-5.31,1.37,1.43,1.61,4.04.57,6.2-1.1,2.28-3.03,3.69-5.17,4.83-4.45,2.35-9.23,3.93-13.92,5.71-5.62,2.14-11.24,4.29-17.12,5.65-4.68,1.08-9.44,1.63-14.2,2.18-4.58.53-9.17,1.07-13.79,1.21v.03Z" fill="#fbddc6" stroke-width="0"/>
  <path d="M440.9,452.66c-.93-.08-1.86-.16-2.78-.24-.55-.05-1.09-.08-1.35.56-2.91-.25-5.83-.21-8.62.64-4.25,1.3-8.6,1.79-12.99,1.97-7.75.32-15.5.43-23.24-.25-4.38-.38-8.68-1.32-12.94-2.4-6.06-1.52-12.15-2.95-18.13-4.79-1.69-.52-3.32-1.19-4.87-2.07-3.14-1.79-4.73-4.39-4.37-8.07.03-.31.01-.63.01-.95.63.07,1.29.02,1.88.22,8.15,2.65,16.41,4.82,24.91,6.05,4.58.67,9.18,1.06,13.81.93.9-.02,1.74-.2,1.73-1.25,0-.99-.7-1.37-1.68-1.3-3.36.22-6.71-.02-10.04-.39-9.26-1.04-18.23-3.37-27.13-6.04-1.17-.35-2.34-1.11-3.67-.52-3.18-.29-6.16-1.09-7.97-4-1.92-3.09,0-6.93,3.55-7.28.77.38,1.5.87,2.31,1.12,9.21,2.89,18.59,5.12,28.09,6.77,5.09.89,10.23,1.45,15.41,1.39.92,0,1.7-.2,1.7-1.27s-.73-1.45-1.75-1.4c-1.04.05-2.08.05-3.13.03-6.55-.16-12.98-1.28-19.35-2.69-6.8-1.51-13.6-3.04-20.22-5.24.32-1.62.34-3.3.06-4.87-.21-1.17-.74-2.73-2.19-2.97-2.83-.47-4.56.69-5.06,3.69-.18,1.09.27,1.75,1.31,2.21,1.16.51,2.58.61,3.38,1.81-.18.21-.35.42-.53.64-1.3-.21-2.56-.58-3.74-1.17-2.79-1.39-3.32-2.84-2.76-5.48.47-2.23,2.97-3.62,5.42-3.29,1.35.18,2.69.35,4.05.34.33.3.7.51,1.16.62,8.08,1.85,16.12,3.83,24.3,5.21,6.09,1.03,12.21,1.7,18.39,1.57.76-.02,1.61-.02,1.6-1.17,0-1.1-.62-1.36-1.59-1.33-6.15.2-12.22-.48-18.25-1.59-5.52-1.01-11.04-2.05-16.46-3.56.04-.38-.02-.9-.41-.89-.98.03-1.71-.7-2.7-.71-.93,0-1.86-.3-2.77-.57-.45-.14-.56-.48-.36-1.07.47-1.41.98-2.83.86-4.4-.06-.76-.37-1.08-1.01-1.18-.99-.16-1.98-.21-2.94.17-1.33.53-1.85,1.71-1.82,3.73.01,1.08.78,1.63,1.48,1.62,1.19-.01,1.26.75,1.54,1.47-.25.05-.49.09-.74.14-1.19-.27-2.4-.48-3.48-1.08-1.58-.88-1.99-2.44-1.06-4.03,1.46-2.5,4.23-3.74,7.33-3.34,3.69.47,7.28,1.44,10.94,2.07,4.78.83,9.58,1.49,14.41,1.82,4.79.33,9.59.64,14.4.56,1.95-.03,3.89-.13,5.84-.21.25,0,.6.13.71-.21.13-.38-.21-.57-.46-.74-5-3.37-9.94-6.8-15.76-8.71-2.05-.67-4.01-1.68-5.73-3.07-1.1-.9-1.88-1.93-1.89-3.43-.01-1.73.87-2.63,2.59-2.43,7.16.84,14.2,2.36,21.22,3.99,4.81,1.12,9.51,2.64,14.17,4.28,5.84,2.05,10.82,5.43,15.44,9.45,1.64,1.43,3.38,2.74,5.23,3.89,1.93,1.19,4.02,1.83,6.3,1.89,2.04.05,4.08.17,6.11.25.28,1.49-.16,2.94-.35,4.39-.59,4.29-1.34,8.55-1.98,12.83-.45,2.96-.96,5.92-1.36,8.89-.39,2.89-.81,5.79-1.32,8.67-.34,1.91-.48,3.85-.72,5.77h.03Z" fill="#fbddc6" stroke-width="0"/>
  <path d="M324.27,327.16c.77-.72.13-1.56.02-2.24-1.09-6.6-1.79-13.24-2.18-19.92-.4-6.86.09-13.64.82-20.44.71-6.58,2.08-13.02,3.83-19.38,1.81-6.6,4.34-12.95,6.81-19.31,2.43-6.24,4.8-12.5,6.81-18.89,2.79-8.89,4.83-17.97,7.02-27.02,2.22-9.18,4.4-18.38,7.26-27.39,3.14-9.91,6.99-19.53,12.72-28.28.94-1.43,2.06-2.74,3.1-4.11.51-.67,1.09-.76,1.73-.2.6.53.31,1.01-.08,1.53-5.95,7.78-9.96,16.55-13.23,25.72-3.62,10.16-6.18,20.59-8.74,31.04-1.54,6.27-3.06,12.55-4.68,18.8-1.87,7.19-4.04,14.26-6.67,21.2-2.39,6.3-4.78,12.59-7.08,18.92-1.78,4.88-3.2,9.87-4.4,14.93-1.3,5.46-2.14,11-2.6,16.58-.49,6-.5,12.02-.19,18.05.25,4.85.76,9.64,1.48,14.42.25,1.65.61,3.28.95,4.92.09.45.13.89.05,1.35-.92,0-1.85.12-2.73-.28h-.02Z" fill="#506496" stroke-width="0"/>
  <path d="M372.54,329.58c1.75.01,3.51.03,5.26.04-2.51.44-5.04.24-7.56.25-4.48.03-8.96-.04-13.44-.09-.31,0-.61-.11-.92-.17,3.63,0,7.26-.03,10.89,0,.99,0,1.28-.29,1.06-1.29-.97-4.53-1.97-9.05-2.8-13.6-.47-2.56-.63-5.18-.93-7.78-.34-2.95-.68-5.9-1.02-8.85-.13-1.16-.35-2.34-.32-3.5.14-5.08-.49-10.14-.28-15.21.22-5.41.42-10.83.85-16.23.37-4.62.9-9.23,1.65-13.8.43-2.65.66-5.39,1.39-7.95,1.4-4.85,2-9.85,3.24-14.73,1-3.95,1.9-7.94,2.4-12,.03-.27.12-.53.22-.78.28-.65.48-1.62,1.4-1.28.79.29,1.46.87,1.27,2.09-.31,1.99-1.03,3.94-.71,6-.02.36,0,.73-.08,1.08-.98,4.21-2.08,8.4-2.88,12.65-.57,3.06-1.44,6.06-1.91,9.13-.84,5.47-1.68,10.94-2.32,16.45-.73,6.33-.87,12.69-1.23,19.04-.13,2.34.1,4.7.17,7.04.14,4.74.25,9.47.86,14.19.64,4.96,1.03,9.93,2.06,14.85.43,2.04,1.17,4.1.99,6.26-.03.4-.05.78.48.86.01.27.03.53.04.8-.92.84-.8,1.95-.73,3.01.08,1.06,1.55,1.87.58,3.17-.15.2.21.34.44.34.45.01.9,0,1.35,0h.53Z" fill="#112139" stroke-width="0"/>
  <path d="M471.03,392.54c.52,1.59.36,1.89-1.61,2.7-4.85,2-9.7,3.98-14.55,5.97-2.34.96-4.67,1.92-7,2.88-.83-1.46-.61-2.35.8-3.04.81-.4,1.64-.81,2.5-1.04.89-.24,1.1-.74,1.12-1.57.21-6.34.44-12.68.68-19.02.07-1.86.16-3.71.23-5.57.04-.96.31-1.77,1.45-1.71,1.1.05,1.22.85,1.17,1.76-.44,7.33-.48,14.67-1.04,21.99-.21,2.73-.19,2.72,2.36,1.66,3.97-1.64,7.87-3.45,11.93-4.88.63-.22,1.27-.56,1.95-.12h.01Z" fill="#1f2437" stroke-width="0"/>
  <path d="M350.08,422.18c6.62,2.2,13.42,3.73,20.22,5.24,6.38,1.42,12.8,2.53,19.35,2.69,1.04.03,2.09.02,3.13-.03,1.03-.05,1.74.32,1.75,1.4,0,1.07-.78,1.26-1.7,1.27-5.19.05-10.32-.51-15.41-1.39-9.51-1.66-18.88-3.88-28.09-6.77-.81-.25-1.54-.74-2.31-1.12,0-.26.02-.51.03-.77.18-.21.35-.42.53-.64.85-.19,1.68-.15,2.5.12h0Z" fill="#1f2437" stroke-width="0"/>
  <path d="M295.7,361.75c-3.76,1.93-7.83,3.04-11.77,4.46-6.38,2.3-12.86,4.27-19.48,5.8-3.62.83-7.28,1.43-10.97,1.88-1.03.13-1.65-.23-1.73-1.17-.07-.89.56-1.37,1.45-1.45,9.29-.76,18.11-3.49,26.88-6.42,4.67-1.56,9.28-3.3,13.93-4.94.6-.21,1.23-.31,1.87-.25.13.72.16,1.43-.19,2.1h.01Z" fill="#1f2437" stroke-width="0"/>
  <path d="M359.17,412.85c5.42,1.51,10.93,2.55,16.46,3.56,6.03,1.11,12.1,1.79,18.25,1.59.97-.03,1.58.24,1.59,1.33,0,1.16-.84,1.16-1.6,1.17-6.19.12-12.3-.55-18.39-1.57-8.18-1.38-16.22-3.36-24.3-5.21-.46-.11-.82-.32-1.16-.62.21-.63.31-1.28.29-1.94.25-.05.49-.09.74-.14,2.72.58,5.37,1.44,8.13,1.82h-.01Z" fill="#1f2437" stroke-width="0"/>
  <path d="M351.44,434.75c1.33-.58,2.49.17,3.67.52,8.9,2.67,17.87,5,27.13,6.04,3.33.37,6.68.61,10.04.39.98-.06,1.68.32,1.68,1.3,0,1.06-.84,1.23-1.73,1.25-4.63.12-9.23-.27-13.81-.93-8.49-1.24-16.76-3.4-24.91-6.05-.59-.19-1.25-.15-1.88-.22.22-.79-.5-1.51-.19-2.32v.02Z" fill="#1f2437" stroke-width="0"/>
  <path d="M295.95,385.84c-4.39,1.8-8.73,3.72-13.2,5.31-8.13,2.9-16.41,5.15-25.01,6.11-.91.1-1.79.09-1.95-1.1-.14-1.08.52-1.41,1.47-1.49,8.24-.69,16.12-2.91,23.89-5.62,4.23-1.48,8.36-3.23,12.5-4.94.82-.34,1.65-.65,2.3.31.17.48.06.95,0,1.43h0Z" fill="#1f2437" stroke-width="0"/>
  <path d="M304.2,367.72h1.61c0,.43-.28.59-.65.66-.25-.35-.57-.24-.75.01-.27.39.14.36.35.44-.77,1.04-2.02,1.28-3.08,1.82-.32.16-.74.2-.7.68.04.39.4.43.71.5.53.12,1.02.33,1.3.86-1.32-.66-2.71-.63-4.12-.41.22-.64-.51-.91-.56-1.45.39-.25.92-.32,1.04-.89.35-.01.7-.03,1.05-.04.35,0,.52-.19.6-.51.35-.01.69-.02,1.04-.03.39,0,.79,0,.82-.54h0c.35,0,.52-.2.58-.53.38-.03.63-.22.77-.57h0Z" fill="#fbbda2" stroke-width="0"/>
  <path d="M251.12,360.65c-1.27.48-2.64-.03-3.9.55-.06-.12-.11-.24-.17-.35,1.23-1.12,2.43-2.3,3.72-3.35.53-.43.87-1.21,1.73-1.15-.46,1.43-.92,2.87-1.38,4.3h0Z" fill="#f0b242" stroke-width="0"/>
  <path d="M306.2,365.03c-.44-.21-.37-.58-.28-.95.41.22.47.55.28.95Z" fill="#fbbda2" stroke-width="0"/>
  <path d="M304.77,368.82c-.21-.08-.62-.06-.35-.44.18-.25.49-.36.75-.01-.02.07-.06.13-.11.18-.1.09-.19.18-.29.27h0Z" fill="#fbddc6" stroke-width="0"/>
  <path d="M305.9,367.52c-.06-.35-.12-.71.29-.91.24.41-.01.66-.29.91Z" fill="#fbbda2" stroke-width="0"/>
  <path d="M303.42,373.15c-.22-.04-.3-.2-.35-.39.25,0,.3.2.35.39Z" fill="#fbbda2" stroke-width="0"/>
  <path d="M304.8,362.26c-.21-.02-.31-.16-.36-.35.25-.02.3.17.36.35Z" fill="#fbbda2" stroke-width="0"/>
  <path d="M305.32,362.82c-.21-.06-.29-.22-.32-.42.23.05.3.21.32.42Z" fill="#fbbda2" stroke-width="0"/>
  <path d="M304.77,368.82c.1-.09.19-.18.29-.27-.1.09-.19.18-.29.27Z" fill="#fbbda2" stroke-width="0"/>
  <path d="M303.67,373.44c-.08-.1-.17-.19-.25-.29.08.1.17.19.25.29Z" fill="#fbbda2" stroke-width="0"/>
  <path d="M252.56,356.3c.05-.06.11-.12.16-.18-.02.09-.08.15-.16.18Z" fill="#f0b242" stroke-width="0"/>
  <path d="M305.8,363.65c-.07-.11-.13-.22-.2-.33.07.11.13.22.2.33Z" fill="#fbbda2" stroke-width="0"/>
  <path d="M315.57,203.78c.75.67.15,1.22-.18,1.77-1.96,3.25-4.44,6.1-6.7,9.13-1.15,1.55-1.73,3.4-2.69,5.06-1.25,2.15-2.75,4.09-4.28,6.02-3.34,4.24-6.82,8.38-10.47,12.35-1.56,1.7-3.3,3.34-4.69,5.11-1.6,2.03-3.41,3.89-4.97,5.95-1.22,1.61-2.52,3.17-3.79,4.76-.01-.22-.03-.44-.04-.66.51-4.58,1.07-9.15,2.2-13.66-.12.02-.18,0-.2.03-2.11,2.42-4.2,4.86-6.32,7.27-9.16,10.41-19.81,18.68-33.27,22.82-8.47,2.61-17.03,2.86-25.61.48-.72-.2-.92-.22-.86.67.27,3.75.43,7.51.64,11.27.03.61.07,1.18-.7,1.41-3.64,1.08-7.29,2.12-10.89,3.29-2.14.69-4.35,1.18-6.36,2.24-.81-.23-1.36.7-2.17.49-.82.2-.87-.99-1.64-.92-.15.01-.17-.25-.05-.31,1.31-.69.14-1.21-.12-1.78-.4-.9-.86-1.78-1.2-2.7-1.39-3.74-2.9-7.44-4.56-11.07-1.59-3.47-3.13-6.97-4.68-10.45-1.18-2.65-2.66-5.14-3.73-7.86-.88-2.23-2.26-4.25-3.31-6.41-.7-1.45-1.36-2.97-2.13-4.34-1.15-2.03-2.17-4.14-3.32-6.17-1.05-1.85-1.92-3.8-2.78-5.74-1.24-2.79-2.49-5.58-3.58-8.43-.74-1.93-1.25-3.96-1.77-5.97-.46-1.77-.85-3.57-1.17-5.38-1.12-6.14-1.75-12.31-1.66-18.57.08-5.43.64-10.79,1.31-16.17.66-5.24,1.97-10.27,3.75-15.18,1.12-3.1,2.09-6.29,3.76-9.18.09-.15.17-.33.19-.5.07-.57.04-1.44.76-1.32.67.12.33,1.01.33,1.55,0,4.27-.22,8.55.57,12.79.11.57.24,1.13.37,1.71.72-.11.91-.83,1.48-1.01-.12.8-.32,1.61-.34,2.41-.17,11.97-.68,23.95.95,35.88,1.1,8.06,2.92,15.96,6.2,23.41,4.62,10.52,11.7,19.22,20.66,26.37,5.5,4.39,11.66,7.2,18.82,7.65,6.79.43,13.39-.53,19.91-2.23,13.77-3.59,26.13-9.85,36.71-19.45,4.8-4.35,9.01-9.2,11.75-15.15,1.65-3.57,3.2-7.17,4.96-10.69.36-.72.59-.7,1.16-.31,1.57,1.07,3.19,2.07,4.93,2.84,2.27.99,4.57,1.9,7.02.55,1.43-.79,2.75-1.77,3.85-3,2.98-3.33,5.71-6.83,7.96-10.7v.03Z" fill="#0e1828" stroke-width="0"/>
  <path d="M196.39,289.09c2.01-1.06,4.22-1.55,6.36-2.24,3.61-1.17,7.26-2.21,10.89-3.29.77-.23.73-.8.7-1.41-.21-3.76-.37-7.52-.64-11.27-.06-.89.14-.87.86-.67,8.58,2.38,17.13,2.13,25.61-.48,13.46-4.14,24.11-12.41,33.27-22.82,2.12-2.41,4.21-4.85,6.32-7.27.02-.03.09-.01.2-.03-1.13,4.51-1.69,9.08-2.2,13.66-.19.25-.35.52-.56.74-4.21,4.56-7.13,9.93-9.59,15.57-2.4,5.49-3.69,11.25-3.84,17.24-.21,8.52,2.28,15.89,9.27,21.28,2.5,1.93,5.18,3.57,8.22,4.52-.72.02-1.45.08-2.17.07-4.62-.08-9.17.82-13.76,1.02-2.54.11-5.08.12-7.62.14-4.76.03-9.52.06-14.26-.35-4-.35-7.97-.95-11.91-1.8-7.55-1.63-14.64-4.33-21.06-8.68-5.13-3.47-9.42-7.78-12.88-12.91-.32-.47-.71-.8-1.21-1.02h0Z" fill="#fbddc6" stroke-width="0"/>
  <path d="M238.81,330.27c-15.33-.02-28.82-4.43-40.93-13.02-4.37-3.1-8.37-6.66-11.74-10.87-.25-.32-.51-.64-.73-.98-.32-.51-.15-.99.25-1.34.42-.36.93-.68,1.45-.18.59.56,1.16,1.15,1.69,1.76,6.96,7.93,15.43,13.68,25.2,17.55,13.11,5.19,26.56,5.72,40.24,2.81,9.02-1.92,17.5-5.33,25.81-9.21.21-.1.41-.2.6-.31.83-.46,1.25.1,1.67.66.47.64,0,1-.42,1.36-.81.69-1.84.97-2.77,1.42-9.95,4.78-20.3,8.28-31.28,9.76-3.15.43-6.33.54-9.06.61l.02-.02Z" fill="#1f2437" stroke-width="0"/>
  <path d="M109.41,417.23c-.88.1-1.07-.41-1.32-.83-.28-.48-.1-.87.28-1.2.66-.57,1.46-.9,2.24-1.27,13.36-6.31,26.57-12.94,39.74-19.63,13.22-6.72,26.37-13.56,39.47-20.49,1.72-.91,3.46-1.79,5.17-2.72.88-.48,1.4-.1,1.73.65.33.73.11,1.28-.65,1.67-12.91,6.71-25.79,13.49-38.73,20.15-9.51,4.9-19.09,9.67-28.66,14.44-6,2.99-12.06,5.88-18.09,8.81-.44.22-.93.34-1.18.43h0Z" fill="#1f2437" stroke-width="0"/>
  <path d="M281.27,312.63c-3.05-.95-5.72-2.59-8.22-4.52-6.99-5.39-9.48-12.76-9.27-21.28.15-5.99,1.44-11.75,3.84-17.24,2.46-5.64,5.38-11,9.59-15.57.21-.23.37-.49.56-.74.01.22.03.44.04.66-.1.29-.18.6-.32.88-.31.65-.84,1.11.53,1.37,1.25.24.39,1.43.22,2.13-.19.76-.69,1.45-.8,2.26-.08-.38-.17-.75-.29-1.3-.56.67-1.02,1.23-1.49,1.79-.43-1.78-.34-2.02,1.41-2.67.67-.25.74-.53.4-1.06-.19-.3-.29-.69-.76-.68-.63.01-1.06.44-1.23.93-.18.53-.41.97-.82,1.33-.52.45-1.01.87-.21,1.53.25.2.09.37-.2.58-.76.53-1.56,1.09-2.11,1.82-.24.31-1.45.9-.2,1.59.27.15.15.38-.05.72-.36.62-1.43.48-1.38,1.02.11,1.03-.31,1.91-.58,2.99.5-.19.84-.11,1.18.02-.8,2.24-1.75,4.41-2.43,6.7-.52,1.75-.65,3.6-1.44,5.27-.72.02-.68-.78-1.18-1.21.12,1.26-.18,2.4.21,3.54.79-.44-.18-1.57.88-1.77.07.61.15,1.2.09,1.84-.32,3.2-.36,6.41.21,9.59.41,2.28.75,4.61,2.19,6.57,1.47,3.96,4.73,6.14,8.03,8.46.2-.6-.22-.76-.24-1.07l.09-.08c.31-.14.61-.29.92-.43.46,1.2.47,2.38.08,3.57-.14.41.27.38.49.47,1,.37,2,.72,2.99,1.11.65.25,1.29.56.97,1.47-.62-.04-.89-1.13-1.71-.57v-.02ZM267.01,279.97c.76-1.59.6-3.21.96-4.73.11-.46-.22-.63-.65-.63s-.77.23-.65.64c.42,1.43.33,2.85.04,4.28-.02.08.14.2.31.43h-.01ZM268.97,272.82c.06.01.12.03.18.04.21-.52.43-1.03.63-1.55.1-.25.22-.57-.15-.66-.32-.07-.47.24-.51.51-.07.55-.1,1.1-.15,1.66h0ZM268.8,274.01c-.05-.16-.04-.4-.3-.34-.2.05-.23.25-.2.43.02.17.04.4.29.34.2-.05.21-.25.21-.44h0ZM269.83,270.26c.09-.11.22-.2.21-.28,0-.08-.15-.21-.24-.22-.18-.02-.36.06-.3.28.02.08.19.13.32.22h0ZM268.54,271.03c.1-.15.22-.24.22-.33,0-.11-.07-.29-.15-.31-.22-.06-.3.11-.29.3,0,.1.11.19.22.34ZM269.24,267.99c-.05.07-.12.14-.13.21,0,.07.06.15.1.22.04-.07.12-.13.12-.2s-.06-.15-.1-.22h.01Z" fill="#1f2437" stroke-width="0"/>
  <path d="M151.31,454.84c-1.94,1.28-3.89,2.55-5.83,3.83.07-1.19,1.22-1.34,1.93-1.83,1.2-.83,2.21-2.1,3.9-2Z" fill="#fbbda2" stroke-width="0"/>
  <path d="M315.57,203.78c-2.25,3.87-4.99,7.37-7.96,10.7-1.1,1.23-2.41,2.2-3.85,3-2.45,1.36-4.75.45-7.02-.55-1.74-.76-3.36-1.77-4.93-2.84-.57-.39-.81-.41-1.16.31-1.76,3.52-3.31,7.12-4.96,10.69-2.75,5.94-6.95,10.79-11.75,15.15-10.59,9.6-22.95,15.86-36.71,19.45-6.53,1.7-13.12,2.66-19.91,2.23-7.17-.46-13.32-3.26-18.82-7.65-8.96-7.15-16.04-15.85-20.66-26.37-3.27-7.45-5.1-15.35-6.2-23.41-1.63-11.92-1.11-23.91-.95-35.88.01-.81.22-1.61.34-2.41.04-.23.07-.47.11-.7h0c.23-.13.33-.31.25-.57.03-.09.06-.18.08-.27.57-1.81,1.09-3.63,1.72-5.42,2.03-5.74,5.91-9.81,11.43-12.26,6.32-2.8,12.83-5.15,19.06-8.17,15.39-7.46,29.05-17.22,40.34-30.15,1.28-1.47,2.49-2.99,3.73-4.49.19-.23.3-.64.69-.52.38.12.27.53.31.82,1.65,11.85,5.97,22.7,12.31,32.78,3.98,6.32,8.84,11.95,14.16,17.17,1.91,1.87,3.87,3.7,5.76,5.59,1.61,1.61,2.32,3.77,3.27,5.75,2.39,4.97,4.63,10.01,6.22,15.32.56,1.88,1.28,2.03,3.12.85,1.32-.63,2.44-1.54,3.53-2.48,3.8-3.31,8.13-4.5,13.07-3.42.09.03.17.07.26.1,2.38,1.02,4.53,2.35,6.23,4.34h0c.43.65.86,1.29,1.29,1.94,3.03,6.04,1.5,11.9-.72,17.72-.48,1.26-1.12,2.46-1.68,3.68v-.03ZM249.19,213.92c2.28-.04,4.52-.21,6.54-1.41,5.04-3,7.19-6.65,6.03-12.34-.72-3.54-4.81-7.73-9.82-8.38-2.95-.38-5.76-.3-8.4,1.17-2.58,1.43-4.53,3.3-5.64,6.24-1.21,3.22-.95,6.25.75,8.91,2.38,3.71,5.99,5.75,10.53,5.82h.01ZM195.85,195.76c.13-6.76-5.06-10.87-10.91-10.94-6.17-.08-10.22,4.35-10.25,10.08-.03,6.22,4.13,10.35,10.5,10.51,6.02.14,10.42-4.57,10.66-9.65ZM244.74,153.4c-1.93-.03-3.83.03-5.44,1.29-1.26.99-1.11,2.12.37,2.78.33.15.68.23,1.03.32,5.19,1.24,10.4,2.4,15.44,4.24,1.39.51,2.8,1.04,4.3,1.2.68.07,1.17-.19,1.54-.65.38-.47.01-.94-.22-1.38-.45-.86-1.12-1.54-1.84-2.16-4.36-3.79-9.53-5.37-15.19-5.64h.01ZM193.89,154.18v.14c2.49,0,4.99-.02,7.48,0,1.23,0,2.45.06,3.65-.26,1.19-.31,1.57-1.17,1.03-2.28-.55-1.13-1.53-1.8-2.65-2.21-4.95-1.84-9.95-1.66-14.94-.19-2,.59-3.93,1.39-5.38,3-.86.95-.63,1.78.63,2.04.66.14,1.36.13,2.03.1,2.72-.1,5.43-.23,8.15-.36v.02ZM215.98,181.36v-2.45c0-.91-.05-1.89-1.22-1.89-1.09,0-1.28.84-1.28,1.83.02,4.9-.85,9.64-2.72,14.18-1.09,2.64-2.79,4.96-4.09,7.49-.82,1.6-1.43,3.32-.79,5.09.96,2.63,2.93,4.39,5.44,5.58.86.41,1.33.08,1.73-.68.45-.83-.15-1.15-.66-1.51-.37-.27-.78-.47-1.14-.74-3.22-2.36-4.03-4.16-1.79-7.59,3.82-5.87,6.26-12.21,6.5-19.3h.02ZM215.91,231.86c6.98-.03,13.06-2.23,16.43-5.47.55-.53,1.22-1.06.47-1.94-.7-.82-1.35-.67-2.07,0-2.04,1.87-4.44,3.13-7.08,3.89-6.56,1.88-12.73,1.41-18.1-3.29-1.13-.99-2.06-2.17-2.87-3.43-.47-.73-1.04-.8-1.73-.39-.7.41-.7,1.02-.38,1.65.24.48.56.93.88,1.37,3.92,5.3,9.38,7.43,14.45,7.63v-.02ZM307.96,185.57c-2.72.09-5.45,1.38-7.77,3.55-1.01.94-.77,1.87.55,2.52,3.32,1.64,4.1,3.01,3.62,6.56-.11.78.16,1.25.84,1.48s1.24.05,1.55-.67c.16-.37.4-.68.44-1.12.33-3.11-.64-5.62-3.39-7.28-.81-.49-.67-.77.02-1.22,1.41-.92,2.97-1.32,4.62-1.37,1.94-.07,3.38,1.06,3.85,2.95.13.53.23,1.06.32,1.6.13.74.58,1.13,1.3,1.11.76-.03,1.07-.53,1.1-1.27.16-3.71-2.8-6.81-7.06-6.82v-.02ZM242.98,180.88c.02,2.76,1.91,4.83,4.42,4.84,2.6,0,4.57-2.08,4.55-4.83-.01-2.75-2.01-4.99-4.48-5.01-2.38-.02-4.51,2.34-4.49,5.01h0ZM196.13,174c0-2.5-1.32-4.48-3.12-4.86-1.64-.34-3.04.02-4.12,1.37-1.37,1.72-1.54,3.64-.77,5.61.6,1.51,1.71,2.58,3.42,2.73,1.7.15,2.97-.69,3.84-2.09.55-.89.87-1.88.75-2.78v.02Z" fill="#fbdec7" stroke-width="0"/>
  <path d="M169.49,150.15c-.5-.05-.96-.11-1.14-.63-.18-.54,0-1,.45-1.31,1.38-.95,2.76-1.9,4.17-2.8,5.06-3.19,10.13-6.36,15.2-9.53,11.45-7.17,23.11-14,34.41-21.41,8.07-5.29,16.26-10.43,23.49-16.89.41-.37.81-.92,1.53-.61.97.42,1.06,1.29.09,2.16-2.07,1.84-4.14,3.67-6.37,5.31-11.54,8.5-23.72,16.03-35.92,23.53-11.5,7.07-23.03,14.09-34.38,21.39-.48.31-.94.71-1.53.78h0Z" fill="#f1fafa" stroke-width="0"/>
  <path d="M277.3,150.64c.09.12.17.24.26.36.08.09.16.19.24.28.12.17.23.34.35.51-.18.1-.37.19-.55.29-3.94-3.45-7.26-7.44-10.3-11.69-6.11-8.55-10.58-17.87-13.23-28.05-.11-.44-.18-.89-.27-1.33.19-.29.49-.3.79-.33,5.44,14.15,13.33,26.91,22.21,39.11.19.25.33.54.5.8l.02.04h-.02Z" fill="#fbddc6" stroke-width="0"/>
  <path d="M310.2,176c-4.94-1.08-9.27.11-13.07,3.42-1.08.94-2.21,1.86-3.53,2.48-.74-.87.44-1.16.62-1.22,1.99-.75,3.28-2.44,4.99-3.55,1.48-.96,3.11-1.94,4.71-2,1.92-.06,3.92-.31,5.86.12.42.1.39.43.41.75h.01Z" fill="#112139" stroke-width="0"/>
  <path d="M254.57,110.69c-.3.02-.6.04-.79.33-.57-1.11-.66-2.34-.91-3.53.13-.19.27-.38.4-.57l1.29,3.78h.01Z" fill="#a7dce0" stroke-width="0"/>
  <path d="M253.28,106.91c-.13.19-.27.38-.4.57-.61-1.3-.52-2.7-.61-4.09.36,1.17,1.05,2.24,1.01,3.51h0Z" fill="#506496" stroke-width="0"/>
  <path d="M277.58,152.08c.18-.1.37-.19.55-.29.56.68,1.11,1.36,1.66,2.04l-.18.18c-.68-.64-1.36-1.29-2.04-1.93h.01Z" fill="#a7dce0" stroke-width="0"/>
  <path d="M171.13,165.48c-.11-.04-.23-.07-.34-.11.03-.04.05-.08.08-.13.09.08.18.15.27.23h0Z" fill="#0e1828" stroke-width="0"/>
  <polygon points="277.3 150.64 277.27 150.61 277.34 150.61 277.3 150.64" fill="#a7dce0" stroke-width="0"/>
  <path d="M277.79,151.28c-.08-.09-.16-.19-.24-.28.08.09.16.19.24.28Z" fill="#a7dce0" stroke-width="0"/>
  <path d="M147.06,206.52c-.07-.1-.14-.2-.2-.31.14.05.26.12.2.31Z" fill="#fefefe" stroke-width="0"/>
  <path d="M171.47,164.64c-.03.09-.06.18-.08.27-.23-.17-.11-.23.08-.27Z" fill="#0e1828" stroke-width="0"/>
  <path d="M478.44,85.66h34.57c.41,0,.82,0,1.22.01,1.19.06,1.84.45,1.83,1.89-.06,11.84-.05,23.68,0,35.52,0,1.25-.47,1.52-1.61,1.52-9.21-.03-18.42-.1-27.63.05-3.3.06-6.59-.19-9.88-.06-.53.02-.98-.06-1.31.63-1.77,3.74-4.21,7.04-6.97,10.11-3.15,3.5-6.29,6.99-9.41,10.51-.72.81-1.51,1.63-1,2.88.5,1.23,1.65,1.51,2.75,1.69,1.33.21,2.7.25,4.05.31,6.25.3,12.5.39,18.76.24,5.19-.13,10.39-.32,15.41-1.87,2.65-.82,5.21-1.8,7.51-3.39,1.02-.71,1.21-1.89.51-2.96-1.96-2.97-4.66-4.98-7.96-6.29-1.53-.61-3.17-1.07-4.46-2.21-.95-.84-.98-1.39.06-2.16,1.51-1.11,3.23-1.82,4.96-2.49,4.73-1.82,9.58-3.22,14.57-4.1.66-.12,1.76-.46,1.94.23s-.95.75-1.55.96c-5.17,1.77-10.44,3.24-15.52,5.28-.69.28-1.83.43-1.8,1.13.03.6,1.18.81,1.89,1.06,3.3,1.16,6.25,2.88,8.49,5.6,1.8,2.18,2.66,4.16,1.25,6.26-1.07,1.6-2.66,2.57-4.36,3.34-4.49,2.02-9.27,3.02-14.13,3.48-3.82.36-7.68.46-11.53.37-5.16-.13-10.33-.12-15.49-.33-1.91-.08-3.88-.14-5.65-1.19-1.89-1.13-2.56-3.3-1.56-5.25,1.61-3.12,4.27-5.35,6.56-7.89,3.24-3.59,6.53-7.13,9.11-11.25.19-.31.41-.6.57-.92.6-1.2.25-1.89-1.1-1.7-2.9.41-5.78-.06-8.66,0-6.55.11-13.11.23-19.66.21-1.76,0-2.02-.23-2.04-2.04-.03-3.18-.01-6.35-.01-9.53v-25.59c0-1.89.13-2.02,2.01-2.02h35.25l.02-.04ZM478.69,88.1c-11.11,0-22.22.02-33.34-.03-1.22,0-1.51.35-1.5,1.53.05,10.34.05,20.68,0,31.02,0,1.17.26,1.55,1.5,1.55,22.13-.04,44.27-.03,66.4-.04,1.83,0,1.84,0,1.84-1.78,0-10.21-.02-20.41.03-30.62,0-1.35-.46-1.66-1.73-1.66-11.07.04-22.13.02-33.2.03h0Z" fill="#f1fafa" stroke-width="0"/>
  <path d="M424.32,133.14c-.37-.16-.6-.43-.71-.81.78-.21.62.41.71.81Z" fill="#c9e8ea" stroke-width="0"/>
  <path d="M448.83,222.8c1.46,2.01,2.92,4.02,4.38,6.04,4.71,6.49,9.69,12.8,13.98,19.58,7.13,11.28,10.62,23.66,10.67,36.99.02,5.54-.83,10.94-3.55,15.87-3,5.44-7.43,9.29-13.32,11.4-.68.24-1.35.54-2.03.78-.3.11-.66.19-.59-.36,7.47-4.61,12.05-11.23,13.94-19.8,1.41-6.4,1.16-12.76.15-19.17-1.61-10.26-5.72-19.54-10.88-28.44-4.2-7.24-8.77-14.26-12.66-21.69-.21-.39-.7-.6-.68-1.12.2-.02.39-.05.59-.07h0Z" fill="#c9e8ea" stroke-width="0"/>
  <path d="M441.71,318.72c-.2-2.9-.49-5.81-.06-8.72.36.02.6.17.59.57-.06,1.59.03,3.19-.23,4.78-.07.44-.17,1,.25,1.27,1.26.83.74,1.34-.25,1.82-.12.06-.2.18-.3.27h0Z" fill="#1a2d4d" stroke-width="0"/>
  <path d="M448.83,222.8c-.2.02-.39.05-.59.07-.81-.86-1.09-2-1.65-2.99.07-.33.19-.76.54-.25.68.99,1.56,1.88,1.7,3.17h0Z" fill="#506496" stroke-width="0"/>
  <path d="M401.68,151.54c2.44-1.35,3.11-1.06,3.54,1.72.35,2.25,1.09,4.41,1.44,6.67.31,1.97.29,3.96.39,5.93.23,4.38.26,8.79-.24,13.16-.43,3.76-.42,7.58-1.13,11.28-.59,3.09-1.05,6.2-1.66,9.29-.67,3.39-1.22,6.82-1.88,10.2-.59,3.03-1.34,6.06-1.86,9.11-.72,4.23-1.65,8.43-2.51,12.63-.8,3.94-1.21,7.91-1.71,11.86-.44,3.52-.93,7.06-.92,10.63.01,4.35-.12,8.71.04,13.06.15,4.04.59,8.06,1.15,12.09.52,3.7,1.08,7.39,1.83,11.05.53,2.58,1.25,5.13,1.98,7.68.57,1.99,1,4.04,1.55,6.04.46,1.68,1.12,3.3,1.63,4.96.59,1.92,1.06,3.88,1.68,5.79.54,1.66,1.29,3.25,1.62,4.97.33,1.73.97,3.37,1.45,5.06.22.78.03,1.12-.8,1.09-.86-.03-1.72-.01-2.59-.01,0-.36-.02-.72-.03-1.08.37-.48.49-.9-.27-1.09-.01-.35-.02-.7-.03-1.06.04-.36-.13-.55-.48-.59.01-.64-.13-1.25-.33-1.86-.89-2.6-1.53-5.28-2.37-7.9-1.52-4.77-2.85-9.6-4.15-14.44-.75-2.78-1.75-5.51-1.92-8.43-.22-.66.67-1.77-.77-1.94.15-1.06-.54-1.96-.55-2.99.09-.2.23-.4.25-.6.18-2.09-.1-4.16-.37-6.21-.17-1.27.01-2.53-.24-3.78-.29-1.45-.75-2.86-.75-4.36v-9.25c0-1.22-.56-2.44-.23-3.63.51-1.87.35-3.8.37-5.65.03-2.56.79-4.98.81-7.54.02-2.09-.03-4.23.35-6.34.12-.66.73-1.45.07-2.18,0-.27.01-.54.02-.81.71-.22.63-.63.26-1.1,0-.27.01-.54.02-.81.87-.53.71-1.41.77-2.22-.22-3.72,1.22-7.18,1.85-10.76.7-3.98,1.74-7.91,2.63-11.86,1.25-5.54,2.42-11.09,3.32-16.69.68-4.22,1.41-8.47,1.66-12.73.24-4.18.5-8.37.18-12.6-.36-4.77-1.19-9.36-3.09-13.74l.02-.02Z" fill="#112139" stroke-width="0"/>
  <path d="M404.69,324.7c0,.36.02.72.03,1.08-.8.66-1.06-.06-1.25-.57-1.29-3.42-2.63-6.83-3.79-10.3-1.5-4.48-2.89-9-4.25-13.53-1.93-6.43-3.4-12.98-4.55-19.59-.67-3.85-1.02-7.76-1.24-11.69-.35-6.07-.23-12.14-.14-18.2.06-3.72.68-7.44,1.16-11.14.48-3.75,1.07-7.48,1.75-11.2.99-5.4,2.15-10.77,3.38-16.12,1.36-5.88,2.7-11.77,3.89-17.68,1.01-5.03,1.7-10.11,2.35-15.2.75-5.88.45-11.76.41-17.63-.02-2.93-1.16-5.73-2.17-8.48-1.81-4.96-4.63-9.35-7.85-13.49-.66-.85-1.45-1.61-2.22-2.38-.66-.66-.61-1.23.04-1.86.72-.69,1.31-.44,1.84.21,3.48,4.16,6.61,8.54,8.83,13.53.18.4.51.74.77,1.1,1.9,4.39,2.73,8.97,3.09,13.74.32,4.23.06,8.42-.18,12.6-.25,4.26-.98,8.5-1.66,12.73-.91,5.6-2.07,11.15-3.32,16.69-.89,3.95-1.93,7.88-2.63,11.86-.63,3.58-2.07,7.04-1.85,10.76-.89.52-.56,1.46-.77,2.22,0,.27-.01.54-.02.81-.41.29-.25.71-.26,1.1,0,.27-.01.54-.02.81-.09.2-.25.38-.27.59-.31,2.63-1.04,5.19-1.19,7.86-.2,3.5-.87,6.97-.95,10.47-.18,8.16-.27,16.34,1.05,24.45.34,2.07.73,4.13,1.09,6.19.01,1.03.69,1.93.55,2.99.33.62-.09,1.54.78,1.94.17,2.92,1.17,5.65,1.92,8.43,1.3,4.84,2.63,9.67,4.15,14.44.84,2.62,1.48,5.3,2.37,7.9.21.61.34,1.22.33,1.86-.03.36.15.54.48.59.01.35.02.7.03,1.06.03.38-.13.81.27,1.09l.02-.04Z" fill="#31446e" stroke-width="0"/>
  <path d="M372.54,329.58h-.52c-.03-1.71-.67-3.29-1-4.94-.11-.55-.11-1.18-.64-1.57-.01-.27-.03-.53-.04-.8.05-.41.05-.78-.48-.86.18-2.16-.56-4.22-.99-6.26-1.03-4.91-1.42-9.89-2.06-14.85-.61-4.72-.72-9.45-.86-14.19-.07-2.35-.3-4.7-.17-7.04.36-6.35.5-12.7,1.23-19.04.64-5.51,1.48-10.98,2.32-16.45.47-3.07,1.34-6.07,1.91-9.13.8-4.26,1.9-8.44,2.88-12.65.08-.35.06-.72.08-1.08.23-.05.42-.14.51-.38.25-.67.81-.46,1.27-.41.58.07.68.55.63,1.03-.08.76-.14,1.53-.35,2.27-1.37,4.95-2.56,9.95-3.59,14.98-1.07,5.24-1.9,10.53-2.61,15.84-.83,6.21-1.31,12.45-1.68,18.7-.28,4.76-.31,9.51-.13,14.25.2,5.39.54,10.79,1.23,16.16.59,4.55,1.23,9.1,2.07,13.61.68,3.66,1.48,7.33,2.67,10.88.36,1.06.19,1.57-1.03,1.44-.36-.04-.61.12-.67.51l.02-.02Z" fill="#31446e" stroke-width="0"/>
  <path d="M376.66,132.13c-.02.66-.54,1-1.13,1.29-4.17,2.12-8.03,4.72-11.59,7.75-4.16,3.54-7.87,7.5-10.96,12-5.1,7.43-8.73,15.57-11.55,24.12-1.71,5.19-3.09,10.47-4.67,15.7-.4,1.34-.63,2.73-.96,4.09-.2.81-.56,1.55-1.57,1.23-.94-.3-.91-.99-.66-1.87,1.25-4.48,2.31-9.02,3.66-13.47,1.34-4.41,2.77-8.79,4.46-13.09,1.84-4.68,4.01-9.19,6.57-13.51,3.41-5.75,7.54-10.92,12.56-15.38,4.28-3.81,8.93-7.05,13.97-9.74.99-.53,1.83-.18,1.86.88h.01Z" fill="#506496" stroke-width="0"/>
  <path d="M275.66,261.06c.46-.56.93-1.12,1.49-1.79.12.55.21.93.29,1.3.02.09.04.18.06.27-.42,1.29,0,2.64-.25,3.94-2.35,5.13-4,10.46-4.97,16.02-.9,5.14-1.09,10.27.02,15.39.06.26.18.5.27.75.09.61.18,1.23.27,1.84-.96.67-2,1.04-3.19.92-1.44-1.95-1.78-4.28-2.19-6.57-.57-3.18-.53-6.39-.21-9.59.06-.63-.02-1.23-.09-1.84.03-.19.06-.37.09-.56.79-1.67.92-3.52,1.44-5.27.67-2.29,1.63-4.46,2.43-6.7,1.39-2.78,2.88-5.5,4.54-8.12h0Z" fill="#f0b242" stroke-width="0"/>
  <path d="M323.58,198.07c.12,1.94-1.06,3.45-1.83,5.05-2.34,4.9-5.09,9.58-8.15,14.07-5.57,8.15-11.56,15.97-18.13,23.34-4.79,5.37-9.64,10.69-14.2,16.26-.7.86-1.06,1.93-1.81,2.75.45-2.82,1.55-5.3,3.35-7.5,4.15-5.09,8.65-9.87,12.9-14.86,2.96-3.47,5.8-7.06,8.55-10.71,3.43-4.55,6.79-9.15,9.74-14.04,2.69-4.45,5.28-8.95,7.26-13.78.24-.58.6-1.11.91-1.66.69.06.74.97,1.4,1.07h.01Z" fill="#506496" stroke-width="0"/>
  <path d="M323.58,198.07c-.66-.11-.71-1.01-1.4-1.07.48-1.75,1.4-3.28,2.4-4.78.2-.31.37-.71.79-.59.54.16.42.69.29,1.03-.66,1.81-1.38,3.61-2.08,5.41h0Z" fill="#31446e" stroke-width="0"/>
  <path d="M272.84,298.79c-.09-.61-.18-1.23-.27-1.84,1.19,1.23,1.75,2.8,2.23,4.37.49,1.58,1.49,2.84,2.37,4.17.34.52.35.99.36,1.52l-.09.08c-1.22-1.23-2.1-2.68-2.82-4.24-.61-1.35-1.19-2.71-1.78-4.06Z" fill="#1f2437" stroke-width="0"/>
  <path d="M277.25,264.79c.26-1.3-.17-2.65.25-3.94.03.43.06.85.1,1.48.46-.43.83-.75.57-1.21-.64-1.11.42-.47.65-.67.11.1.23.2.34.3,0,1.66-.69,2.98-1.92,4.05h.01Z" fill="#1f2437" stroke-width="0"/>
  <path d="M317.97,182.37c-.43-.65-.86-1.29-1.29-1.94.91.33,1.83.65,1.29,1.94Z" fill="#112139" stroke-width="0"/>
  <path d="M279.17,260.73c-.11-.1-.23-.2-.34-.3.12,0,.23.01.35.02h-.01v.28Z" fill="#506496" stroke-width="0"/>
  <path d="M279.17,260.46s.06-.09.09-.13c0,.02,0,.06-.01.07-.02.02-.06.03-.09.05h.01Z" fill="#506496" stroke-width="0"/>
  <path d="M298.32,370.82c.05.53.78.81.56,1.45-4.4,2.66-9.31,4.12-14.06,5.94-5.45,2.09-10.99,3.9-16.66,5.3-4.09,1.01-8.21,1.87-12.4,2.4-.98.13-1.77-.04-1.88-1.16-.12-1.15.84-1.32,1.62-1.41,10.45-1.17,20.32-4.45,30.09-8.12,3.55-1.33,7.08-2.73,10.61-4.13.7-.28,1.39-.36,2.13-.27h0Z" fill="#1f2437" stroke-width="0"/>
  <path d="M302.04,369.36c-.35.01-.69.02-1.04.03-.3.04-.48.24-.6.51-.35.01-.7.03-1.05.04-1.48-.55-1.8-1.99-2.15-3.2-.4-1.43-.08-2.94.58-4.32.21-.44.58-.71,1.09-.67.92.08,2.21-.48,2.7.28,1.05,1.6,3.06,2.83,2.46,5.22-.05.2,0,.35.16.47-.14.35-.39.54-.77.57-.38-.02-.57.15-.58.53h0c-.4,0-.79-.02-.82.54h.02Z" fill="#fbdec7" stroke-width="0"/>
  <path d="M350.08,422.18c-.82-.27-1.66-.31-2.5-.12-.8-1.2-2.21-1.3-3.38-1.81-1.04-.46-1.5-1.12-1.31-2.21.5-3,2.23-4.16,5.06-3.69,1.45.24,1.99,1.8,2.19,2.97.28,1.57.26,3.25-.06,4.87h0Z" fill="#fbdec7" stroke-width="0"/>
  <path d="M359.17,412.85c-2.76-.38-5.41-1.25-8.13-1.82-.29-.72-.36-1.48-1.54-1.47-.69,0-1.46-.54-1.48-1.62-.02-2.02.49-3.21,1.82-3.73.96-.38,1.96-.33,2.94-.17.63.1.95.43,1.01,1.18.12,1.57-.39,2.98-.86,4.4-.2.59-.09.93.36,1.07.9.27,1.84.56,2.77.57.99,0,1.71.74,2.7.71.39-.01.45.5.41.89h0Z" fill="#fbdec7" stroke-width="0"/>
  <path d="M370.38,323.07c.52.4.52,1.02.64,1.57.34,1.65.98,3.23,1,4.94-.45,0-.9.02-1.35,0-.22,0-.59-.14-.44-.34.97-1.3-.5-2.11-.58-3.17-.08-1.06-.2-2.17.73-3.01h0Z" fill="#1a2d4e" stroke-width="0"/>
  <path d="M369.86,321.41c.53.08.53.45.48.86-.54-.07-.52-.46-.48-.86Z" fill="#1a2d4e" stroke-width="0"/>
  <path d="M302.04,369.36c.03-.55.42-.55.82-.54-.03.55-.43.54-.82.54Z" fill="#fbddc6" stroke-width="0"/>
  <path d="M302.86,368.82c.01-.38.2-.55.58-.53-.06.32-.23.52-.58.53Z" fill="#fbddc6" stroke-width="0"/>
  <path d="M300.41,369.89c.12-.27.29-.46.6-.51-.07.32-.25.51-.6.51Z" fill="#fbddc6" stroke-width="0"/>
  <path d="M272.84,298.79c.59,1.35,1.17,2.72,1.78,4.06.71,1.56,1.6,3.01,2.82,4.24.02.31.44.48.24,1.07-3.3-2.31-6.56-4.5-8.03-8.46,1.18.12,2.23-.25,3.19-.92h0Z" fill="#c9e8ea" stroke-width="0"/>
  <path d="M275.66,261.06c-1.66,2.63-3.15,5.35-4.54,8.12-.34-.13-.68-.21-1.18-.02.27-1.09.69-1.96.58-2.99-.06-.54,1.02-.4,1.38-1.02.2-.34.32-.57.05-.72-1.25-.7-.04-1.28.2-1.59.55-.72,1.35-1.29,2.11-1.82.3-.21.45-.38.2-.58-.8-.66-.31-1.08.21-1.53.41-.36.63-.8.82-1.33.17-.48.6-.91,1.23-.93.46,0,.57.38.76.68.34.54.27.82-.4,1.06-1.76.65-1.84.89-1.41,2.67h-.01Z" fill="#1a2d4e" stroke-width="0"/>
  <path d="M267.01,279.97c-.17-.23-.33-.35-.31-.43.29-1.43.38-2.85-.04-4.28-.12-.42.21-.64.65-.64s.76.18.65.63c-.36,1.52-.19,3.13-.96,4.73h.01Z" fill="#1a2d4e" stroke-width="0"/>
  <path d="M267.25,281.16c-.03.19-.06.37-.09.56-1.06.2-.09,1.33-.88,1.77-.39-1.14-.08-2.28-.21-3.54.5.43.46,1.23,1.18,1.21h0Z" fill="#1a2d4e" stroke-width="0"/>
  <path d="M268.97,272.82c.05-.55.08-1.11.15-1.66.04-.27.18-.58.51-.51.38.08.25.41.15.66-.2.52-.42,1.04-.63,1.55-.06-.01-.12-.03-.18-.04h0Z" fill="#1a2d4e" stroke-width="0"/>
  <path d="M268.8,274.01c0,.18,0,.39-.21.43-.26.06-.27-.17-.29-.34-.03-.18,0-.39.2-.43.26-.06.26.18.3.34Z" fill="#1a2d4e" stroke-width="0"/>
  <path d="M269.83,270.26c-.14-.09-.3-.13-.32-.22-.06-.22.12-.31.3-.28.09.01.23.14.24.22,0,.08-.13.17-.21.28h0Z" fill="#1a2d4e" stroke-width="0"/>
  <path d="M268.54,271.03c-.1-.15-.21-.24-.22-.34-.02-.18.07-.36.29-.3.08.02.15.2.15.31,0,.09-.12.18-.22.33Z" fill="#1a2d4e" stroke-width="0"/>
  <path d="M269.24,267.99c.04.08.1.15.1.22s-.08.14-.12.2c-.04-.07-.1-.15-.1-.22s.08-.13.13-.21h-.01Z" fill="#1a2d4e" stroke-width="0"/>
  <path d="M249.19,213.92c-4.54-.07-8.15-2.11-10.53-5.82-1.71-2.66-1.96-5.69-.75-8.91,1.1-2.94,3.06-4.8,5.64-6.24,2.64-1.47,5.45-1.55,8.4-1.17,5.01.65,9.1,4.84,9.82,8.38,1.16,5.69-.99,9.33-6.03,12.34-2.02,1.2-4.25,1.37-6.54,1.41h-.01Z" fill="#fbbda2" stroke-width="0"/>
  <path d="M195.85,195.76c-.24,5.08-4.64,9.79-10.66,9.65-6.37-.15-10.54-4.29-10.5-10.51.03-5.73,4.08-10.16,10.25-10.08,5.85.07,11.04,4.19,10.91,10.94Z" fill="#fbbda2" stroke-width="0"/>
  <path d="M244.74,153.4c5.65.27,10.83,1.85,15.19,5.64.72.63,1.38,1.31,1.84,2.16.23.44.59.91.22,1.38-.37.46-.86.72-1.54.65-1.51-.16-2.91-.69-4.3-1.2-5.03-1.84-10.25-2.99-15.44-4.24-.35-.08-.71-.17-1.03-.32-1.48-.66-1.64-1.79-.37-2.78,1.61-1.27,3.51-1.32,5.44-1.29h-.01Z" fill="#1a2d4d" stroke-width="0"/>
  <path d="M193.89,154.18c-2.72.12-5.43.25-8.15.36-.68.03-1.38.04-2.03-.1-1.26-.27-1.49-1.09-.63-2.04,1.45-1.61,3.37-2.41,5.38-3,4.99-1.47,9.99-1.65,14.94.19,1.11.42,2.1,1.08,2.65,2.21.54,1.11.16,1.97-1.03,2.28-1.2.31-2.42.27-3.65.26-2.49-.03-4.98,0-7.48,0v-.16Z" fill="#1a2d4d" stroke-width="0"/>
  <path d="M215.98,181.36c-.24,7.09-2.68,13.44-6.5,19.3-2.24,3.44-1.43,5.24,1.79,7.59.36.27.78.47,1.14.74.5.37,1.1.68.66,1.51-.41.76-.87,1.08-1.73.68-2.51-1.19-4.48-2.94-5.44-5.58-.64-1.76-.04-3.49.79-5.09,1.3-2.53,3-4.84,4.09-7.49,1.87-4.54,2.75-9.28,2.72-14.18,0-.99.19-1.83,1.28-1.83,1.16,0,1.22.99,1.22,1.89v2.45h-.02Z" fill="#1a2d4d" stroke-width="0"/>
  <path d="M215.91,231.86c-5.07-.2-10.53-2.33-14.45-7.63-.32-.44-.63-.89-.88-1.37-.32-.63-.32-1.24.38-1.65.7-.41,1.27-.33,1.73.39.81,1.26,1.74,2.44,2.87,3.43,5.37,4.7,11.54,5.18,18.1,3.29,2.64-.76,5.04-2.02,7.08-3.89.72-.66,1.37-.81,2.07,0,.74.87.08,1.4-.47,1.94-3.37,3.25-9.46,5.44-16.43,5.47v.02Z" fill="#1f2437" stroke-width="0"/>
  <path d="M307.96,185.57c4.26,0,7.23,3.11,7.06,6.82-.03.75-.34,1.24-1.1,1.27-.72.03-1.17-.37-1.3-1.11-.09-.53-.19-1.07-.32-1.6-.47-1.89-1.91-3.02-3.85-2.95-1.65.06-3.21.45-4.62,1.37-.7.46-.83.73-.02,1.22,2.74,1.66,3.72,4.16,3.39,7.28-.05.43-.29.75-.44,1.12-.31.73-.87.91-1.55.67-.68-.23-.95-.7-.84-1.48.48-3.55-.29-4.92-3.62-6.56-1.32-.65-1.55-1.58-.55-2.52,2.32-2.17,5.05-3.46,7.77-3.55v.02Z" fill="#1f2437" stroke-width="0"/>
  <path d="M242.98,180.88c-.02-2.67,2.11-5.03,4.49-5.01,2.47.02,4.46,2.26,4.48,5.01.01,2.75-1.95,4.84-4.55,4.83-2.5,0-4.4-2.08-4.42-4.84h0Z" fill="#112139" stroke-width="0"/>
  <path d="M196.13,174c.12.9-.2,1.89-.75,2.78-.87,1.4-2.14,2.23-3.84,2.09-1.71-.15-2.82-1.22-3.42-2.73-.78-1.97-.61-3.89.77-5.61,1.08-1.36,2.49-1.71,4.12-1.37,1.79.37,3.12,2.36,3.12,4.86v-.02Z" fill="#112139" stroke-width="0"/>
  <path d="M478.69,88.1c11.07,0,22.13.02,33.2-.03,1.27,0,1.73.31,1.73,1.66-.05,10.2-.02,20.41-.03,30.62q0,1.78-1.84,1.78c-22.13,0-44.27,0-66.4.04-1.23,0-1.5-.38-1.5-1.55.04-10.34.04-20.68,0-31.02,0-1.18.28-1.54,1.5-1.53,11.11.05,22.22.03,33.34.03h0ZM468.98,107c.58.08.85-.23,1.1-.45,2.28-1.92,4.87-3.4,7.3-5.09,4.84-3.37,9.75-6.63,14.64-9.92.36-.24.8-.49.53-.93-.32-.52-.74-.04-1.02.15-1.44.99-2.83,2.05-4.28,3.04-5.4,3.68-10.85,7.3-16.21,11.04-.75.52-1.98.79-2.06,2.16h0Z" fill="#a7dce0" stroke-width="0"/>
  <path d="M393.81,284.41c-.37-2.06-.76-4.12-1.09-6.19-1.32-8.11-1.23-16.28-1.05-24.45.08-3.49.75-6.97.95-10.47.15-2.67.88-5.23,1.19-7.86.02-.2.18-.39.27-.59.67.73.05,1.52-.07,2.18-.38,2.11-.33,4.25-.35,6.34-.02,2.56-.78,4.98-.81,7.54-.02,1.85.14,3.79-.37,5.65-.33,1.2.24,2.41.23,3.63v9.25c0,1.5.46,2.91.75,4.36.25,1.24.07,2.51.24,3.78.27,2.05.54,4.13.37,6.21-.02.21-.16.4-.25.6v.02Z" fill="#1a2d4d" stroke-width="0"/>
  <path d="M395.13,289.34c-.87-.4-.44-1.32-.78-1.94,1.44.17.55,1.28.78,1.94Z" fill="#1a2d4d" stroke-width="0"/>
  <path d="M394.36,232.14c.21-.75-.12-1.7.77-2.22-.06.81.1,1.69-.77,2.22Z" fill="#1a2d4d" stroke-width="0"/>
  <path d="M394.09,234.05c0-.39-.15-.81.26-1.1.37.47.46.88-.26,1.1Z" fill="#1a2d4d" stroke-width="0"/>
  <path d="M404.69,324.7c-.4-.29-.25-.71-.27-1.09.76.2.64.61.27,1.09Z" fill="#1a2d4e" stroke-width="0"/>
  <path d="M404.38,322.56c-.34-.05-.52-.23-.48-.59.35.04.52.23.48.59Z" fill="#1a2d4e" stroke-width="0"/>
  <path d="M468.98,107c.09-1.38,1.32-1.64,2.06-2.16,5.36-3.74,10.8-7.36,16.21-11.04,1.44-.98,2.84-2.04,4.28-3.04.28-.2.7-.68,1.02-.15.27.44-.17.69-.53.93-4.89,3.29-9.8,6.55-14.64,9.92-2.43,1.7-5.02,3.17-7.3,5.09-.25.21-.52.53-1.1.45h0Z" fill="#f1fafa" stroke-width="0"/>
</svg>