<svg width="53" height="24" viewBox="0 0 53 24" fill="none" xmlns="http://www.w3.org/2000/svg">
<path d="M40.9462 0.706959L42.2762 4.69235L46.149 6.28635L42.7858 8.78827L42.473 12.9798L39.0644 10.5407L34.9983 11.5372L36.2548 7.52782L34.0546 3.95217L38.2399 3.91335L40.9462 0.706959Z" fill="#E9A8CB"/>
<path d="M49.2373 5.7221L49.8949 6.89384L51.2078 7.15987L50.3013 8.15007L50.4551 9.48623L49.2373 8.92647L48.0194 9.48623L48.1732 8.15007L47.2667 7.15987L48.5796 6.89384L49.2373 5.7221Z" fill="#E9A8CB"/>
<path d="M31.1079 0L31.93 1.46468L33.5711 1.79721L32.438 3.03497L32.6302 4.70517L31.1079 4.00547L29.5856 4.70517L29.7778 3.03497L28.6448 1.79721L30.2859 1.46468L31.1079 0Z" fill="#E9A8CB"/>
<path d="M31.6259 9.36343L32.1191 10.2422L33.1038 10.4418L32.424 11.1844L32.5393 12.1865L31.6259 11.7667L30.7125 12.1865L30.8278 11.1844L30.148 10.4418L31.1327 10.2422L31.6259 9.36343Z" fill="#E9A8CB"/>
<path d="M12.7196 18.2067L13.6238 19.8178L15.429 20.1836L14.1827 21.5451L14.3941 23.3824L12.7196 22.6127L11.045 23.3824L11.2564 21.5451L10.0101 20.1836L11.8153 19.8178L12.7196 18.2067Z" fill="#6D5FAA"/>
<path d="M6.15362 18.0236H3.84135V22.4806H0V10.3643C0 8.21069 0.671304 7.40543 2.90899 7.40543H6.15362C9.37961 7.40543 11.7478 9.01594 11.7478 12.5553V12.8737C11.7478 16.4131 9.37961 18.0236 6.15362 18.0236ZM3.84135 11.207V14.7651H5.96715C7.21652 14.7651 7.92512 13.8287 7.92512 12.78V12.6489C7.92512 11.6002 7.21652 10.6639 5.96715 10.6639H4.38212C3.95324 10.6639 3.84135 10.7575 3.84135 11.207Z" fill="#6D5FAA"/>
<path d="M22.2566 22.4806H18.378V10.7201H15.5249C14.4434 10.7201 14.0145 9.8212 14.0145 9.0534C14.0145 8.28559 14.4248 7.44288 15.5249 7.44288H25.1097C26.2099 7.44288 26.6201 8.28559 26.6201 9.0534C26.6201 9.8212 26.1912 10.7201 25.1097 10.7201H22.2566V22.4806Z" fill="#6D5FAA"/>
<path d="M28.5491 22.9508H26.4461V17.4888C26.4461 16.8022 26.9433 16.4484 27.4924 16.4484C27.8964 16.4484 28.2797 16.6461 28.4455 17.0206C28.8391 16.6461 29.3468 16.4484 29.8958 16.4484C30.5278 16.4484 31.139 16.6565 31.5741 17.1767C31.9988 16.7293 32.5997 16.4484 33.4388 16.4484C34.7545 16.4484 35.9044 17.1247 35.9044 19.2991V22.9508H33.7703V19.1742C33.7703 18.4668 33.3249 18.2275 32.983 18.2275C32.6411 18.2275 32.1853 18.4668 32.1853 19.1742V22.9508H30.1341V19.1742C30.1341 18.4668 29.6886 18.2275 29.3468 18.2275C29.0153 18.2275 28.5698 18.4564 28.5491 19.1222V22.9508Z" fill="#6D5FAA"/>
<path d="M36.9587 22.9508V17.5616C36.9587 16.8438 37.4456 16.5212 38.0257 16.5212C38.6059 16.5212 39.0928 16.8438 39.0928 17.5616V22.9508H36.9587ZM36.9483 15.1167C36.9483 14.4301 37.4456 14.1596 38.0257 14.1596C38.6059 14.1596 39.1031 14.4301 39.1031 15.1167C39.1031 15.8034 38.6059 16.0739 38.0257 16.0739C37.4456 16.0739 36.9483 15.8034 36.9483 15.1167Z" fill="#6D5FAA"/>
<path d="M42.2877 22.9508H40.1847V17.4888C40.1847 16.8022 40.682 16.4484 41.2311 16.4484C41.6351 16.4484 42.0184 16.6461 42.1945 17.0206C42.5985 16.6461 43.1579 16.4484 43.707 16.4484C45.0227 16.4484 46.069 17.1039 46.069 19.2991V22.9508H43.9349V19.1742C43.9349 18.4668 43.4687 18.2275 43.1165 18.2275C42.7643 18.2275 42.2877 18.4668 42.2877 19.1742V22.9508Z" fill="#6D5FAA"/>
<path d="M53 22.9508H51.3528L51.2389 22.2746C50.8452 22.8052 50.2443 23.1277 49.4984 23.1277C48.131 23.1277 46.9707 22.4514 46.9707 20.2562V19.3199C46.9707 17.1247 48.131 16.4484 49.4984 16.4484C50.0682 16.4484 50.5344 16.6357 50.897 16.9374V15.2C50.897 14.5133 51.4046 14.1596 51.9537 14.1596C52.5027 14.1596 53 14.5133 53 15.2V22.9508ZM49.1048 19.1742V20.4019C49.1048 21.1093 49.6331 21.3486 49.9957 21.3486C50.3479 21.3486 50.8659 21.1197 50.897 20.4539V19.1222C50.8659 18.4564 50.3479 18.2275 49.9957 18.2275C49.6331 18.2275 49.1048 18.4668 49.1048 19.1742Z" fill="#6D5FAA"/>
</svg>
