<svg xmlns="http://www.w3.org/2000/svg" xmlns:xlink="http://www.w3.org/1999/xlink" width="105" height="97" viewBox="0 0 105 97">
  <defs>
    <clipPath id="clip-path">
      <rect id="사각형_62" data-name="사각형 62" width="105" height="97" transform="translate(0.208 -0.078)" fill="#fff"/>
    </clipPath>
  </defs>
  <g id="그룹_26" data-name="그룹 26" transform="translate(-0.208 0.078)" clip-path="url(#clip-path)">
    <path id="패스_301" data-name="패스 301" d="M146.592,324.495a2.658,2.658,0,0,0-1.3.339,2.693,2.693,0,0,0-4.7-2.611,2.688,2.688,0,0,0-4.969,1.439,2.724,2.724,0,0,0,.207,1.041,2.65,2.65,0,0,0-1.035-.208,2.7,2.7,0,0,0-2.605,3.377,3.548,3.548,0,0,0-1.352,1.255,3.545,3.545,0,0,0-1.606-1.377,3.581,3.581,0,0,0-.94-3.72,3.566,3.566,0,0,0,1.27-6.494,3.568,3.568,0,0,0,.091-6.618,3.567,3.567,0,0,0-1.092-6.526,3.564,3.564,0,0,0-2.239-6.224,3.584,3.584,0,0,0,.342-3.869A3.539,3.539,0,0,0,123,292.45a3.578,3.578,0,0,0-.354-3.868,3.531,3.531,0,0,0-3.926-1.161,3.573,3.573,0,0,0-1.039-3.74,3.529,3.529,0,0,0-4.069-.431,3.569,3.569,0,0,0-1.69-3.494,3.528,3.528,0,0,0-4.08.309,3.56,3.56,0,0,0-2.285-3.133,3.482,3.482,0,0,0-1.452-.22l-.022-.013-.009.013a10.761,10.761,0,0,0,.072-4.389c-.233-1.142-2.061-1.029-3.669-.73,1.191-1.152,2.768-3.255,1.14-4.555-1.039-.83-2.773.1-3.706,1.091,1.874-2.9-.1-7.607-3.441-5.477-2.58,1.643-2.116,6.313-1.588,9.343a7.9,7.9,0,0,0-1.56-.927c-2.052-.921-4.071-1.014-4.474.474a15.366,15.366,0,0,0-.547,4c-.061.006-.123.008-.185.017a3.55,3.55,0,0,0-2.949,2.852,3.537,3.537,0,0,0-6.139,2.388,3.527,3.527,0,0,0-3.854-.261,3.569,3.569,0,0,0-1.758,3.715,3.529,3.529,0,0,0-3.838.441,3.58,3.58,0,0,0-1.068,3.974,3.554,3.554,0,0,0-1.949-.006,3.507,3.507,0,0,0-6.378-2.716,3.5,3.5,0,0,0-6.48,1.875,3.535,3.535,0,0,0,.27,1.355,3.526,3.526,0,1,0-1.351,6.789,3.453,3.453,0,0,0,1.351-.272,3.534,3.534,0,0,0,3.241,4.888,3.5,3.5,0,0,0,2.969-1.654,3.624,3.624,0,0,0,.808.9,3.563,3.563,0,0,0-1.5,6.257,3.566,3.566,0,0,0-.784,6.57,3.567,3.567,0,0,0,.4,6.606,3.566,3.566,0,0,0,1.575,6.426,3.562,3.562,0,0,0,2.7,6.038,3.577,3.577,0,0,0-.053,3.882A3.537,3.537,0,0,0,65.1,337.18a3.574,3.574,0,0,0,.641,3.828,3.528,3.528,0,0,0,4,.862,3.575,3.575,0,0,0,1.314,3.652,3.533,3.533,0,0,0,4.091.127,3.569,3.569,0,0,0,1.944,3.357,3.532,3.532,0,0,0,1.217.359,13.1,13.1,0,0,0,.215,2.78,7.223,7.223,0,0,0,.828,2.248c1.408,2.382,3.423,1.892,3.663-.736.009-.107.022-.212.031-.319q.1-1.07.229-2.13a3.488,3.488,0,0,0,4.243-1.2,3.533,3.533,0,0,0,6.567.438,3.533,3.533,0,0,0,6.539-.753,3.531,3.531,0,0,0,3.663,1.229,3.492,3.492,0,0,0,1.23-.6q.176,1.428.31,2.877c0,.026.005.051.009.08.24,2.629,2.256,3.118,3.663.736a7.012,7.012,0,0,0,.776-2.013,13.439,13.439,0,0,0,.248-3.59c.076-.029.149-.058.223-.094a3.567,3.567,0,0,0,2.03-3.572,3.524,3.524,0,0,0,3.859-.151A3.569,3.569,0,0,0,118,340.722a3.534,3.534,0,0,0,4.381-1.7,3.444,3.444,0,0,0,2.243-.151,3.535,3.535,0,0,0,3.241,4.888,3.491,3.491,0,0,0,2.97-1.656,3.512,3.512,0,0,0,6.132-3.4,3.482,3.482,0,0,0,1.7.443,3.534,3.534,0,0,0,1.671-6.636,2.491,2.491,0,0,0,.251-.336,2.693,2.693,0,0,0,4.7-2.609,2.671,2.671,0,0,0,1.3.339,2.706,2.706,0,0,0,0-5.413Z" transform="translate(-45.788 -261.978)" fill="#446ca9"/>
    <path id="패스_302" data-name="패스 302" d="M81.57,357.482c-.69,0-2.017-.285-3.142-2.19a8.57,8.57,0,0,1-.987-2.663,12.8,12.8,0,0,1-.231-2,4.862,4.862,0,0,1-2.887-2.929,4.829,4.829,0,0,1-3.85-.9,4.91,4.91,0,0,1-1.865-3.1H68.56a4.87,4.87,0,0,1-4.86-4.96,4.837,4.837,0,0,1-3.287-2.21,4.915,4.915,0,0,1-.657-3.556,4.847,4.847,0,0,1-2.837-2.768,4.917,4.917,0,0,1-.011-3.621,4.9,4.9,0,0,1-1.665-6.794,4.9,4.9,0,0,1-.426-6.985,4.9,4.9,0,0,1,.83-6.949,4.922,4.922,0,0,1-.389-3.735,4.855,4.855,0,0,1-4.662-4.619,4.862,4.862,0,0,1,0-9.71,4.854,4.854,0,0,1,4.829-4.623A4.8,4.8,0,0,1,58.4,284.2a4.792,4.792,0,0,1,2.97-1.026,4.84,4.84,0,0,1,4.23,2.507,4.855,4.855,0,0,1,4.777-2.9,4.855,4.855,0,0,1,5.935-3.654A4.846,4.846,0,0,1,82.8,276.6a4.9,4.9,0,0,1,2.417-1.908,18.246,18.246,0,0,1,.565-3.286,2.961,2.961,0,0,1,3.1-2.127,7.445,7.445,0,0,1,2.547.519c-.237-2.727-.05-6.407,2.547-8.058A4.321,4.321,0,0,1,96.3,261a3.638,3.638,0,0,1,3.212,2.063,5.754,5.754,0,0,1,.664,2.61,3.575,3.575,0,0,1,.685-.069,2.827,2.827,0,0,1,1.791.61,3.021,3.021,0,0,1,1.193,2.262,3.96,3.96,0,0,1-.415,1.874,2.439,2.439,0,0,1,2.224,1.924,13.22,13.22,0,0,1,.174,3.5c.138.038.273.083.407.135a4.875,4.875,0,0,1,2.658,2.442,4.854,4.854,0,0,1,6.1,3.367,4.673,4.673,0,0,1,.563-.033,4.835,4.835,0,0,1,3.208,1.219,4.9,4.9,0,0,1,1.631,3.227,4.832,4.832,0,0,1,3.5,1.847,4.918,4.918,0,0,1,1.026,3.47,4.846,4.846,0,0,1,3.112,2.449,4.915,4.915,0,0,1,.392,3.6,4.9,4.9,0,0,1,2.369,6.58,4.906,4.906,0,0,1,1.157,6.9,4.9,4.9,0,0,1-.094,7,4.9,4.9,0,0,1-1.344,6.867,4.939,4.939,0,0,1,.41,2.453c.021.014.044.031.064.048a4.032,4.032,0,0,1,3.545-3.934,4.031,4.031,0,0,1,3.989-3.568,3.968,3.968,0,0,1,2.277.712,3.98,3.98,0,0,1,2.277-.712,4.031,4.031,0,0,1,3.987,3.548,4.04,4.04,0,0,1,0,8.059,4.034,4.034,0,0,1-3.43,3.508,4.908,4.908,0,0,1,.079.88,4.853,4.853,0,0,1-4.834,4.861h-.033a4.854,4.854,0,0,1-4.829,4.617,4.8,4.8,0,0,1-2.972-1.026,4.791,4.791,0,0,1-2.971,1.026,4.853,4.853,0,0,1-4.829-4.623h-.02c-.1.118-.194.231-.3.338a4.809,4.809,0,0,1-3.292,1.465,4.909,4.909,0,0,1-2.018,3.415,4.834,4.834,0,0,1-3.5.849,4.9,4.9,0,0,1-2.031,2.685,13.515,13.515,0,0,1-.3,3.086,8.35,8.35,0,0,1-.929,2.393c-1.127,1.906-2.454,2.191-3.144,2.191-1.226,0-2.742-.911-2.977-3.484l-.005-.055c-.035-.368-.07-.729-.106-1.088a4.86,4.86,0,0,1-3.359-.5,4.864,4.864,0,0,1-3.478,1.88,4.8,4.8,0,0,1-3.437-1.086,4.839,4.839,0,0,1-6.941-.465,4.872,4.872,0,0,1-2.762.721c-.024.224-.044.44-.064.648l-.033.319c-.235,2.567-1.749,3.48-2.977,3.48Zm-6.209-12.944a1.317,1.317,0,0,1,.655.176,1.331,1.331,0,0,1,.668,1.22,2.239,2.239,0,0,0,1.219,2.1,2.166,2.166,0,0,0,.76.223,1.327,1.327,0,0,1,1.184,1.347,11.566,11.566,0,0,0,.189,2.493,5.831,5.831,0,0,0,.668,1.833c.4.68.749.864.852.885a1.655,1.655,0,0,0,.356-1.065l.031-.32c.062-.655.138-1.36.233-2.163A1.324,1.324,0,0,1,84,350.2a2.21,2.21,0,0,0,.231.085,2.237,2.237,0,0,0,2.426-.837,1.322,1.322,0,0,1,2.333.37,2.212,2.212,0,0,0,4.113.276,1.323,1.323,0,0,1,2.362-.057,2.212,2.212,0,0,0,4.1-.47,1.322,1.322,0,0,1,2.312-.481,2.211,2.211,0,0,0,3.065.4,1.315,1.315,0,0,1,1.312-.161,1.331,1.331,0,0,1,.8,1.061c.117.948.222,1.928.314,2.917l.007.06a1.677,1.677,0,0,0,.36,1.084c.1-.021.448-.2.852-.885a5.694,5.694,0,0,0,.626-1.633,12.137,12.137,0,0,0,.215-3.229,1.332,1.332,0,0,1,.848-1.3l.138-.057a2.24,2.24,0,0,0,1.271-2.239,1.336,1.336,0,0,1,.607-1.251,1.318,1.318,0,0,1,1.386-.02,2.22,2.22,0,0,0,3.268-2.526,1.334,1.334,0,0,1,.376-1.34,1.317,1.317,0,0,1,1.358-.269,2.229,2.229,0,0,0,.778.141,2.19,2.19,0,0,0,1.584-.671,2.232,2.232,0,0,0,.381-.532,1.324,1.324,0,0,1,1.512-.674,2.114,2.114,0,0,0,1.4-.092,1.316,1.316,0,0,1,1.444.287,1.339,1.339,0,0,1,.287,1.453,2.187,2.187,0,0,0,3.87,2.011,1.32,1.32,0,0,1,2.241,0,2.187,2.187,0,0,0,3.82-2.117,1.338,1.338,0,0,1,.282-1.546,1.317,1.317,0,0,1,1.551-.2,2.16,2.16,0,0,0,1.059.275,2.2,2.2,0,0,0,1.039-4.136,1.335,1.335,0,0,1-.368-2.045,1.516,1.516,0,0,0,.13-.169,1.319,1.319,0,0,1,2.239,0,1.358,1.358,0,0,0,1.158.648,1.373,1.373,0,0,0,1.367-1.376,1.349,1.349,0,0,0-.138-.593,1.337,1.337,0,0,1,.283-1.547,1.317,1.317,0,0,1,1.551-.2,1.336,1.336,0,0,0,.66.172,1.376,1.376,0,0,0,0-2.752,1.33,1.33,0,0,0-.66.172,1.316,1.316,0,0,1-1.551-.2,1.334,1.334,0,0,1-.283-1.546,1.35,1.35,0,0,0,.138-.594,1.365,1.365,0,0,0-2.525-.729,1.319,1.319,0,0,1-2.239,0,1.369,1.369,0,0,0-2.42,1.258,1.339,1.339,0,0,1-.287,1.453,1.318,1.318,0,0,1-1.446.286,1.329,1.329,0,0,0-.524-.1,1.371,1.371,0,0,0-1.367,1.375,1.348,1.348,0,0,0,.045.341,1.336,1.336,0,0,1-.668,1.51,2.22,2.22,0,0,0-.846.784,1.319,1.319,0,0,1-2.239,0,2.205,2.205,0,0,0-1-.858,1.336,1.336,0,0,1-.74-1.646,2.24,2.24,0,0,0-.591-2.329,1.334,1.334,0,0,1,.661-2.28,2.232,2.232,0,0,0,.8-4.067,1.336,1.336,0,0,1,.244-2.362,2.234,2.234,0,0,0,.057-4.145,1.334,1.334,0,0,1-.18-2.368,2.234,2.234,0,0,0-.685-4.089,1.332,1.332,0,0,1-.6-2.3,2.23,2.23,0,0,0-1.4-3.9,1.331,1.331,0,0,1-1-2.149,2.245,2.245,0,0,0,.216-2.425,2.213,2.213,0,0,0-1.962-1.182,2.164,2.164,0,0,0-.329.024,1.324,1.324,0,0,1-1.276-.544,1.339,1.339,0,0,1-.094-1.389,2.251,2.251,0,0,0-.22-2.425,2.2,2.2,0,0,0-1.739-.846,2.229,2.229,0,0,0-.719.12,1.319,1.319,0,0,1-1.353-.306,1.337,1.337,0,0,1-.339-1.351,2.247,2.247,0,0,0-.649-2.345,2.211,2.211,0,0,0-2.549-.269,1.32,1.32,0,0,1-1.386-.057,1.339,1.339,0,0,1-.574-1.269,2.217,2.217,0,0,0-3.614-1.994,1.322,1.322,0,0,1-2.164-.949,2.214,2.214,0,0,0-2.338-2.1,1.308,1.308,0,0,1-.415-.04,1.256,1.256,0,0,1-.261-.092,1.331,1.331,0,0,1-.707-1.56,9.274,9.274,0,0,0,.083-3.572,2.5,2.5,0,0,0-.569-.054,9.227,9.227,0,0,0-1.6.179,1.322,1.322,0,0,1-1.417-.7,1.337,1.337,0,0,1,.261-1.568,4.015,4.015,0,0,0,1.43-2.249c0-.061-.007-.155-.195-.3-.009-.007-.038-.031-.145-.031a3.05,3.05,0,0,0-1.775.995,1.317,1.317,0,0,1-1.78.129,1.334,1.334,0,0,1-.292-1.769,3.415,3.415,0,0,0,.171-3.289,1.091,1.091,0,0,0-.885-.671,1.808,1.808,0,0,0-.91.331c-.98.623-1.945,2.514-.993,7.99a1.336,1.336,0,0,1-.615,1.366,1.321,1.321,0,0,1-1.488-.076A6.782,6.782,0,0,0,91,272.5a5.527,5.527,0,0,0-2.114-.555c-.5,0-.53.125-.541.166a13.871,13.871,0,0,0-.5,3.621,1.328,1.328,0,0,1-1.2,1.358l-.125.01a2.226,2.226,0,0,0-1.833,1.786,1.322,1.322,0,0,1-2.27.654,2.215,2.215,0,0,0-3.845,1.5,1.33,1.33,0,0,1-.736,1.179,1.313,1.313,0,0,1-1.38-.127,2.249,2.249,0,0,0-1.338-.447,2.178,2.178,0,0,0-1.077.285,2.239,2.239,0,0,0-1.1,2.329,1.335,1.335,0,0,1-.514,1.294,1.32,1.32,0,0,1-1.38.124,2.236,2.236,0,0,0-1-.235,2.191,2.191,0,0,0-1.409.51,2.243,2.243,0,0,0-.666,2.489A1.337,1.337,0,0,1,67.7,289.8a1.321,1.321,0,0,1-1.336.37,2.238,2.238,0,0,0-1.224,0,1.315,1.315,0,0,1-1.279-.329,1.338,1.338,0,0,1-.362-1.277,2.124,2.124,0,0,0,.066-.518,2.2,2.2,0,0,0-2.188-2.2,2.171,2.171,0,0,0-1.85,1.034,1.32,1.32,0,0,1-2.241,0,2.171,2.171,0,0,0-1.85-1.034,2.2,2.2,0,0,0-2.188,2.2,2.219,2.219,0,0,0,.167.844,1.336,1.336,0,0,1-.286,1.453,1.321,1.321,0,0,1-1.446.287,2.167,2.167,0,0,0-.841-.168,2.2,2.2,0,1,0,.841,4.232,1.321,1.321,0,0,1,1.446.287,1.339,1.339,0,0,1,.286,1.454,2.188,2.188,0,0,0,3.871,2.012,1.32,1.32,0,0,1,2.241,0,2.188,2.188,0,0,0,.507.562,1.335,1.335,0,0,1-.551,2.35,2.2,2.2,0,0,0-1.644,1.439,2.242,2.242,0,0,0,.7,2.479,1.333,1.333,0,0,1-.49,2.322,2.233,2.233,0,0,0-.49,4.115,1.334,1.334,0,0,1-.07,2.373,2.233,2.233,0,0,0,.251,4.137,1.334,1.334,0,0,1,.356,2.348,2.231,2.231,0,0,0,.986,4.025,1.334,1.334,0,0,1,.769,2.245,2.246,2.246,0,0,0-.468,2.388,2.21,2.21,0,0,0,2.156,1.394,1.33,1.33,0,0,1,1.158,2.069,2.247,2.247,0,0,0-.035,2.434,2.213,2.213,0,0,0,2.369.981,1.317,1.317,0,0,1,1.312.449,1.338,1.338,0,0,1,.2,1.378,2.247,2.247,0,0,0,.4,2.4,2.187,2.187,0,0,0,1.63.717,2.221,2.221,0,0,0,.875-.179,1.32,1.32,0,0,1,1.371.2,1.338,1.338,0,0,1,.439,1.322,2.246,2.246,0,0,0,.822,2.289,2.181,2.181,0,0,0,1.331.45,2.208,2.208,0,0,0,1.232-.373,1.33,1.33,0,0,1,.73-.222Z" transform="translate(-46 -262.191)" fill="#5e4d62"/>
    <path id="패스_303" data-name="패스 303" d="M66.016,285.352a3.474,3.474,0,0,0-1.7.443,3.511,3.511,0,0,0-6.132-3.4,3.5,3.5,0,0,0-6.48,1.875,3.537,3.537,0,0,0,.27,1.357,3.531,3.531,0,1,0,0,6.518,3.534,3.534,0,0,0,3.241,4.888,3.5,3.5,0,0,0,2.969-1.656,3.512,3.512,0,0,0,6.132-3.4,3.524,3.524,0,1,0,1.7-6.618Z" transform="translate(-45.788 -258.419)" fill="#8ae2d1"/>
    <path id="패스_304" data-name="패스 304" d="M61.185,297.25a3.675,3.675,0,0,1-2.971-1.508,3.669,3.669,0,0,1-2.969,1.508,3.725,3.725,0,0,1-3.551-4.767,3.635,3.635,0,0,1-1.041.15,3.721,3.721,0,0,1,0-7.441,3.645,3.645,0,0,1,1.041.15,3.725,3.725,0,0,1,3.551-4.767,3.669,3.669,0,0,1,2.969,1.508,3.672,3.672,0,0,1,2.971-1.508,3.718,3.718,0,0,1,3.516,4.872,3.72,3.72,0,1,1,0,6.931,3.718,3.718,0,0,1-3.516,4.872Zm-2.971-2.033a.185.185,0,0,1,.16.088,3.3,3.3,0,0,0,2.812,1.566,3.338,3.338,0,0,0,2.992-4.786.193.193,0,0,1,.04-.222.187.187,0,0,1,.222-.027,3.341,3.341,0,1,0,0-5.842.192.192,0,0,1-.222-.029.189.189,0,0,1-.04-.222,3.322,3.322,0,0,0-5.8-3.22.189.189,0,0,1-.319,0,3.315,3.315,0,0,0-6.132,1.774,3.34,3.34,0,0,0,.255,1.284.189.189,0,0,1-.248.248,3.288,3.288,0,0,0-1.277-.257,3.341,3.341,0,0,0,0,6.681A3.281,3.281,0,0,0,51.93,292a.194.194,0,0,1,.207.04.189.189,0,0,1,.04.207,3.343,3.343,0,0,0,3.067,4.624,3.3,3.3,0,0,0,2.81-1.564.188.188,0,0,1,.16-.089Z" transform="translate(-45.818 -258.45)" fill="#808184"/>
    <path id="패스_305" data-name="패스 305" d="M127.008,321.6a3.466,3.466,0,0,0-1.7.443,3.511,3.511,0,0,0-6.132-3.4,3.5,3.5,0,0,0-6.481,1.875,3.554,3.554,0,0,0,.27,1.358,3.531,3.531,0,1,0,0,6.518,3.533,3.533,0,0,0,3.241,4.888,3.494,3.494,0,0,0,2.97-1.656,3.512,3.512,0,0,0,6.132-3.4,3.478,3.478,0,0,0,1.7.443,3.53,3.53,0,0,0,0-7.06Z" transform="translate(-34.13 -251.491)" fill="#99daea"/>
    <path id="패스_306" data-name="패스 306" d="M122.178,333.5a3.678,3.678,0,0,1-2.972-1.508,3.67,3.67,0,0,1-2.97,1.508,3.724,3.724,0,0,1-3.551-4.767,3.636,3.636,0,0,1-1.041.149,3.72,3.72,0,1,1,1.041-7.291,3.724,3.724,0,0,1,3.551-4.767,3.666,3.666,0,0,1,2.97,1.51,3.677,3.677,0,0,1,2.972-1.51,3.719,3.719,0,0,1,3.516,4.873,3.719,3.719,0,1,1,0,6.931,3.718,3.718,0,0,1-3.516,4.872Zm-2.972-2.036a.189.189,0,0,1,.16.088,3.3,3.3,0,0,0,2.812,1.566,3.335,3.335,0,0,0,2.99-4.786.2.2,0,0,1,.041-.222.185.185,0,0,1,.222-.027,3.341,3.341,0,1,0,0-5.843.188.188,0,0,1-.222-.029.192.192,0,0,1-.041-.222,3.322,3.322,0,0,0-5.8-3.22.189.189,0,0,1-.16.088.193.193,0,0,1-.16-.088,3.3,3.3,0,0,0-2.81-1.565,3.345,3.345,0,0,0-3.066,4.625.191.191,0,0,1-.04.206.189.189,0,0,1-.206.04,3.34,3.34,0,1,0,0,6.168.189.189,0,0,1,.206.04.185.185,0,0,1,.04.206,3.345,3.345,0,0,0,3.066,4.625,3.3,3.3,0,0,0,2.81-1.565A.193.193,0,0,1,119.206,331.464Z" transform="translate(-34.16 -251.521)" fill="#808184"/>
    <path id="패스_307" data-name="패스 307" d="M132.955,315.053a2.658,2.658,0,0,0-1.3.339,2.693,2.693,0,0,0-4.7-2.611,2.688,2.688,0,0,0-4.969,1.439,2.724,2.724,0,0,0,.207,1.041,2.65,2.65,0,0,0-1.035-.208,2.706,2.706,0,0,0,0,5.413,2.651,2.651,0,0,0,1.035-.208,2.728,2.728,0,0,0-.207,1.041,2.688,2.688,0,0,0,4.969,1.438,2.688,2.688,0,0,0,4.971-1.438,2.718,2.718,0,0,0-.268-1.172,2.7,2.7,0,1,0,1.3-5.073Z" transform="translate(-32.15 -252.536)" fill="#1ccfc9"/>
    <path id="패스_308" data-name="패스 308" d="M129.259,324.226a2.859,2.859,0,0,1-2.277-1.126,2.852,2.852,0,0,1-2.277,1.126,2.891,2.891,0,0,1-2.881-2.9,2.84,2.84,0,0,1,.1-.737,2.926,2.926,0,0,1-.735.1,2.9,2.9,0,1,1,.735-5.7,2.9,2.9,0,0,1,2.786-3.635,2.863,2.863,0,0,1,2.277,1.126,2.856,2.856,0,0,1,2.277-1.126,2.892,2.892,0,0,1,2.881,2.9,2.863,2.863,0,0,1-.116.81,2.894,2.894,0,1,1,.961,5.628,2.846,2.846,0,0,1-.961-.168,2.85,2.85,0,0,1,.116.81A2.892,2.892,0,0,1,129.259,324.226Zm-2.28-1.65a.188.188,0,0,1,.16.089,2.5,2.5,0,0,0,4.37-2.425.189.189,0,0,1,.262-.249,2.516,2.516,0,1,0,0-4.4.188.188,0,0,1-.222-.029.192.192,0,0,1-.04-.222,2.5,2.5,0,0,0-4.37-2.424.189.189,0,0,1-.319,0,2.5,2.5,0,0,0-4.426,2.3.2.2,0,0,1-.04.208.191.191,0,0,1-.207.04,2.5,2.5,0,0,0-3.464,2.322,2.514,2.514,0,0,0,2.5,2.518,2.459,2.459,0,0,0,.962-.194.189.189,0,0,1,.248.247,2.5,2.5,0,0,0,4.426,2.306A.189.189,0,0,1,126.979,322.576Z" transform="translate(-32.181 -252.567)" fill="#808184"/>
    <path id="패스_309" data-name="패스 309" d="M88.541,279.4c-1.606-.917-2.4-4.594-2.736-6.33-.56-2.856-1.525-8.568,1.387-10.422,3.575-2.277,5.581,3.261,3,6.053.666-1.128,2.905-2.657,4.15-1.665,1.813,1.45-.354,3.9-1.529,4.911-2.068,1.787-5.473,4.6-4.122,7.828a7.868,7.868,0,0,0,.04-1.122" transform="translate(-38.509 -261.978)" fill="#fff"/>
    <path id="패스_310" data-name="패스 310" d="M88.717,280a.191.191,0,0,1-.174-.117c-.044-.106-.084-.212-.119-.317-1.722-1.059-2.512-5.09-2.773-6.426-.723-3.7-1.358-8.818,1.472-10.62a2.54,2.54,0,0,1,3.566.353,4.774,4.774,0,0,1,.576,4.511,4.348,4.348,0,0,1,1.69-.781,1.845,1.845,0,0,1,1.531.319,1.889,1.889,0,0,1,.767,1.481c.031,1.635-1.9,3.388-2.292,3.723l-.16.137c-1.791,1.543-4.379,3.774-4.2,6.309a.167.167,0,0,1,.154-.074.189.189,0,0,1,.184.2c0,.121,0,.241,0,.356a4.34,4.34,0,0,1-.042.792.19.19,0,0,1-.165.157h-.018Zm.123-17.659a2.863,2.863,0,0,0-1.518.5c-2.634,1.675-2,6.637-1.3,10.225.235,1.2.907,4.624,2.252,5.9-.5-2.875,2.342-5.323,4.284-7l.16-.136c1.009-.872,2.18-2.292,2.16-3.427a1.5,1.5,0,0,0-.624-1.191,1.47,1.47,0,0,0-1.228-.243,4.5,4.5,0,0,0-2.206,1.3,4.306,4.306,0,0,1-.461.592.185.185,0,0,1-.251.023.191.191,0,0,1-.05-.249,3.544,3.544,0,0,1,.464-.6,4.421,4.421,0,0,0-.125-4.918,1.975,1.975,0,0,0-1.556-.774Z" transform="translate(-38.539 -262.007)" fill="#808184"/>
    <path id="패스_311" data-name="패스 311" d="M111.048,310.078c.213-9.816-9.476-17.989-21.638-18.255S67.213,299.3,67,309.111c-.193,8.894,7.87,14.289,18.436,15.422a24.956,24.956,0,0,0,7.147.114c10.362-.779,18.275-5.8,18.465-14.568Z" transform="translate(-41.987 -256.301)" fill="#ffbf9e"/>
    <path id="패스_312" data-name="패스 312" d="M89.711,325.081a29.747,29.747,0,0,1-3.214-.223c-.329-.034-.675-.07-1.05-.107-11.66-1.25-18.788-7.234-18.606-15.613a16.287,16.287,0,0,1,6.592-12.412,24.813,24.813,0,0,1,15.4-5.069c.2,0,.409,0,.615.007,12.249.269,22.039,8.544,21.823,18.448-.18,8.251-7.323,13.9-18.641,14.753a21.516,21.516,0,0,1-2.914.216Zm-.881-33.044c-11.909,0-21.4,7.514-21.611,17.108-.176,8.166,6.822,14,18.267,15.229.373.037.721.074,1.052.106a29.522,29.522,0,0,0,3.175.221,21.473,21.473,0,0,0,2.876-.213c11.118-.836,18.126-6.346,18.3-14.385.211-9.693-9.413-17.8-21.455-18.06-.2,0-.406-.008-.606-.008Z" transform="translate(-42.017 -256.332)" fill="#c38b76"/>
    <path id="패스_313" data-name="패스 313" d="M130.616,312.343a3.563,3.563,0,0,0-2.185-3.478,3.567,3.567,0,0,0-1.091-6.527,3.563,3.563,0,0,0-2.239-6.223,3.587,3.587,0,0,0,.342-3.87,3.54,3.54,0,0,0-3.657-1.849,3.578,3.578,0,0,0-.354-3.868,3.531,3.531,0,0,0-3.926-1.161,3.572,3.572,0,0,0-1.039-3.74,3.529,3.529,0,0,0-4.069-.432,3.57,3.57,0,0,0-1.69-3.494,3.53,3.53,0,0,0-4.08.309A3.535,3.535,0,0,0,100.4,275.9l-.026-.006a3.529,3.529,0,0,0-6.449-1l-.1,0a3.525,3.525,0,0,0-6.058-.544,3.533,3.533,0,0,0-5.8,2.012,3.537,3.537,0,0,0-6.139,2.388,3.532,3.532,0,0,0-3.854-.261,3.569,3.569,0,0,0-1.758,3.715,3.529,3.529,0,0,0-3.838.441,3.58,3.58,0,0,0-1.068,3.974,3.53,3.53,0,0,0-3.7,1.126,3.577,3.577,0,0,0-.341,4.1,3.541,3.541,0,0,0-3.436,1.774,3.582,3.582,0,0,0,.4,4.1,3.565,3.565,0,0,0-1.944,6.324,3.565,3.565,0,0,0-.784,6.569,3.568,3.568,0,0,0,.4,6.607,3.565,3.565,0,0,0,1.575,6.425,3.562,3.562,0,0,0,2.7,6.038,3.58,3.58,0,0,0-.053,3.883,3.534,3.534,0,0,0,3.783,1.57,3.576,3.576,0,0,0,.641,3.829,3.528,3.528,0,0,0,4,.862,3.575,3.575,0,0,0,1.314,3.652,3.533,3.533,0,0,0,4.091.127,3.571,3.571,0,0,0,1.944,3.357,3.529,3.529,0,0,0,4.045-.615,3.536,3.536,0,0,0,6.383,1.616,3.533,3.533,0,0,0,6.567.44,3.534,3.534,0,0,0,6.539-.753,3.535,3.535,0,0,0,6.3-1.92,3.529,3.529,0,0,0,3.825.548,3.567,3.567,0,0,0,2.03-3.572,3.524,3.524,0,0,0,3.859-.151,3.569,3.569,0,0,0,1.358-3.881,3.525,3.525,0,0,0,3.77-.846,3.578,3.578,0,0,0,.646-4.063,3.536,3.536,0,0,0,3.559-1.514,3.583,3.583,0,0,0-.089-4.113,3.563,3.563,0,0,0,2.407-6.159,3.566,3.566,0,0,0,1.27-6.494,3.563,3.563,0,0,0,2.274-3.139ZM95.169,328.267a25,25,0,0,1-7.147-.114c-10.566-1.134-18.628-6.527-18.436-15.422,0-.18.018-.356.028-.536a4.3,4.3,0,0,0,2.368-6.162,4.281,4.281,0,0,0,3.7-4.248c0-.026,0-.052,0-.077a4.215,4.215,0,0,0,2.23.636,4.275,4.275,0,0,0,4.172-3.388A4.254,4.254,0,0,0,88.9,296.7a4.243,4.243,0,0,0,6.818.693,4.243,4.243,0,0,0,6.7,1.448A4.272,4.272,0,0,0,106.535,302a4.189,4.189,0,0,0,1.51-.282,4.389,4.389,0,0,0-.028.467,4.285,4.285,0,0,0,3.221,4.156,4.29,4.29,0,0,0,2.3,5.368,14.7,14.7,0,0,1,.1,1.989c-.192,8.77-8.1,13.79-18.466,14.568Z" transform="translate(-44.574 -259.922)" fill="#fff"/>
    <path id="패스_314" data-name="패스 314" d="M89.712,350.65c-.13,0-.264-.007-.4-.02a3.743,3.743,0,0,1-3.038-2.258,3.739,3.739,0,0,1-2.812,1.288,3.676,3.676,0,0,1-1.052-.154,3.75,3.75,0,0,1-2.586-2.769,3.715,3.715,0,0,1-4,.419,3.756,3.756,0,0,1-2.048-3.191,3.724,3.724,0,0,1-1.773.447,3.684,3.684,0,0,1-2.243-.756,3.768,3.768,0,0,1-1.446-3.509,3.721,3.721,0,0,1-3.893-1.029,3.773,3.773,0,0,1-.8-3.713,3.716,3.716,0,0,1-3.649-1.714,3.781,3.781,0,0,1-.121-3.8,3.717,3.717,0,0,1-3.282-2.344,3.777,3.777,0,0,1,.558-3.757,3.757,3.757,0,0,1-1.589-6.494,3.758,3.758,0,0,1-.407-6.675,3.757,3.757,0,0,1,.793-6.639,3.754,3.754,0,0,1,1.964-6.388,3.783,3.783,0,0,1-.206-4.044,3.744,3.744,0,0,1,3.245-1.888h.033a3.779,3.779,0,0,1,.519-4.015,3.717,3.717,0,0,1,2.856-1.332,3.615,3.615,0,0,1,.707.068,3.774,3.774,0,0,1,1.228-3.857,3.717,3.717,0,0,1,2.371-.858,3.808,3.808,0,0,1,1.358.254,3.73,3.73,0,0,1,5.673-3.492,3.76,3.76,0,0,1,2.5-3.173,3.693,3.693,0,0,1,1.206-.2,3.731,3.731,0,0,1,2.494.962,3.717,3.717,0,0,1,5.88-1.913,3.713,3.713,0,0,1,6.157.532,3.718,3.718,0,0,1,6.585.937,3.722,3.722,0,0,1,6.31,2.113,3.729,3.729,0,0,1,5.831,3.218,3.718,3.718,0,0,1,3.981.609,3.777,3.777,0,0,1,1.182,3.608,3.729,3.729,0,0,1,3.808,1.317,3.781,3.781,0,0,1,.519,3.763,3.719,3.719,0,0,1,3.509,1.984,3.775,3.775,0,0,1-.16,3.794,3.754,3.754,0,0,1,2.263,6.287,3.76,3.76,0,0,1,1.105,6.6,3.757,3.757,0,0,1-.093,6.685,3.758,3.758,0,0,1-1.28,6.563,3.775,3.775,0,0,1,.628,4,3.736,3.736,0,0,1-3.06,2.225,3.779,3.779,0,0,1-.1,4.047,3.721,3.721,0,0,1-3.095,1.65c-.1,0-.208,0-.313-.013a3.774,3.774,0,0,1-.817,3.964,3.714,3.714,0,0,1-3.642,1,3.772,3.772,0,0,1-1.51,3.752,3.7,3.7,0,0,1-3.763.323,3.727,3.727,0,0,1-5.915,3.058,3.753,3.753,0,0,1-2.731,2.975,3.71,3.71,0,0,1-.941.122,3.762,3.762,0,0,1-2.692-1.157,3.721,3.721,0,0,1-6.609.76,3.745,3.745,0,0,1-3.2,1.836ZM86.339,347.8h.029a.191.191,0,0,1,.151.13,3.345,3.345,0,0,0,6.216.417.19.19,0,0,1,.167-.108h0a.19.19,0,0,1,.167.1,3.345,3.345,0,0,0,6.19-.712.189.189,0,0,1,.33-.068,3.381,3.381,0,0,0,2.623,1.273,3.337,3.337,0,0,0,.846-.11,3.375,3.375,0,0,0,2.494-2.98.189.189,0,0,1,.312-.127,3.353,3.353,0,0,0,2.21.833,3.28,3.28,0,0,0,1.41-.316,3.383,3.383,0,0,0,1.921-3.383.188.188,0,0,1,.086-.179.2.2,0,0,1,.2,0,3.335,3.335,0,0,0,3.652-.142,3.39,3.39,0,0,0,1.286-3.675.187.187,0,0,1,.054-.192.182.182,0,0,1,.194-.038,3.367,3.367,0,0,0,1.172.212,3.31,3.31,0,0,0,2.4-1.014,3.39,3.39,0,0,0,.611-3.845.191.191,0,0,1,.019-.2.186.186,0,0,1,.183-.074,3.358,3.358,0,0,0,3.37-1.432,3.4,3.4,0,0,0-.087-3.894.19.19,0,0,1,.152-.3,3.373,3.373,0,0,0,2.277-5.832.2.2,0,0,1-.052-.192.187.187,0,0,1,.147-.133,3.375,3.375,0,0,0,1.2-6.146.192.192,0,0,1-.087-.18.19.19,0,0,1,.121-.158,3.376,3.376,0,0,0,.085-6.263.191.191,0,0,1-.026-.338,3.376,3.376,0,0,0-1.035-6.178.189.189,0,0,1-.143-.136.192.192,0,0,1,.058-.191,3.392,3.392,0,0,0,.971-3.545,3.358,3.358,0,0,0-3.092-2.345.189.189,0,0,1-.143-.306,3.394,3.394,0,0,0,.323-3.663,3.346,3.346,0,0,0-2.964-1.789,3.134,3.134,0,0,0-.5.039.2.2,0,0,1-.182-.077.19.19,0,0,1-.013-.2,3.389,3.389,0,0,0-.336-3.66,3.345,3.345,0,0,0-3.716-1.1.188.188,0,0,1-.192-.044.19.19,0,0,1-.049-.194,3.391,3.391,0,0,0-.983-3.541,3.343,3.343,0,0,0-3.853-.407.189.189,0,0,1-.28-.188,3.391,3.391,0,0,0-1.6-3.308,3.318,3.318,0,0,0-1.72-.481,3.364,3.364,0,0,0-2.142.773.184.184,0,0,1-.2.027.187.187,0,0,1-.114-.162,3.373,3.373,0,0,0-2.164-2.964,3.313,3.313,0,0,0-1.18-.218,3.354,3.354,0,0,0-2.551,1.183.184.184,0,0,1-.193.06.241.241,0,0,1-.16-.144,3.342,3.342,0,0,0-6.106-.943.192.192,0,0,1-.171.091l-.1,0a.188.188,0,0,1-.163-.107,3.34,3.34,0,0,0-5.737-.515.187.187,0,0,1-.277.031,3.345,3.345,0,0,0-5.5,1.9.192.192,0,0,1-.134.148.186.186,0,0,1-.191-.054,3.356,3.356,0,0,0-2.461-1.082,3.273,3.273,0,0,0-1.083.183,3.377,3.377,0,0,0-2.267,3.159.189.189,0,0,1-.1.168.185.185,0,0,1-.2-.018,3.375,3.375,0,0,0-2.019-.677,3.323,3.323,0,0,0-1.63.429,3.385,3.385,0,0,0-1.665,3.517.189.189,0,0,1-.27.2,3.358,3.358,0,0,0-4.642,4.178.2.2,0,0,1-.039.2.191.191,0,0,1-.191.054,3.344,3.344,0,0,0-3.5,1.065,3.394,3.394,0,0,0-.323,3.881.193.193,0,0,1,0,.2.19.19,0,0,1-.178.087c-.112-.011-.224-.017-.336-.017a3.361,3.361,0,0,0-2.916,1.7,3.4,3.4,0,0,0,.374,3.877.194.194,0,0,1,.031.2.187.187,0,0,1-.16.116,3.373,3.373,0,0,0-1.839,5.984.193.193,0,0,1,.066.187.191.191,0,0,1-.136.144,3.375,3.375,0,0,0-.741,6.219.191.191,0,0,1,.1.172.183.183,0,0,1-.108.166,3.376,3.376,0,0,0,.38,6.252.191.191,0,0,1,.129.151.188.188,0,0,1-.077.183,3.376,3.376,0,0,0,1.49,6.084.185.185,0,0,1,.152.126.189.189,0,0,1-.044.194,3.4,3.4,0,0,0-.707,3.608,3.338,3.338,0,0,0,3.258,2.107.19.19,0,0,1,.165.3,3.4,3.4,0,0,0-.051,3.676,3.331,3.331,0,0,0,2.837,1.571,3.4,3.4,0,0,0,.743-.083.185.185,0,0,1,.187.064.189.189,0,0,1,.028.2,3.392,3.392,0,0,0,.606,3.626,3.344,3.344,0,0,0,3.788.816.185.185,0,0,1,.2.03.188.188,0,0,1,.062.188,3.392,3.392,0,0,0,1.244,3.458,3.311,3.311,0,0,0,2.015.681,3.347,3.347,0,0,0,1.857-.561.194.194,0,0,1,.2-.007.188.188,0,0,1,.1.175A3.384,3.384,0,0,0,76,346.82a3.286,3.286,0,0,0,1.5.36,3.344,3.344,0,0,0,2.329-.941.188.188,0,0,1,.317.112,3.374,3.374,0,0,0,2.379,2.794,3.319,3.319,0,0,0,.945.136,3.358,3.358,0,0,0,2.718-1.4.193.193,0,0,1,.152-.079ZM92.3,328.7a29.759,29.759,0,0,1-3.214-.224c-.329-.035-.675-.07-1.05-.107-11.66-1.25-18.788-7.234-18.606-15.613,0-.13.011-.256.018-.384l.009-.157a.19.19,0,0,1,.128-.17,4.1,4.1,0,0,0,2.263-5.887.183.183,0,0,1,0-.176.185.185,0,0,1,.143-.1,4.1,4.1,0,0,0,3.535-4.061l0-.071a.2.2,0,0,1,.094-.17.2.2,0,0,1,.195,0,4.047,4.047,0,0,0,2.131.609,4.1,4.1,0,0,0,3.986-3.239.19.19,0,0,1,.3-.108,4.063,4.063,0,0,0,6.517-2.156.183.183,0,0,1,.156-.139.187.187,0,0,1,.189.091,4.055,4.055,0,0,0,6.515.663.181.181,0,0,1,.169-.058.19.19,0,0,1,.143.108,4.057,4.057,0,0,0,6.407,1.384.183.183,0,0,1,.18-.038.19.19,0,0,1,.129.131,4.09,4.09,0,0,0,3.929,3.012,4,4,0,0,0,1.442-.269.187.187,0,0,1,.184.029.189.189,0,0,1,.072.169,4.34,4.34,0,0,0-.026.447,4.09,4.09,0,0,0,3.078,3.971.187.187,0,0,1,.12.1.185.185,0,0,1,.012.152,4.1,4.1,0,0,0,2.2,5.13.186.186,0,0,1,.112.151,15.16,15.16,0,0,1,.1,2.015c-.18,8.251-7.323,13.9-18.642,14.753a21.538,21.538,0,0,1-2.916.217Zm-22.473-16.34v.036c-.009.121-.018.243-.02.367-.176,8.166,6.822,14,18.267,15.229.373.037.721.074,1.052.106a29.491,29.491,0,0,0,3.173.222,21.473,21.473,0,0,0,2.876-.213c11.118-.836,18.126-6.346,18.3-14.385a14.529,14.529,0,0,0-.085-1.856,4.489,4.489,0,0,1-2.566-4.057,4.541,4.541,0,0,1,.2-1.311,4.47,4.47,0,0,1-3.167-4.286c0-.062,0-.126.005-.193a4.386,4.386,0,0,1-1.3.2,4.467,4.467,0,0,1-4.208-3.016,4.432,4.432,0,0,1-6.658-1.451,4.428,4.428,0,0,1-6.7-.579,4.438,4.438,0,0,1-6.77,2.141,4.483,4.483,0,0,1-4.285,3.253,4.4,4.4,0,0,1-2.043-.5A4.487,4.487,0,0,1,72.3,306.21a4.484,4.484,0,0,1-2.476,6.152Z" transform="translate(-44.606 -259.953)" fill="#808184"/>
    <path id="패스_315" data-name="패스 315" d="M66.918,292.853a22.282,22.282,0,0,1-7.406,7.411c3.028,1.529,6.813,1.9,9.27-.883a7.642,7.642,0,0,0,1.846-4.337c.123-2.064-.734-1.752-2.041-2.753" transform="translate(-43.417 -256.21)" fill="#ffbf9e"/>
    <path id="패스_316" data-name="패스 316" d="M64.1,301.67a10.294,10.294,0,0,1-4.612-1.213l-.312-.156.3-.177a21.925,21.925,0,0,0,7.343-7.35l.318.207a22.438,22.438,0,0,1-7.165,7.289c1.646.766,5.867,2.244,8.731-.991a7.47,7.47,0,0,0,1.8-4.22c.083-1.391-.257-1.577-1-1.983a6.872,6.872,0,0,1-.965-.607l.229-.3a6.734,6.734,0,0,0,.918.575c.78.426,1.294.708,1.2,2.341a7.876,7.876,0,0,1-1.894,4.451,6.33,6.33,0,0,1-4.884,2.138Z" transform="translate(-43.481 -256.234)" fill="#c38b76"/>
    <path id="패스_317" data-name="패스 317" d="M105.96,291.681a22.208,22.208,0,0,0,8.779,5.7c-2.644,2.132-6.271,3.282-9.25,1.08a7.627,7.627,0,0,1-2.7-3.853c-.547-2,.356-1.869,1.426-3.121" transform="translate(-35.178 -256.365)" fill="#ffbf9e"/>
    <path id="패스_318" data-name="패스 318" d="M109.133,299.859a6.179,6.179,0,0,1-3.726-1.23,7.85,7.85,0,0,1-2.774-3.957c-.434-1.577.012-1.959.686-2.54a6.592,6.592,0,0,0,.778-.754l.287.249a7.1,7.1,0,0,1-.821.8c-.642.553-.936.806-.567,2.15a7.46,7.46,0,0,0,2.634,3.751c3.469,2.566,7.291.235,8.743-.86a22.37,22.37,0,0,1-8.518-5.628l.267-.269a21.831,21.831,0,0,0,8.7,5.651l.33.111-.272.219a9.343,9.343,0,0,1-5.753,2.314Z" transform="translate(-35.208 -256.385)" fill="#c38b76"/>
    <path id="패스_319" data-name="패스 319" d="M104.826,309.649A4.425,4.425,0,1,1,100.5,305.1,4.437,4.437,0,0,1,104.826,309.649Z" transform="translate(-36.448 -253.762)" fill="#ff8189"/>
    <path id="패스_320" data-name="패스 320" d="M100.532,312.451a4.253,4.253,0,0,1-1.345-.214,3.072,3.072,0,0,1-1.907-3.884c.446-1.5,1.856-2.237,4.17-2.19a.133.133,0,0,1,.131.137.124.124,0,0,1-.136.131c-2.19-.043-3.5.625-3.908,2a2.807,2.807,0,0,0,1.736,3.552,3.465,3.465,0,0,0,3.652-.779,2.605,2.605,0,0,0,.516-2.212,1.686,1.686,0,0,0-.99-1.205,3.052,3.052,0,0,0-3.224.462,1.4,1.4,0,0,0-.3,1.448,2.234,2.234,0,0,0,1.6,1.466,1.364,1.364,0,0,0,1.494-.983.838.838,0,0,0-.594-1.077c-.468-.173-.8-.129-.941.126a.742.742,0,0,0,.167.854c.193.15.4.023.537-.112a.133.133,0,1,1,.183.193.631.631,0,0,1-.886.131,1.009,1.009,0,0,1-.237-1.2c.1-.179.42-.561,1.268-.249a1.105,1.105,0,0,1,.76,1.4,1.62,1.62,0,0,1-1.8,1.177,2.485,2.485,0,0,1-1.8-1.65,1.655,1.655,0,0,1,.356-1.715,3.28,3.28,0,0,1,3.521-.524,1.942,1.942,0,0,1,1.145,1.389,2.874,2.874,0,0,1-.571,2.449,3.339,3.339,0,0,1-2.6,1.074Z" transform="translate(-36.226 -253.56)" fill="#f5978d"/>
    <path id="패스_321" data-name="패스 321" d="M77.08,309.137a4.425,4.425,0,1,1-4.326-4.545,4.436,4.436,0,0,1,4.326,4.545Z" transform="translate(-268.751 26.141)" fill="#ff8189"/>
    <path id="패스_322" data-name="패스 322" d="M72.787,311.94a4.256,4.256,0,0,1-1.345-.214,3.071,3.071,0,0,1-1.907-3.883c.446-1.506,1.859-2.238,4.168-2.192a.132.132,0,0,1,.13.136.128.128,0,0,1-.136.131c-2.188-.048-3.5.624-3.907,2a2.808,2.808,0,0,0,1.736,3.552,3.466,3.466,0,0,0,3.652-.777,2.608,2.608,0,0,0,.516-2.214,1.693,1.693,0,0,0-.989-1.205,3.063,3.063,0,0,0-3.226.462,1.4,1.4,0,0,0-.3,1.448,2.236,2.236,0,0,0,1.6,1.469,1.367,1.367,0,0,0,1.494-.985.837.837,0,0,0-.595-1.074c-.468-.173-.8-.127-.943.128a.741.741,0,0,0,.167.854c.193.15.4.023.54-.112a.131.131,0,0,1,.189.006.134.134,0,0,1-.006.189.632.632,0,0,1-.886.131,1.013,1.013,0,0,1-.237-1.2c.1-.18.418-.563,1.268-.25a1.109,1.109,0,0,1,.76,1.4,1.619,1.619,0,0,1-1.8,1.177,2.479,2.479,0,0,1-1.8-1.65,1.659,1.659,0,0,1,.358-1.716,3.289,3.289,0,0,1,3.522-.524,1.947,1.947,0,0,1,1.145,1.39,2.881,2.881,0,0,1-.571,2.45A3.334,3.334,0,0,1,72.787,311.94Z" transform="translate(-41.53 -253.657)" fill="#f5978d"/>
    <path id="패스_323" data-name="패스 323" d="M94.938,297.7a5.492,5.492,0,1,1-5.745,5.195,5.483,5.483,0,0,1,5.745-5.195Z" transform="translate(-37.746 -255.178)" fill="#fff"/>
    <path id="패스_324" data-name="패스 324" d="M93.666,299.685a3.1,3.1,0,1,1-3.25,2.937,3.1,3.1,0,0,1,3.25-2.937Z" transform="translate(-37.511 -254.797)" fill="#231f20"/>
    <path id="패스_325" data-name="패스 325" d="M95.067,300.962a.787.787,0,1,1-.822.744A.783.783,0,0,1,95.067,300.962Z" transform="translate(-36.779 -254.553)" fill="#fff"/>
    <path id="패스_326" data-name="패스 326" d="M78.5,297.341a5.492,5.492,0,1,0,5.513,5.442,5.48,5.48,0,0,0-5.513-5.442Z" transform="translate(-40.822 -255.245)" fill="#fff"/>
    <path id="패스_327" data-name="패스 327" d="M78.906,299.363a3.1,3.1,0,1,0,3.12,3.076,3.1,3.1,0,0,0-3.12-3.076Z" transform="translate(-40.295 -254.859)" fill="#231f20"/>
    <path id="패스_328" data-name="패스 328" d="M76.7,300.559a.787.787,0,1,0,.789.78A.787.787,0,0,0,76.7,300.559Z" transform="translate(-40.281 -254.63)" fill="#fff"/>
    <path id="패스_329" data-name="패스 329" d="M86.906,310.023a1.1,1.1,0,0,1-.813-.424,3.09,3.09,0,0,1-.391-1.971,4.51,4.51,0,0,0-.114-1.31.189.189,0,1,1,.356-.125,4.677,4.677,0,0,1,.136,1.438,2.914,2.914,0,0,0,.294,1.714c.228.251.444.343.657.284.49-.132.931-1.005,1.046-1.557a.185.185,0,0,1,.224-.145.188.188,0,0,1,.145.225c-.108.515-.574,1.641-1.318,1.845a.906.906,0,0,1-.222.03Z" transform="translate(-38.435 -253.578)"/>
    <path id="패스_330" data-name="패스 330" d="M85.233,309.82a1.344,1.344,0,0,1-.96-.4,2.193,2.193,0,0,1-.593-1.515.19.19,0,0,1,.189-.186h0a.188.188,0,0,1,.185.194,1.788,1.788,0,0,0,.479,1.236.961.961,0,0,0,.74.291c.371-.014.494-.3.666-.773.048-.131.1-.26.152-.38a.189.189,0,1,1,.341.161c-.051.111-.1.231-.139.35-.163.443-.365.995-1.006,1.023Z" transform="translate(-38.798 -253.262)"/>
    <path id="패스_331" data-name="패스 331" d="M85.705,304.185c2.221-.21,3.271.5,2.179,2.073s-1.722,1.417-1.722,1.417-2.38-1.118-2.379-2.425S85.705,304.185,85.705,304.185Z" transform="translate(-38.778 -253.944)" fill="#ec0044"/>
    <path id="패스_332" data-name="패스 332" d="M69.808,289.064a.3.3,0,0,0,.42.124.41.41,0,0,0,.149-.548.474.474,0,0,0-.659-.194.645.645,0,0,0-.233.859.741.741,0,0,0,1.03.3,1.009,1.009,0,0,0,.365-1.34,1.159,1.159,0,0,0-1.609-.474,1.572,1.572,0,0,0-.569,2.093,1.812,1.812,0,0,0,2.514.74,2.457,2.457,0,0,0,.89-3.268,2.826,2.826,0,0,0-3.928-1.157,3.833,3.833,0,0,0-1.389,5.108,4.417,4.417,0,0,0,6.137,1.807,5.993,5.993,0,0,0,2.171-7.982,5.787,5.787,0,0,0-6.224-3.162c-4.63.6-8.25,6.175-6.078,10.692s11.388,8.2,15.486.905c3.84-6.84-.363-8.113-1.677-6.369a5.514,5.514,0,0,0-1.024,2.519" transform="translate(-42.913 -258.195)" fill="#72d0eb"/>
    <path id="패스_333" data-name="패스 333" d="M71.527,297.925c-.094,0-.189,0-.284,0-3.483-.112-7.257-2.37-8.589-5.142a7.291,7.291,0,0,1,.308-6.662,8.165,8.165,0,0,1,5.917-4.3,6.025,6.025,0,0,1,6.422,3.278,6.162,6.162,0,0,1,.73,2.741,5.237,5.237,0,0,1,.453-.717,1.96,1.96,0,0,1,2.606-.47c.573.379,2.219,2-.615,7.048a7.753,7.753,0,0,1-6.948,4.233Zm-1.635-15.8a7.272,7.272,0,0,0-.965.065,7.771,7.771,0,0,0-5.633,4.1,6.913,6.913,0,0,0-.3,6.315c1.277,2.657,4.9,4.822,8.261,4.929a7.288,7.288,0,0,0,6.89-4.037c2.123-3.781,1.773-5.858.736-6.543a1.58,1.58,0,0,0-2.1.381,5.293,5.293,0,0,0-.841,1.725,6.178,6.178,0,0,1-.134.606c-.009.057-.013.091-.013.093a.19.19,0,0,1-.046.107,5.993,5.993,0,0,1-2.7,3.435,4.514,4.514,0,0,1-3.535.449,4.7,4.7,0,0,1-2.863-2.331,4.031,4.031,0,0,1,1.461-5.363,2.956,2.956,0,0,1,2.316-.293,3.071,3.071,0,0,1,1.872,1.523,2.647,2.647,0,0,1-.962,3.523,1.952,1.952,0,0,1-1.534.193A2.026,2.026,0,0,1,68.563,290a1.765,1.765,0,0,1,.64-2.348,1.32,1.32,0,0,1,1.035-.131,1.367,1.367,0,0,1,.835.679,1.2,1.2,0,0,1-.437,1.595.918.918,0,0,1-.716.089.935.935,0,0,1-.574-.468.834.834,0,0,1,.3-1.111.648.648,0,0,1,.51-.064.669.669,0,0,1,.409.332.6.6,0,0,1-.222.8.486.486,0,0,1-.38.048.5.5,0,0,1-.3-.247.191.191,0,0,1,.077-.257A.188.188,0,0,1,70,289a.122.122,0,0,0,.073.061.106.106,0,0,0,.086-.011.218.218,0,0,0,.077-.293.3.3,0,0,0-.18-.148.286.286,0,0,0-.218.027.45.45,0,0,0-.162.6.563.563,0,0,0,.345.282.535.535,0,0,0,.422-.054.814.814,0,0,0,.294-1.083,1,1,0,0,0-.606-.494.941.941,0,0,0-.743.094,1.382,1.382,0,0,0-.5,1.838,1.658,1.658,0,0,0,1.009.823,1.6,1.6,0,0,0,1.242-.157,2.262,2.262,0,0,0,.817-3.014,2.7,2.7,0,0,0-1.643-1.34,2.584,2.584,0,0,0-2.023.257,3.647,3.647,0,0,0-1.318,4.853,4.31,4.31,0,0,0,2.634,2.144,4.145,4.145,0,0,0,3.243-.411,5.621,5.621,0,0,0,2.577-3.384,5.379,5.379,0,0,1,.136-.618,5.857,5.857,0,0,0-.615-3.725,5.483,5.483,0,0,0-5.067-3.128Z" transform="translate(-42.944 -258.225)" fill="#00add8"/>
    <path id="패스_334" data-name="패스 334" d="M69.66,286.175a.463.463,0,0,1-.07-.007.139.139,0,0,1-.1-.166.136.136,0,0,1,.165-.1c.149.029.574-.419.774-.768a3.776,3.776,0,0,0,.31-2.792.139.139,0,1,1,.272-.061,4.047,4.047,0,0,1-.341,2.993c-.108.189-.607.91-1.008.91Z" transform="translate(-41.512 -258.145)" fill="#00add8"/>
    <path id="패스_335" data-name="패스 335" d="M67.142,286.494a.2.2,0,0,1-.154-.1l0,0a.144.144,0,0,1-.033-.174.231.231,0,0,1,.018-.027c-.119-.928-.975-1.727-2.544-2.386a.14.14,0,0,1,.106-.258c1.773.746,2.691,1.683,2.727,2.786a.166.166,0,0,1-.1.158.078.078,0,0,1-.029,0Z" transform="translate(-42.493 -257.884)" fill="#00add8"/>
    <path id="패스_336" data-name="패스 336" d="M64.491,292a6.693,6.693,0,0,1-1.376-.2l-.136-.027a.141.141,0,0,1-.108-.164.138.138,0,0,1,.165-.108l.136.027a3.069,3.069,0,0,0,2.678-.239,3.3,3.3,0,0,0,1.02-1.071.139.139,0,0,1,.244.135,3.53,3.53,0,0,1-1.108,1.166,2.575,2.575,0,0,1-1.516.479Z" transform="translate(-42.776 -256.621)" fill="#00add8"/>
    <path id="패스_337" data-name="패스 337" d="M67.675,295.5a.141.141,0,0,1-.044-.274c.971-.323.971-2.469.971-3.386v-.068a.139.139,0,1,1,.279,0v.068c0,1.06,0,3.265-1.162,3.652A.116.116,0,0,1,67.675,295.5Z" transform="translate(-41.884 -256.337)" fill="#00add8"/>
    <path id="패스_338" data-name="패스 338" d="M72.767,295.332a.141.141,0,0,1-.061-.014.143.143,0,0,1-.064-.188,2.613,2.613,0,0,0-.022-1.448c-.123-.615-.9-2.123-1.52-2.123a.14.14,0,0,1,0-.28c.868,0,1.672,1.744,1.793,2.347a2.8,2.8,0,0,1,0,1.629.137.137,0,0,1-.125.077Z" transform="translate(-41.229 -256.404)" fill="#00add8"/>
    <path id="패스_339" data-name="패스 339" d="M76.009,292.6a.14.14,0,0,1-.139-.135,2.851,2.851,0,0,0-2.826-2.94.14.14,0,0,1,0-.28,3.151,3.151,0,0,1,3.1,3.209.14.14,0,0,1-.134.145h0Z" transform="translate(-40.858 -256.793)" fill="#00add8"/>
    <path id="패스_340" data-name="패스 340" d="M73.707,289.253a.15.15,0,0,1-.064-.014.139.139,0,0,1-.059-.188c.246-.48-.393-.937-.595-1.065-.708-.454-1.742-.641-2.09-.183a.137.137,0,0,1-.195.026.143.143,0,0,1-.026-.2c.463-.6,1.637-.407,2.461.117.672.43.931.965.692,1.431a.138.138,0,0,1-.123.075Z" transform="translate(-41.288 -257.172)" fill="#00add8"/>
    <path id="패스_341" data-name="패스 341" d="M70.278,292.311a.134.134,0,0,1-.1-.045.141.141,0,0,1,.009-.2,2.29,2.29,0,0,0,.134-1.744c-.119-.541-.334-.934-.547-1a.14.14,0,0,1,.083-.267c.455.142.666.891.734,1.207a2.46,2.46,0,0,1-.22,2.012.139.139,0,0,1-.094.036Z" transform="translate(-41.475 -256.83)" fill="#00add8"/>
    <path id="패스_342" data-name="패스 342" d="M67.014,291.526a.137.137,0,0,1-.11-.054.139.139,0,0,1,.024-.2c.663-.522,1.422-1.391,1.384-2.118a.139.139,0,0,1,.132-.148.134.134,0,0,1,.147.131A3.376,3.376,0,0,1,67.1,291.5.133.133,0,0,1,67.014,291.526Z" transform="translate(-42.01 -256.838)" fill="#00add8"/>
    <path id="패스_343" data-name="패스 343" d="M67.157,288.243a1.973,1.973,0,0,1-1.509-.625.139.139,0,0,1,.051-.191.141.141,0,0,1,.191.052,1.753,1.753,0,0,0,1.334.482c.185-.008.422-.058.5-.237a.139.139,0,1,1,.253.112.779.779,0,0,1-.743.4l-.083,0Z" transform="translate(-42.248 -257.143)" fill="#00add8"/>
    <path id="패스_344" data-name="패스 344" d="M68.81,287.095a.141.141,0,0,1-.092-.033,1.245,1.245,0,0,1-.283-1.217.892.892,0,0,1,.673-.7.136.136,0,0,1,.162.111.139.139,0,0,1-.112.163.645.645,0,0,0-.455.5.972.972,0,0,0,.195.934.138.138,0,0,1,.015.2.136.136,0,0,1-.106.05Z" transform="translate(-41.721 -257.577)" fill="#00add8"/>
    <path id="패스_345" data-name="패스 345" d="M70.568,289.049a.136.136,0,0,1-.136-.118,1.055,1.055,0,0,0-.918-.816.14.14,0,0,1-.02-.279,1.329,1.329,0,0,1,1.213,1.048.14.14,0,0,1-.114.161l-.024,0Z" transform="translate(-41.534 -257.062)" fill="#00add8"/>
    <path id="패스_346" data-name="패스 346" d="M69.708,282.479s-3.105.373-4.263,1.631a8.185,8.185,0,0,0-2.41,4.287c-.185,1.584-.046,2.237.51,2.237s-.231-6.569,6.163-8.153Z" transform="translate(-42.759 -258.086)" fill="#fff"/>
    <path id="패스_347" data-name="패스 347" d="M63.883,290.009a.371.371,0,1,1-.371-.373A.372.372,0,0,1,63.883,290.009Z" transform="translate(-42.724 -256.718)" fill="#fff"/>
    <path id="패스_348" data-name="패스 348" d="M103.5,288.506a.305.305,0,0,1-.4.189.412.412,0,0,1-.235-.517.476.476,0,0,1,.621-.3.645.645,0,0,1,.367.808.741.741,0,0,1-.967.466,1,1,0,0,1-.573-1.264,1.158,1.158,0,0,1,1.513-.725,1.57,1.57,0,0,1,.893,1.975,1.812,1.812,0,0,1-2.363,1.134,2.448,2.448,0,0,1-1.4-3.084,2.831,2.831,0,0,1,3.692-1.771,3.831,3.831,0,0,1,2.182,4.821,4.423,4.423,0,0,1-5.77,2.769,5.985,5.985,0,0,1-3.41-7.53,5.8,5.8,0,0,1,5.642-4.121c4.667-.149,9.123,4.771,7.7,9.579s-9.94,9.923-15.145,3.378c-4.876-6.137-.931-8.066.644-6.557a5.482,5.482,0,0,1,1.411,2.324" transform="translate(-36.923 -258.301)" fill="#72d0eb"/>
    <path id="패스_349" data-name="패스 349" d="M101.94,297.633a7.812,7.812,0,0,1-6.208-3.173c-3.6-4.525-2.23-6.394-1.725-6.86a1.962,1.962,0,0,1,2.648.048,5.2,5.2,0,0,1,.563.638,6.18,6.18,0,0,1,.288-2.843,6.028,6.028,0,0,1,5.814-4.248,8.115,8.115,0,0,1,6.523,3.3,7.28,7.28,0,0,1,1.361,6.526c-.873,2.952-4.239,5.788-7.661,6.457a8.285,8.285,0,0,1-1.6.158ZM95.3,287.488a1.52,1.52,0,0,0-1.033.393c-.914.841-.931,2.948,1.766,6.34a7.275,7.275,0,0,0,7.444,2.879c3.3-.644,6.533-3.365,7.372-6.191a6.913,6.913,0,0,0-1.3-6.188,7.764,7.764,0,0,0-6.212-3.148,5.641,5.641,0,0,0-5.464,3.977,5.888,5.888,0,0,0-.013,3.809,5.205,5.205,0,0,1,.218.555,5.6,5.6,0,0,0,3.087,2.943,4.142,4.142,0,0,0,3.267-.114,4.336,4.336,0,0,0,2.258-2.54,3.644,3.644,0,0,0-2.071-4.58,2.575,2.575,0,0,0-2.037.07,2.707,2.707,0,0,0-1.412,1.585,2.262,2.262,0,0,0,1.284,2.843,1.588,1.588,0,0,0,1.252-.044,1.657,1.657,0,0,0,.866-.974,1.379,1.379,0,0,0-.784-1.735.946.946,0,0,0-.747.026,1,1,0,0,0-.519.585.813.813,0,0,0,.461,1.023.543.543,0,0,0,.425-.016.574.574,0,0,0,.3-.334.452.452,0,0,0-.256-.568.272.272,0,0,0-.218.007.3.3,0,0,0-.156.175.22.22,0,0,0,.123.276.1.1,0,0,0,.087,0,.127.127,0,0,0,.064-.071.189.189,0,1,1,.357.125.5.5,0,0,1-.261.292.482.482,0,0,1-.381.013.6.6,0,0,1-.347-.756.679.679,0,0,1,.351-.4.665.665,0,0,1,.515-.018.835.835,0,0,1,.476,1.048.946.946,0,0,1-.493.555.915.915,0,0,1-.719.026,1.2,1.2,0,0,1-.683-1.5,1.379,1.379,0,0,1,.716-.805,1.321,1.321,0,0,1,1.042-.037,1.765,1.765,0,0,1,1.005,2.215,2.044,2.044,0,0,1-1.064,1.195,1.949,1.949,0,0,1-1.546.054,2.646,2.646,0,0,1-1.508-3.324,3.087,3.087,0,0,1,1.607-1.807,2.958,2.958,0,0,1,2.333-.081,4.028,4.028,0,0,1,2.294,5.06,4.72,4.72,0,0,1-2.456,2.761,4.51,4.51,0,0,1-3.56.123,5.973,5.973,0,0,1-3.21-2.956.188.188,0,0,1-.066-.1s-.011-.041-.033-.107c-.079-.175-.149-.354-.213-.537a5.316,5.316,0,0,0-1.114-1.59,1.585,1.585,0,0,0-1.1-.436Z" transform="translate(-36.954 -258.332)" fill="#00add8"/>
    <path id="패스_350" data-name="패스 350" d="M100.789,285.779a.351.351,0,0,0,.066-.019.14.14,0,0,0-.1-.26c-.141.054-.635-.322-.884-.634a3.767,3.767,0,0,1-.751-2.706.139.139,0,1,0-.277-.017,4.035,4.035,0,0,0,.811,2.9C99.786,285.212,100.392,285.841,100.789,285.779Z" transform="translate(-35.903 -258.175)" fill="#00add8"/>
    <path id="패스_351" data-name="패스 351" d="M103.479,285.722a.2.2,0,0,0,.136-.125h-.006a.145.145,0,0,0,.006-.18l-.021-.024c-.03-.935.687-1.859,2.132-2.765a.139.139,0,1,0-.149-.236c-1.632,1.021-2.387,2.093-2.25,3.189a.166.166,0,0,0,.122.141h.031Z" transform="translate(-35.046 -258.106)" fill="#00add8"/>
    <path id="패스_352" data-name="패스 352" d="M107.245,290.622a6.876,6.876,0,0,0,1.327-.411l.131-.05a.142.142,0,0,0,.08-.181.136.136,0,0,0-.18-.08l-.13.05a3.069,3.069,0,0,1-2.681.194,3.314,3.314,0,0,1-1.178-.891.138.138,0,0,0-.2-.025.142.142,0,0,0-.024.2,3.537,3.537,0,0,0,1.279.974,2.566,2.566,0,0,0,1.571.228Z" transform="translate(-34.844 -256.801)" fill="#00add8"/>
    <path id="패스_353" data-name="패스 353" d="M104.2,294.668a.141.141,0,0,0,0-.276c-1.011-.164-1.351-2.281-1.5-3.185l-.011-.069a.139.139,0,1,0-.274.044l.011.069c.168,1.046.516,3.222,1.726,3.417A.137.137,0,0,0,104.2,294.668Z" transform="translate(-35.217 -256.453)" fill="#00add8"/>
    <path id="패스_354" data-name="패스 354" d="M99.181,295.35a.14.14,0,0,0,.092-.219,2.618,2.618,0,0,1-.207-1.434c.024-.628.551-2.241,1.164-2.341a.14.14,0,0,0-.044-.276c-.857.138-1.373,1.989-1.4,2.6a2.8,2.8,0,0,0,.259,1.608A.142.142,0,0,0,99.181,295.35Z" transform="translate(-35.913 -256.442)" fill="#00add8"/>
    <path id="패스_355" data-name="패스 355" d="M95.735,293.171a.139.139,0,0,0,.116-.155,2.86,2.86,0,0,1,2.323-3.357.139.139,0,1,0-.044-.275,3.158,3.158,0,0,0-2.555,3.666.141.141,0,0,0,.156.123h.006Z" transform="translate(-36.53 -256.766)" fill="#00add8"/>
    <path id="패스_356" data-name="패스 356" d="M97.521,289.482a.155.155,0,0,0,.061-.026.139.139,0,0,0,.029-.2c-.319-.434.239-.99.417-1.148.628-.561,1.619-.911,2.035-.517a.139.139,0,0,0,.2,0,.141.141,0,0,0-.005-.2c-.551-.522-1.681-.142-2.412.51-.6.531-.767,1.1-.455,1.522a.139.139,0,0,0,.134.055Z" transform="translate(-36.207 -257.193)" fill="#00add8"/>
    <path id="패스_357" data-name="패스 357" d="M101.025,291.967a.139.139,0,0,0,.055-.254,2.308,2.308,0,0,1-.411-1.7c.033-.554.182-.977.382-1.077a.142.142,0,0,0,.062-.188.138.138,0,0,0-.187-.062c-.426.213-.516.987-.535,1.31-.044.766.127,1.683.536,1.95A.135.135,0,0,0,101.025,291.967Z" transform="translate(-35.605 -256.902)" fill="#00add8"/>
    <path id="패스_358" data-name="패스 358" d="M104.277,290.632a.136.136,0,0,0,.1-.07.139.139,0,0,0-.055-.189c-.736-.41-1.625-1.146-1.7-1.87a.136.136,0,0,0-.152-.123.134.134,0,0,0-.123.152c.088.83,1.011,1.622,1.845,2.086a.137.137,0,0,0,.089.014Z" transform="translate(-35.231 -256.958)" fill="#00add8"/>
    <path id="패스_359" data-name="패스 359" d="M103.713,287.451a1.977,1.977,0,0,0,1.386-.86.139.139,0,1,0-.26-.1,1.761,1.761,0,0,1-1.241.692c-.183.02-.428.01-.534-.155a.139.139,0,0,0-.233.152.783.783,0,0,0,.8.281l.081-.011Z" transform="translate(-35.142 -257.336)" fill="#00add8"/>
    <path id="패스_360" data-name="패스 360" d="M101.669,286.567a.134.134,0,0,0,.085-.048,1.251,1.251,0,0,0,.086-1.25.889.889,0,0,0-.774-.585.141.141,0,0,0-.007.281.638.638,0,0,1,.529.42.97.97,0,0,1-.046.952.142.142,0,0,0,.017.2A.139.139,0,0,0,101.669,286.567Z" transform="translate(-35.502 -257.664)" fill="#00add8"/>
    <path id="패스_361" data-name="패스 361" d="M100.292,288.794a.14.14,0,0,0,.116-.138,1.055,1.055,0,0,1,.778-.953.14.14,0,0,0-.024-.279,1.331,1.331,0,0,0-1.032,1.232.139.139,0,0,0,.138.139h.024Z" transform="translate(-35.654 -257.141)" fill="#00add8"/>
    <path id="패스_362" data-name="패스 362" d="M100.982,282s3.124-.131,4.467.924a8.161,8.161,0,0,1,3.06,3.844c.435,1.533.4,2.2-.149,2.291S107.548,282.537,100.982,282Z" transform="translate(-35.491 -258.178)" fill="#fff"/>
    <path id="패스_363" data-name="패스 363" d="M106.968,288.661a.371.371,0,1,0,.306-.428A.371.371,0,0,0,106.968,288.661Z" transform="translate(-34.348 -256.987)" fill="#fff"/>
    <path id="패스_364" data-name="패스 364" d="M96.409,338.785c0,.026.005.052.009.08.24,2.63,2.256,3.118,3.663.736a7.036,7.036,0,0,0,.776-2.013,7.3,7.3,0,0,1-2.674,1.314A5.018,5.018,0,0,1,96.409,338.785Z" transform="translate(-36.365 -247.552)" fill="#ff495c"/>
    <path id="패스_365" data-name="패스 365" d="M98.1,341.326c-.954,0-1.659-.941-1.791-2.4l-.028-.258.178.035a5.419,5.419,0,0,0,1.723.117,7.1,7.1,0,0,0,2.621-1.292l.288-.21-.08.349a7.122,7.122,0,0,1-.792,2.051A2.742,2.742,0,0,1,98.1,341.326ZM96.584,339c.141,1.253.729,2.056,1.516,2.056.648,0,1.338-.537,1.89-1.475a6.56,6.56,0,0,0,.674-1.628,6.949,6.949,0,0,1-2.432,1.129,5.076,5.076,0,0,1-1.65-.082Z" transform="translate(-36.389 -247.604)" fill="#88354d"/>
    <path id="패스_366" data-name="패스 366" d="M100.609,328.47l-5.752.746a75.153,75.153,0,0,1,1.848,11.311,5.015,5.015,0,0,0,1.775.116,7.321,7.321,0,0,0,2.674-1.314C101.935,335.924,100.8,331.585,100.609,328.47Z" transform="translate(-36.662 -249.295)" fill="#ffbf9e"/>
    <path id="패스_367" data-name="패스 367" d="M98.042,340.909a7.367,7.367,0,0,1-1.336-.16l-.138-.029-.013-.142A74.289,74.289,0,0,0,94.713,329.3l-.051-.206,6.163-.8.013.2c.057.935.2,1.983.352,3.091.348,2.537.742,5.414.189,7.82l-.017.069-.057.042a7.406,7.406,0,0,1-2.749,1.347,2.666,2.666,0,0,1-.512.044Zm-1.125-.507a6.387,6.387,0,0,0,1.125.127,2.393,2.393,0,0,0,.439-.037,6.981,6.981,0,0,0,2.542-1.24c.512-2.325.129-5.134-.211-7.614-.143-1.037-.277-2.021-.341-2.917l-5.343.693A74.75,74.75,0,0,1,96.917,340.4Z" transform="translate(-36.699 -249.329)" fill="#c38b76"/>
    <path id="패스_368" data-name="패스 368" d="M75.9,338.759a13.586,13.586,0,0,1-2.413-1.055,7.217,7.217,0,0,0,.828,2.248c1.408,2.382,3.423,1.892,3.663-.736.009-.107.022-.212.031-.319a6.775,6.775,0,0,1-2.111-.135Z" transform="translate(-40.747 -247.53)" fill="#ff495c"/>
    <path id="패스_369" data-name="패스 369" d="M76.346,341.662a2.743,2.743,0,0,1-2.12-1.6,7.225,7.225,0,0,1-.844-2.291l-.053-.258.239.111c.224.1.455.222.69.339a7.73,7.73,0,0,0,1.7.708,6.67,6.67,0,0,0,2.068.132l.162-.017-.048.484c-.134,1.457-.837,2.4-1.791,2.4ZM73.7,337.979a6.778,6.778,0,0,0,.754,1.942c.554.935,1.242,1.472,1.89,1.472.808,0,1.406-.846,1.525-2.154l.017-.158a7.12,7.12,0,0,1-1.989-.151,7.886,7.886,0,0,1-1.762-.731l-.437-.219Z" transform="translate(-40.776 -247.567)" fill="#88354d"/>
    <path id="패스_370" data-name="패스 370" d="M74.115,328.785c-.185,3.043-1.276,7.258-.6,10.625a13.51,13.51,0,0,0,2.413,1.057,6.775,6.775,0,0,0,2.111.135,74.714,74.714,0,0,1,1.824-11.069l-5.752-.746Z" transform="translate(-40.782 -249.235)" fill="#ffbf9e"/>
    <path id="패스_371" data-name="패스 371" d="M77.462,340.857a7.43,7.43,0,0,1-1.538-.17,7.923,7.923,0,0,1-1.775-.735c-.231-.118-.461-.232-.679-.335l-.088-.042-.018-.094a23.869,23.869,0,0,1,.24-7.578c.152-1.11.3-2.159.352-3.1l.013-.2,6.163.8-.051.207A74.988,74.988,0,0,0,78.26,340.65l-.015.155-.154.017c-.206.02-.417.032-.63.032Zm-3.746-1.545c.2.092.4.2.6.3a7.719,7.719,0,0,0,1.683.7,6.735,6.735,0,0,0,1.9.145,75.443,75.443,0,0,1,1.764-10.733l-5.343-.693c-.064.9-.2,1.884-.341,2.921a24.064,24.064,0,0,0-.262,7.358Z" transform="translate(-40.813 -249.27)" fill="#c38b76"/>
    <path id="패스_372" data-name="패스 372" d="M88.35,272.206c.042.05,1.938.026,1.938.026s3.946-2.264,5.774-1.978,2.219.849,2.219,1.606a19.693,19.693,0,0,1-.336,3.961,3.107,3.107,0,0,1,1.676.7c.848.673,2.129,1.909,1.54,2.3s-2.5.017-2.854.492.125,2.488-.376,2.641-3.069-.829-4.935-3.345-2.562-2.775-2.562-2.775a8.766,8.766,0,0,1-1.982.039c-.587-.131-1.178,1.1-1.178,1.1a16.657,16.657,0,0,1-2.577,3.349c-1.309,1.166-2.705,2.05-3.226,1.832s-.846-1.344-.736-1.906a.827.827,0,0,0-.674-1.041c-.435-.044-2.329.168-2.285-.5s2.1-2.679,3.184-2.85a9.74,9.74,0,0,1-.123-3.876c.417-1.644.681-2.748,1.639-2.637a7.424,7.424,0,0,1,5.871,2.871Z" transform="translate(-39.927 -260.6)" fill="#ff495c"/>
    <path id="패스_373" data-name="패스 373" d="M87.328,271.822a3.839,3.839,0,0,1,1.147.088,14.4,14.4,0,0,1,3.816-1.7c1.705-.36,3.917-.631,4.175.631s.613,5.486-1.545,6.276-5.513-1.465-5.878-1.744.332-.345.332-.345,3.372,2.361,5.443,1.535c1.5-.6,1.837-4.545,1.074-5.429s-2.731-.8-4.4-.166a9.214,9.214,0,0,0-2.771,1.671A2.622,2.622,0,0,0,87.6,272.2C87.135,272.2,87.328,271.822,87.328,271.822Z" transform="translate(-38.108 -260.489)" fill="#88354d"/>
    <path id="패스_374" data-name="패스 374" d="M88.664,273.658s4.735-.854,6.714,1.8l-.088.278a4.127,4.127,0,0,0-2.364-1.494c-1.773-.522-4.3-.666-3.689.235s-.593.258-.661-.1-.259-.815.072-.674" transform="translate(-37.885 -259.797)" fill="#88354d"/>
    <path id="패스_375" data-name="패스 375" d="M88.924,272.157a4.672,4.672,0,0,1,.134,2.076c-.246.743.382.434.084,1.09s-1.288.413-1.707.412a1.122,1.122,0,0,1-1.285-1.247c.037-1.159-.272-2.906.477-2.94s1.044-.033,1.044-.033.486.381.156.38-.956-.157-1.167.447-.163,2.732.22,2.855c.7.223,1.966.384,1.933-.55s.143-2.369-.429-2.681S88.924,272.157,88.924,272.157Z" transform="translate(-38.332 -260.181)" fill="#88354d"/>
    <path id="패스_376" data-name="패스 376" d="M87.986,272.084a7.1,7.1,0,0,0-2.953-2.342c-2.052-.921-4.071-1.014-4.475.474s-1.195,5.534.446,6.652,5.35.607,6.763-1.153l-.182-.416s-2.876,2.071-5.432,1.494-1.45-5.428-1-6.308,3.137-1.782,6.416,1.936l.418-.337Z" transform="translate(-39.499 -260.649)" fill="#88354d"/>
    <path id="패스_377" data-name="패스 377" d="M87.393,273.839s-5.4-1.361-6.763,1.074l.233.389s1.729-2.488,6.477-1l.053-.467Z" transform="translate(-39.381 -259.81)" fill="#88354d"/>
    <path id="패스_378" data-name="패스 378" d="M80.861,274.483s-3.713,2.12-3.322,3.289,2.661.317,2.922.941-.059,2.829.541,2.96,3.553-1.316,5.045-3.544,2.643-3.133,3.166-3.106l-1.121-.392-.941.672s-1.235,3.682-4.109,4.973S81.556,279,81.061,278.3s-2.949-.006-2.87-.733,1.808-2.694,3.371-2.12l-.7-.961Z" transform="translate(-39.977 -259.614)" fill="#88354d"/>
    <path id="패스_379" data-name="패스 379" d="M96.281,274.371s3.7,2.137,3.307,3.3-2.663.3-2.926.928.046,2.829-.556,2.956-3.546-1.331-5.029-3.566-2.63-3.145-3.151-3.121L89,274.328l.991.835s1.219,3.687,4.087,4.991,1.49-1.267,1.988-1.967,2.949,0,2.872-.719-1.795-2.7-3.362-2.136l.707-.96Z" transform="translate(-37.986 -259.644)" fill="#88354d"/>
    <path id="패스_380" data-name="패스 380" d="M72.037,327.688c-1.56,2.557.962,4.875,3.3,3.191-1.261,3.526,4.2,3.5,4.161.743,1.628,3.344,5.9.544,4.225-1.881" transform="translate(-41.116 -249.445)" fill="#fff"/>
    <path id="패스_381" data-name="패스 381" d="M77.207,333.837a2.429,2.429,0,0,1-1.652-.585,1.956,1.956,0,0,1-.5-1.922,2.5,2.5,0,0,1-2.92-.278,2.636,2.636,0,0,1-.228-3.43.19.19,0,0,1,.323.2,2.271,2.271,0,0,0,.163,2.954,2.182,2.182,0,0,0,2.869-.019.184.184,0,0,1,.224,0,.19.19,0,0,1,.064.216,1.765,1.765,0,0,0,.264,2,2.374,2.374,0,0,0,2.457.261,1.673,1.673,0,0,0,1.072-1.578.189.189,0,0,1,.36-.087A2.245,2.245,0,0,0,81.661,333H81.7a2.387,2.387,0,0,0,2.034-1.226,1.754,1.754,0,0,0-.128-1.893.192.192,0,0,1,.048-.266.187.187,0,0,1,.263.048,2.144,2.144,0,0,1,.152,2.288,2.733,2.733,0,0,1-2.412,1.427,2.455,2.455,0,0,1-2-1.148,2.1,2.1,0,0,1-1.224,1.348,2.986,2.986,0,0,1-1.217.258Z" transform="translate(-41.147 -249.475)" fill="#808184"/>
    <path id="패스_382" data-name="패스 382" d="M92.1,329.486c-.428,2.971,2.8,4.1,4.287,1.616.229,3.74,5.24,1.546,4.113-.972,2.81,2.423,5.629-1.846,3.142-3.409" transform="translate(-37.196 -249.63)" fill="#fff"/>
    <path id="패스_383" data-name="패스 383" d="M98.188,333.323a2.022,2.022,0,0,1-.677-.112,1.949,1.949,0,0,1-1.217-1.569,2.5,2.5,0,0,1-2.791.908,2.629,2.629,0,0,1-1.558-3.061.192.192,0,0,1,.215-.161.19.19,0,0,1,.16.216,2.262,2.262,0,0,0,1.312,2.648,2.184,2.184,0,0,0,2.626-1.157.189.189,0,0,1,.351.087,1.757,1.757,0,0,0,1.031,1.731,2.371,2.371,0,0,0,2.358-.74,1.683,1.683,0,0,0,.363-1.877.19.19,0,0,1,.3-.223,2.239,2.239,0,0,0,2.362.535,2.4,2.4,0,0,0,1.42-1.949,1.753,1.753,0,0,0-.862-1.689.192.192,0,0,1-.061-.262.19.19,0,0,1,.261-.061,2.142,2.142,0,0,1,1.041,2.043,2.767,2.767,0,0,1-1.653,2.27,2.444,2.444,0,0,1-2.293-.258,2.1,2.1,0,0,1-.593,1.727,2.919,2.919,0,0,1-2.085.953Z" transform="translate(-37.226 -249.66)" fill="#808184"/>
    <path id="패스_384" data-name="패스 384" d="M62.783,313.749c-4.636.7-.066,6.317,1.67,2.8Z" transform="translate(-43.178 -252.109)" fill="#fff"/>
    <path id="패스_385" data-name="패스 385" d="M62.947,317.919a1.779,1.779,0,0,1-.464-.063,2.631,2.631,0,0,1-1.874-2.463c.029-.554.352-1.523,2.175-1.8a.19.19,0,0,1,.055.376c-1.154.175-1.813.688-1.854,1.445a2.261,2.261,0,0,0,1.593,2.075,1.478,1.478,0,0,0,1.733-.995.187.187,0,0,1,.253-.086.191.191,0,0,1,.086.255,1.944,1.944,0,0,1-1.705,1.255Z" transform="translate(-43.208 -252.139)" fill="#808184"/>
    <path id="패스_386" data-name="패스 386" d="M83.916,284.608c-2.47-1.5,1.951-4.772,3.483-.947-.213-1.614,1.742-2.376,2.964-1.622,1.43.883.707,3.553.046,2.943" transform="translate(-38.893 -258.226)" fill="#fff"/>
    <path id="패스_387" data-name="패스 387" d="M90.639,285.291a.482.482,0,0,1-.327-.141.188.188,0,0,1-.011-.267.186.186,0,0,1,.266-.012c.055.05.079.039.092.036.117-.046.312-.366.362-.9a1.886,1.886,0,0,0-.727-1.772,1.958,1.958,0,0,0-2.035.044,1.381,1.381,0,0,0-.642,1.392.189.189,0,0,1-.363.1c-.619-1.542-1.626-1.707-2.168-1.664a1.847,1.847,0,0,0-1.659,1.221,1.05,1.05,0,0,0,.617,1.155.191.191,0,0,1,.064.261.188.188,0,0,1-.259.064,1.429,1.429,0,0,1-.789-1.571,2.216,2.216,0,0,1,2-1.513,2.375,2.375,0,0,1,2.228,1.263,1.779,1.779,0,0,1,.767-1.027,2.343,2.343,0,0,1,2.439-.048,2.181,2.181,0,0,1,.9,2.13c-.042.473-.226,1.078-.6,1.226A.445.445,0,0,1,90.639,285.291Z" transform="translate(-38.924 -258.257)" fill="#808184"/>
    <path id="패스_388" data-name="패스 388" d="M109.2,308.9c3.536-.393,4.144,4.414.394,4.324.586,1.266,1.194,2.389-.014,3.552-.993.958-3.245,1.259-3.349-.6" transform="translate(-34.488 -253.041)" fill="#fff"/>
    <path id="패스_389" data-name="패스 389" d="M107.722,317.755a2,2,0,0,1-.725-.129,1.472,1.472,0,0,1-.927-1.411.189.189,0,1,1,.378-.02,1.115,1.115,0,0,0,.688,1.079,2.489,2.489,0,0,0,2.342-.605c1.055-1.017.613-1.963.054-3.164l-.079-.172a.189.189,0,0,1,.17-.27h0a2.207,2.207,0,0,0,2.14-.993,1.947,1.947,0,0,0-.132-1.986,2.414,2.414,0,0,0-2.388-.965.189.189,0,0,1-.208-.168.193.193,0,0,1,.167-.211,2.785,2.785,0,0,1,2.744,1.134,2.333,2.333,0,0,1,.148,2.38,2.418,2.418,0,0,1-2.18,1.186c.534,1.148,1.036,2.331-.18,3.5a3.084,3.084,0,0,1-2.017.814Z" transform="translate(-34.519 -253.071)" fill="#808184"/>
  </g>
</svg>
