<svg width="60" height="60" viewBox="0 0 60 60" fill="none" xmlns="http://www.w3.org/2000/svg">
<rect width="60" height="60" rx="30" fill="white"/>
<rect x="1" y="1" width="58" height="58" rx="29" fill="#B7B1DF"/>
<path d="M40.5851 19.4935L41.5136 22.2758L44.2173 23.3886L41.8694 25.1352L41.651 28.0614L39.2714 26.3586L36.4328 27.0543L37.31 24.2553L35.774 21.7591L38.6958 21.732L40.5851 19.4935Z" fill="#E9A8CB"/>
<path d="M46.3732 22.9947L46.8323 23.8127L47.7488 23.9984L47.116 24.6897L47.2234 25.6225L46.3732 25.2317L45.523 25.6225L45.6303 24.6897L44.9975 23.9984L45.9141 23.8127L46.3732 22.9947Z" fill="#E9A8CB"/>
<path d="M33.7168 19L34.2907 20.0225L35.4364 20.2547L34.6454 21.1188L34.7796 22.2847L33.7168 21.7963L32.6541 22.2847L32.7883 21.1188L31.9973 20.2547L33.143 20.0225L33.7168 19Z" fill="#E9A8CB"/>
<path d="M34.0785 25.5367L34.4228 26.1502L35.1102 26.2895L34.6356 26.808L34.7161 27.5076L34.0785 27.2145L33.4408 27.5076L33.5213 26.808L33.0467 26.2895L33.7341 26.1502L34.0785 25.5367Z" fill="#E9A8CB"/>
<path d="M20.8797 31.7103L21.511 32.8351L22.7712 33.0904L21.9011 34.0409L22.0487 35.3235L20.8797 34.7862L19.7107 35.3235L19.8583 34.0409L18.9882 33.0904L20.2484 32.8351L20.8797 31.7103Z" fill="white"/>
<path d="M16.2959 31.5825H14.6817V34.694H12V26.2354C12 24.732 12.4686 24.1698 14.0308 24.1698H16.2959C18.548 24.1698 20.2013 25.2941 20.2013 27.765V27.9873C20.2013 30.4582 18.548 31.5825 16.2959 31.5825ZM14.6817 26.8237V29.3077H16.1657C17.0379 29.3077 17.5326 28.654 17.5326 27.9219V27.8304C17.5326 27.0983 17.0379 26.4446 16.1657 26.4446H15.0592C14.7598 26.4446 14.6817 26.51 14.6817 26.8237Z" fill="white"/>
<path d="M27.5377 34.694H24.8299V26.4838H22.8382C22.0831 26.4838 21.7837 25.8563 21.7837 25.3203C21.7837 24.7843 22.0701 24.196 22.8382 24.196H29.5294C30.2975 24.196 30.5839 24.7843 30.5839 25.3203C30.5839 25.8563 30.2844 26.4838 29.5294 26.4838H27.5377V34.694Z" fill="white"/>
<path d="M31.9305 35.0223H30.4624V31.2092C30.4624 30.7298 30.8095 30.4829 31.1928 30.4829C31.4749 30.4829 31.7425 30.6209 31.8582 30.8823C32.133 30.6209 32.4874 30.4829 32.8707 30.4829C33.3118 30.4829 33.7385 30.6281 34.0423 30.9913C34.3388 30.679 34.7583 30.4829 35.3441 30.4829C36.2626 30.4829 37.0653 30.955 37.0653 32.4729V35.0223H35.5755V32.3858C35.5755 31.8919 35.2645 31.7248 35.0259 31.7248C34.7872 31.7248 34.469 31.8919 34.469 32.3858V35.0223H33.037V32.3858C33.037 31.8919 32.726 31.7248 32.4874 31.7248C32.2559 31.7248 31.945 31.8846 31.9305 32.3495V35.0223Z" fill="white"/>
<path d="M37.8013 35.0223V31.26C37.8013 30.7589 38.1413 30.5337 38.5463 30.5337C38.9513 30.5337 39.2912 30.7589 39.2912 31.26V35.0223H37.8013ZM37.7941 29.5532C37.7941 29.0738 38.1413 28.885 38.5463 28.885C38.9513 28.885 39.2984 29.0738 39.2984 29.5532C39.2984 30.0326 38.9513 30.2214 38.5463 30.2214C38.1413 30.2214 37.7941 30.0326 37.7941 29.5532Z" fill="white"/>
<path d="M41.5216 35.0223H40.0535V31.2092C40.0535 30.7298 40.4006 30.4829 40.7839 30.4829C41.066 30.4829 41.3336 30.6209 41.4565 30.8823C41.7386 30.6209 42.1291 30.4829 42.5124 30.4829C43.4309 30.4829 44.1614 30.9404 44.1614 32.4729V35.0223H42.6715V32.3858C42.6715 31.8919 42.3461 31.7248 42.1002 31.7248C41.8543 31.7248 41.5216 31.8919 41.5216 32.3858V35.0223Z" fill="white"/>
<path d="M49 35.0223H47.8501L47.7705 34.5502C47.4957 34.9206 47.0762 35.1457 46.5555 35.1457C45.6009 35.1457 44.7909 34.6736 44.7909 33.1411V32.4875C44.7909 30.955 45.6009 30.4829 46.5555 30.4829C46.9533 30.4829 47.2787 30.6136 47.5319 30.8242V29.6113C47.5319 29.1319 47.8862 28.885 48.2695 28.885C48.6528 28.885 49 29.1319 49 29.6113V35.0223ZM46.2807 32.3858V33.2428C46.2807 33.7367 46.6495 33.9038 46.9027 33.9038C47.1486 33.9038 47.5102 33.744 47.5319 33.2791V32.3495C47.5102 31.8846 47.1486 31.7248 46.9027 31.7248C46.6495 31.7248 46.2807 31.8919 46.2807 32.3858Z" fill="white"/>
</svg>
