<svg width="60" height="60" viewBox="0 0 60 60" fill="none" xmlns="http://www.w3.org/2000/svg">
<rect width="60" height="60" rx="30" fill="white"/>
<rect x="1" y="1" width="58" height="58" rx="29" fill="#807FFF"/>
<path d="M29.2552 32.7301L30.3958 34.731L32.6729 35.1853L31.1008 36.8762L31.3675 39.1579L29.2552 38.202L27.1429 39.1579L27.4096 36.8762L25.8374 35.1853L28.1145 34.731L29.2552 32.7301Z" fill="white"/>
<path d="M20.9728 32.5027H18.0561V38.0379H13.2106V22.9905C13.2106 20.3159 14.0574 19.3158 16.88 19.3158H20.9728C25.0421 19.3158 28.0294 21.3159 28.0294 25.7116V26.1069C28.0294 30.5026 25.0421 32.5027 20.9728 32.5027ZM18.0561 24.037V28.4559H20.7376C22.3136 28.4559 23.2074 27.2931 23.2074 25.9906V25.8278C23.2074 24.5254 22.3136 23.3626 20.7376 23.3626H18.7382C18.1972 23.3626 18.0561 23.4789 18.0561 24.037Z" fill="white"/>
<path d="M41.2854 38.0379H36.3928V23.4323H32.7939C31.4297 23.4323 30.8887 22.316 30.8887 21.3624C30.8887 20.4089 31.4061 19.3623 32.7939 19.3623H44.8842C46.272 19.3623 46.7895 20.4089 46.7895 21.3624C46.7895 22.316 46.2485 23.4323 44.8842 23.4323H41.2854V38.0379Z" fill="white"/>
</svg>
