<svg width="28" height="42" viewBox="0 0 28 42" fill="none" xmlns="http://www.w3.org/2000/svg">
<path d="M28 17.958C27.9192 18.3288 27.8461 18.7035 27.7576 19.0742C27.5421 19.9499 27.0418 20.6638 26.5223 21.3698C26.4261 21.5039 26.353 21.6932 26.353 21.8549C26.3414 23.7876 26.3453 25.7242 26.3453 27.6569C26.3453 27.7555 26.3453 27.858 26.3453 28C26.2722 27.929 26.2221 27.8896 26.1798 27.8422C25.7334 27.3334 25.2947 26.8167 24.8445 26.3119C24.2133 25.598 23.5707 24.892 22.9396 24.1781C22.8395 24.0637 22.7587 24.0479 22.624 24.0992C21.4156 24.537 20.1726 24.7697 18.8873 24.75C17.4404 24.7302 16.055 24.4305 14.7158 23.8546C13.7961 23.4563 12.9841 22.9041 12.226 22.2414C10.9676 21.145 10.271 19.7526 10.0209 18.0685C9.62453 18.0251 9.21661 18.0054 8.81639 17.9265C8.18912 17.8042 7.5657 17.6543 6.94997 17.4887C6.77295 17.4413 6.6729 17.4847 6.55745 17.607C6.06487 18.1197 5.56844 18.6325 5.06817 19.1373C4.50247 19.7014 3.92908 20.2575 3.3172 20.857V20.5297C3.3172 18.9875 3.30951 17.4453 3.3249 15.9031C3.3249 15.6349 3.24024 15.4732 3.05167 15.3036C1.80098 14.2031 0.835064 12.8976 0.380967 11.245C-0.354053 8.59051 0.142374 6.16481 1.80483 4.0231C2.50522 3.11988 3.36338 2.34681 4.34854 1.75912C5.96866 0.796732 7.71578 0.197211 9.59759 0.0512748C9.67455 0.0433864 9.75152 0.0197211 9.83233 0C10.4019 0 10.9714 0 11.541 0C11.6256 0.0197211 11.7141 0.0473306 11.7988 0.0512748C13.2573 0.17749 14.6388 0.571912 15.9703 1.19115C17.4673 1.88928 18.7257 2.90294 19.7224 4.22031C20.9808 5.88083 21.4888 7.79377 21.2617 9.8921C21.2386 10.109 21.2733 10.2076 21.5118 10.2589C22.4662 10.4601 23.3513 10.8466 24.2095 11.3238C25.4987 12.0338 26.4761 13.0751 27.2188 14.3372C27.5113 14.8342 27.646 15.4298 27.8346 15.9859C27.9115 16.2147 27.9385 16.4592 27.9885 16.6959V17.9541L28 17.958ZM4.96811 16.901C5.40682 16.4513 5.79549 16.0569 6.18032 15.6546C6.28037 15.5481 6.36504 15.5126 6.50357 15.5718C6.73062 15.6704 6.96921 15.7453 7.20396 15.8281C9.75921 16.7077 12.2875 16.6012 14.7928 15.6112C15.6548 15.272 16.4283 14.7632 17.1441 14.1795C18.4486 13.1185 19.2491 11.7104 19.6146 10.0538C19.834 9.06381 19.6916 8.09748 19.3684 7.13903C18.8027 5.46274 17.7482 4.21637 16.309 3.26976C14.8543 2.31526 13.2573 1.82617 11.5487 1.68024C9.78615 1.53036 8.08137 1.79067 6.46894 2.51641C5.74546 2.84378 5.04508 3.26581 4.40242 3.74306C3.10939 4.70545 2.27817 6.0386 1.84331 7.59656C1.52391 8.7325 1.59702 9.88421 2.03957 11.0123C2.58218 12.4046 3.37877 13.576 4.59483 14.4201C4.86806 14.6094 5.00659 14.8105 4.9835 15.1734C4.94502 15.7177 4.97196 16.266 4.97196 16.8931L4.96811 16.901ZM24.6674 23.6771C24.6905 23.6614 24.7175 23.6456 24.7406 23.6259C24.7406 22.9317 24.7675 22.2375 24.7329 21.5473C24.7098 21.1134 24.8406 20.8057 25.1215 20.4823C25.9605 19.512 26.4261 18.3722 26.326 17.0548C26.2144 15.6112 25.5641 14.4595 24.475 13.5326C23.4706 12.6807 22.3392 12.1442 21.0808 11.8445C20.9 11.8011 20.8153 11.8366 20.7383 12.018C20.4189 12.8029 20.011 13.5247 19.4492 14.1637C18.6834 15.0393 17.8483 15.8084 16.8477 16.4001C15.5509 17.1652 14.1732 17.6583 12.707 17.9028C12.3606 17.962 12.0143 18.0014 11.5794 18.0606C11.768 18.522 11.9181 18.952 12.1144 19.3582C12.6762 20.5336 13.5613 21.3855 14.6812 22.0087C15.978 22.7305 17.3596 23.0658 18.8181 23.1013C20.2842 23.1368 21.6735 22.7897 22.9934 22.1468C23.1666 22.064 23.2744 22.06 23.3975 22.2257C23.5514 22.4347 23.7362 22.624 23.9093 22.8212C24.1633 23.1092 24.4173 23.3932 24.6713 23.6811L24.6674 23.6771Z" fill="#B9B9FF"/>
<path d="M6.54574 9.81045H4.9823V8.20618H6.54574V9.81045Z" fill="#B9B9FF"/>
<path d="M9.88013 9.80651V8.20618H11.4436V9.80651H9.88013Z" fill="#B9B9FF"/>
<path d="M16.3603 8.20618V9.80651H14.7969V8.20618H16.3603Z" fill="#B9B9FF"/>
<path d="M6.222 32.609H7.322V32.873C7.322 34.985 6.706 37.108 5.078 38.043L4.253 36.943C5.705 36.096 6.222 34.435 6.222 32.873V32.609ZM6.508 32.609H7.608V32.873C7.608 34.402 8.136 35.953 9.577 36.723L8.785 37.801C7.135 36.943 6.508 34.952 6.508 32.873V32.609ZM4.594 31.509H9.225V32.686H4.594V31.509ZM6.222 30.134H7.608V32.455H6.222V30.134ZM11.876 29.793H13.262V39.979H11.876V29.793ZM10.655 33.698H12.349V34.886H10.655V33.698ZM9.687 29.947H11.051V39.517H9.687V29.947ZM15.1201 34.358H15.9891C18.0901 34.358 19.3111 34.336 20.7081 34.116L20.8511 35.249C19.4211 35.491 18.1341 35.513 15.9891 35.513H15.1201V34.358ZM15.1201 30.497H20.0151V31.652H16.5721V34.831H15.1201V30.497ZM16.1211 32.433H19.7181V33.555H16.1211V32.433ZM21.5551 29.804H23.0291V35.953H21.5551V29.804ZM19.5861 36.107C21.7311 36.107 23.0731 36.822 23.0731 38.043C23.0731 39.275 21.7311 39.979 19.5861 39.979C17.4301 39.979 16.0991 39.275 16.0991 38.043C16.0991 36.822 17.4301 36.107 19.5861 36.107ZM19.5861 37.229C18.2551 37.229 17.5621 37.493 17.5621 38.043C17.5621 38.604 18.2551 38.868 19.5861 38.868C20.9061 38.868 21.6101 38.604 21.6101 38.043C21.6101 37.493 20.9061 37.229 19.5861 37.229Z" fill="#B9B9FF"/>
</svg>
