<svg width="41" height="42" viewBox="0 0 41 42" fill="none" xmlns="http://www.w3.org/2000/svg">
<path d="M15.4082 8.325H7L13.8542 13.7779L11.2457 22.2L18.1 16.9969L24.9542 22.2L22.3457 13.7779L29.2 8.325H20.7917L18.1 0L15.4082 8.325ZM21.3745 3.3855L22.3041 6.24375H24.4964L22.4706 0L21.3745 3.3855ZM29.0612 11.1L24.76 14.5271L26.4666 20.0355L29.311 22.2L27.1604 15.2625L32.3912 11.1H29.0612Z" fill="white"/>
<path d="M0.44 32.929H9.647V34.073H0.44V32.929ZM1.496 34.623H8.536V37.241H2.948V38.143H1.507V36.229H7.095V35.701H1.496V34.623ZM1.507 37.824H8.8V38.913H1.507V37.824ZM4.169 29.585H5.445V29.849C5.445 31.301 4.004 32.456 1.298 32.643L0.847 31.543C3.168 31.389 4.169 30.575 4.169 29.849V29.585ZM4.642 29.585H5.918V29.849C5.918 30.586 6.919 31.389 9.251 31.543L8.8 32.643C6.094 32.456 4.642 31.312 4.642 29.849V29.585ZM1.276 29.112H8.822V30.245H1.276V29.112ZM14.2881 29.849H15.7291C15.7291 32.918 14.6291 35.514 11.2081 37.23L10.4491 36.086C13.1441 34.689 14.2881 32.841 14.2881 30.113V29.849ZM10.9331 29.849H15.0581V31.004H10.9331V29.849ZM17.6211 28.793H19.0841V38.979H17.6211V28.793ZM15.3331 31.4H17.8301V32.555H15.3331V31.4ZM15.2231 34.183H17.7311V35.349H15.2231V34.183ZM22.9663 30.487H24.1433V30.861C24.1433 32.588 23.2193 34.106 21.2723 34.634L20.6013 33.49C22.2513 33.05 22.9663 31.961 22.9663 30.861V30.487ZM23.2413 30.487H24.4293V30.861C24.4293 31.873 25.1333 32.907 26.7723 33.325L26.1233 34.447C24.1543 33.952 23.2413 32.5 23.2413 30.861V30.487ZM20.9643 29.772H26.4313V30.916H20.9643V29.772ZM22.9663 28.76H24.4293V30.3H22.9663V28.76ZM27.2343 28.793H28.6973V34.59H27.2343V28.793ZM28.2903 31.07H30.0503V32.269H28.2903V31.07ZM24.6383 35.514H25.8703V35.756C25.8703 37.34 24.5503 38.627 22.0973 38.946L21.5693 37.835C23.6923 37.582 24.6383 36.636 24.6383 35.756V35.514ZM24.9573 35.514H26.2003V35.756C26.2003 36.603 27.1683 37.582 29.2583 37.857L28.7413 38.968C26.2773 38.649 24.9573 37.296 24.9573 35.756V35.514ZM21.9983 35.03H28.8293V36.185H21.9983V35.03ZM37.8154 28.793H39.2894V38.979H37.8154V28.793ZM34.8124 29.849H36.2644C36.2644 32.962 35.2084 35.514 31.5894 37.263L30.8304 36.097C33.7564 34.689 34.8124 32.841 34.8124 30.113V29.849ZM31.3694 29.849H35.5054V31.004H31.3694V29.849Z" fill="white"/>
</svg>
