<svg width="30" height="42" viewBox="0 0 30 42" fill="none" xmlns="http://www.w3.org/2000/svg">
<path d="M15 15C17.7625 15 20 12.7625 20 10C20 7.2375 17.7625 5 15 5C12.2375 5 10 7.2375 10 10C10 12.7625 12.2375 15 15 15ZM15 17.5C11.6625 17.5 5 19.175 5 22.5V25H25V22.5C25 19.175 18.3375 17.5 15 17.5Z" fill="white"/>
<path d="M7.69531 30H9.78125L11.9844 35.375H12.0781L14.2812 30H16.3672V38H14.7266V32.793H14.6602L12.5898 37.9609H11.4727L9.40234 32.7734H9.33594V38H7.69531V30ZM18.7568 40.25C18.5459 40.25 18.348 40.2331 18.1631 40.1992C17.9808 40.168 17.8298 40.1276 17.71 40.0781L18.085 38.8359C18.2803 38.8958 18.4561 38.9284 18.6123 38.9336C18.7712 38.9388 18.9079 38.9023 19.0225 38.8242C19.1396 38.7461 19.2347 38.6133 19.3076 38.4258L19.4053 38.1719L17.2529 32H19.0029L20.2451 36.4062H20.3076L21.5615 32H23.3232L20.9912 38.6484C20.8792 38.9714 20.7269 39.2526 20.5342 39.4922C20.3441 39.7344 20.1032 39.9206 19.8115 40.0508C19.5199 40.1836 19.1683 40.25 18.7568 40.25Z" fill="white"/>
</svg>
