<svg width="41" height="42" viewBox="0 0 41 42" fill="none" xmlns="http://www.w3.org/2000/svg">
<path d="M6.2642 20V5.45455H12.0028C13.1061 5.45455 14.0459 5.66525 14.8224 6.08665C15.599 6.50331 16.1908 7.08333 16.598 7.8267C17.0099 8.56534 17.2159 9.41761 17.2159 10.3835C17.2159 11.3494 17.0076 12.2017 16.5909 12.9403C16.1742 13.679 15.5705 14.2543 14.7798 14.6662C13.9938 15.0781 13.0421 15.2841 11.9247 15.2841H8.26705V12.8196H11.4276C12.0194 12.8196 12.5071 12.7178 12.8906 12.5142C13.2789 12.3059 13.5677 12.0194 13.7571 11.6548C13.9512 11.2855 14.0483 10.8617 14.0483 10.3835C14.0483 9.90057 13.9512 9.47917 13.7571 9.11932C13.5677 8.75473 13.2789 8.47301 12.8906 8.27415C12.5024 8.07055 12.0099 7.96875 11.4134 7.96875H9.33949V20H6.2642ZM20.2415 20.1847C19.7727 20.1847 19.3703 20.0189 19.0341 19.6875C18.7027 19.3513 18.5369 18.9489 18.5369 18.4801C18.5369 18.0161 18.7027 17.6184 19.0341 17.2869C19.3703 16.9555 19.7727 16.7898 20.2415 16.7898C20.696 16.7898 21.0938 16.9555 21.4347 17.2869C21.7756 17.6184 21.946 18.0161 21.946 18.4801C21.946 18.7926 21.8655 19.0791 21.7045 19.3395C21.5483 19.5952 21.3423 19.8011 21.0866 19.9574C20.831 20.1089 20.5492 20.1847 20.2415 20.1847ZM23.2493 7.99006V5.45455H35.1953V7.99006H30.7422V20H27.7024V7.99006H23.2493Z" fill="#B9B9FF"/>
<path d="M1.529 34.04H8.69V35.184H1.529V34.04ZM0.451 36.625H9.669V37.813H0.451V36.625ZM1.529 29.53H8.602V30.707H3.014V34.359H1.529V29.53ZM2.563 31.774H8.371V32.907H2.563V31.774ZM10.8341 35.404H11.5601C12.7921 35.404 13.8811 35.371 15.1461 35.151L15.2671 36.328C13.9581 36.57 12.8361 36.603 11.5601 36.603H10.8341V35.404ZM10.8231 29.794H14.4201V33.688H12.2531V35.866H10.8341V32.544H13.0121V30.949H10.8231V29.794ZM17.9181 28.793H19.3041V38.979H17.9181V28.793ZM14.8381 32.258H16.4221V33.457H14.8381V32.258ZM15.8501 28.98H17.2031V38.495H15.8501V28.98ZM27.6633 28.782H29.1373V39.001H27.6633V28.782ZM23.6483 29.497C25.1883 29.497 26.3213 30.905 26.3213 33.127C26.3213 35.371 25.1883 36.779 23.6483 36.779C22.1083 36.779 20.9753 35.371 20.9753 33.127C20.9753 30.905 22.1083 29.497 23.6483 29.497ZM23.6483 30.828C22.8893 30.828 22.3723 31.631 22.3723 33.127C22.3723 34.645 22.8893 35.459 23.6483 35.459C24.4073 35.459 24.9133 34.645 24.9133 33.127C24.9133 31.631 24.4073 30.828 23.6483 30.828ZM37.7714 28.793H39.2344V34.689H37.7714V28.793ZM31.3804 29.431H32.8324V33.644H31.3804V29.431ZM31.3804 32.929H32.2604C33.8114 32.929 35.3624 32.83 36.9794 32.5L37.1444 33.677C35.4724 34.029 33.8664 34.128 32.2604 34.128H31.3804V32.929ZM35.7914 34.832C37.9254 34.832 39.2784 35.613 39.2784 36.911C39.2784 38.209 37.9254 38.979 35.7914 38.979C33.6574 38.979 32.3044 38.209 32.3044 36.911C32.3044 35.613 33.6574 34.832 35.7914 34.832ZM35.7914 35.998C34.4714 35.998 33.7674 36.284 33.7674 36.911C33.7674 37.527 34.4714 37.824 35.7914 37.824C37.1114 37.824 37.8154 37.527 37.8154 36.911C37.8154 36.284 37.1114 35.998 35.7914 35.998Z" fill="#B9B9FF"/>
</svg>
