<svg width="18" height="15" viewBox="0 0 18 15" fill="none" xmlns="http://www.w3.org/2000/svg">
<path d="M9 14.2383C9.33109 14.0631 11.3375 12.9675 13.2992 11.2968C15.4101 9.49915 17.2496 7.22068 17.25 4.84576L9 14.2383ZM9 14.2383C8.66891 14.0631 6.66247 12.9675 4.70081 11.2968C2.5898 9.49904 0.750236 7.22042 0.75 4.84535C0.751363 3.76647 1.1925 2.72777 1.98375 1.95832C2.77571 1.18818 3.85378 0.751348 4.98253 0.75C6.43077 0.750109 7.65541 1.3526 8.40636 2.3252L9 3.09407L9.59364 2.3252C10.3446 1.3526 11.5692 0.750109 13.0175 0.75C14.1462 0.751348 15.2243 1.18818 16.0162 1.95832C16.8076 2.72786 17.2487 3.7667 17.25 4.8457L9 14.2383Z" stroke="#4645A9" stroke-width="1.5"/>
</svg>
