<svg width="150" height="134" viewBox="0 0 150 134" fill="none" xmlns="http://www.w3.org/2000/svg">
<path d="M149.999 40.8094V49.0094C147.289 82.7594 104.389 108.879 81.0694 131.259C76.8094 134.309 73.3094 134.179 69.0694 131.259C60.0894 123.549 51.1194 115.839 42.1394 108.139C24.8894 92.8394 1.82942 73.5994 0.129417 48.8594C-2.89058 4.86937 47.6794 -18.4606 74.9194 17.9794C100.149 -15.2706 146.119 0.839371 149.999 40.8094ZM40.0894 8.90937C14.0594 10.2894 -0.360583 41.6094 15.9394 68.1794C26.4594 85.3394 59.0194 110.399 75.2094 124.529C93.9394 106.719 136.239 78.5994 140.629 52.3794C146.819 15.4094 106.839 -5.82063 84.1394 20.7694C81.0694 24.3694 78.2094 32.5894 71.9894 28.8194C70.3494 27.8294 67.1894 21.0494 61.4494 16.2294C55.5094 11.2494 47.9194 8.48937 40.0794 8.90937H40.0894Z" fill="#807FFF"/>
<path d="M147.499 42.4594V50.3794C144.879 83.0094 103.409 108.259 80.8594 129.889C76.7494 132.839 73.3594 132.709 69.2594 129.889C60.5794 122.439 51.9094 114.989 43.2294 107.539C26.5594 92.7494 4.26943 74.1494 2.62943 50.2394C-0.300567 7.7094 48.5894 -14.8406 74.9194 20.3894C99.3094 -11.7606 143.749 3.8194 147.499 42.4594ZM41.2494 11.6094C16.0894 12.9494 2.15943 43.2294 17.9094 68.9094C28.0794 85.4894 59.5494 109.719 75.2094 123.379C93.3194 106.159 134.199 78.9794 138.449 53.6294C144.439 17.8894 105.789 -2.6306 83.8394 23.0694C80.8694 26.5494 78.1094 34.4994 72.0994 30.8494C70.5194 29.8894 67.4594 23.3394 61.9094 18.6794C56.1694 13.8594 48.8294 11.1994 41.2494 11.6094Z" fill="#807FFF"/>
</svg>
