<svg width="44" height="44" viewBox="0 0 44 44" fill="none" xmlns="http://www.w3.org/2000/svg">
<g clip-path="url(#clip0_51_3282)">
<path d="M13.8299 10.49C13.9399 10.95 14.1599 11.3 14.3799 11.66C15.5999 13.68 17.0999 15.5 18.6599 17.26C21.9799 21 25.5399 24.48 29.5199 27.51C30.3399 28.13 31.1799 28.72 32.0899 29.21C32.3199 29.33 32.5599 29.43 32.8599 29.58C32.8099 29.21 32.6599 28.96 32.5199 28.71C31.6999 27.22 30.6499 25.88 29.5799 24.56C29.3199 24.24 29.1699 23.93 29.4099 23.54C29.6699 23.1 30.2499 23.04 30.5999 23.45C31.9299 25.02 33.1999 26.64 34.1099 28.5C34.2899 28.86 34.4099 29.25 34.4599 29.66C34.5399 30.37 34.2099 30.84 33.5399 31.08C31.9499 31.66 30.3599 32.26 28.7699 32.85C28.6199 32.9 28.4799 32.97 28.3299 33.01C27.8899 33.12 27.5199 32.93 27.3899 32.54C27.2599 32.14 27.4299 31.77 27.8499 31.6C28.7999 31.22 29.7699 30.87 30.7199 30.5C30.8199 30.46 30.9199 30.42 30.9699 30.39C23.9399 25.42 17.9399 19.43 12.9599 12.37C12.8499 12.43 12.8499 12.61 12.7999 12.76C10.6499 18.45 8.50993 24.14 6.35993 29.83C6.32993 29.9 6.30993 29.98 6.27993 30.05C6.05993 30.59 5.66993 30.81 5.23993 30.64C4.82993 30.48 4.67993 30.05 4.87993 29.53C5.55993 27.71 6.24993 25.89 6.92993 24.07C8.65993 19.47 10.3999 14.87 12.1299 10.28C12.1499 10.22 12.1799 10.16 12.1999 10.11C12.5899 8.94005 13.1299 8.67005 14.3199 9.06005C15.0699 9.31005 15.7399 9.70005 16.3899 10.13C17.5799 10.91 18.7099 11.76 19.7999 12.67C20.2699 13.06 20.3099 13.57 19.9099 13.9C19.5899 14.17 19.2399 14.14 18.8199 13.79C17.8099 12.96 16.7699 12.16 15.6699 11.45C15.0999 11.08 14.5299 10.72 13.8199 10.48L13.8299 10.49Z" fill="#3D20F2"/>
<path d="M2.19011 41.29C4.77011 40.32 7.35011 39.36 9.92011 38.39C14.7201 36.58 19.5201 34.76 24.3201 32.95C24.4501 32.9 24.5801 32.85 24.7201 32.81C25.1801 32.66 25.5701 32.82 25.7201 33.22C25.8701 33.62 25.7001 34.02 25.2501 34.2C24.2201 34.6 23.1901 34.98 22.1501 35.37C15.2001 37.99 8.24011 40.62 1.29011 43.24C1.22011 43.27 1.14011 43.29 1.07011 43.32C0.750113 43.46 0.450113 43.4 0.210113 43.15C-0.0198868 42.92 -0.0498868 42.64 0.0601132 42.33C1.25011 39.17 2.44011 36.01 3.63011 32.86C3.82011 32.37 4.21011 32.18 4.62011 32.34C5.04011 32.5 5.20011 32.92 5.01011 33.43C4.10011 35.85 3.19011 38.26 2.28011 40.68C2.21011 40.85 2.16011 41.03 2.11011 41.21C2.10011 41.24 2.09011 41.27 2.08011 41.3C2.11011 41.3 2.15011 41.29 2.18011 41.28L2.19011 41.29Z" fill="#3D21F2"/>
<path d="M24.7001 6.25006C24.7101 7.16006 24.4801 8.01006 24.0401 8.79006C23.9501 8.95006 23.8601 9.09006 23.9401 9.30006C24.7701 11.5601 24.0801 13.5101 22.6901 15.3101C22.2701 15.8601 21.7801 16.3401 21.2301 16.7601C20.7901 17.0901 20.3601 17.0601 20.0801 16.6901C19.8101 16.3401 19.8801 15.9301 20.2901 15.5901C21.1801 14.8601 21.9201 14.0101 22.4001 12.9501C22.7201 12.2401 22.8701 11.5101 22.7601 10.7201C22.7201 10.4101 22.6701 10.3001 22.3501 10.5001C21.8301 10.8401 21.2401 11.0101 20.6201 10.9801C19.3101 10.9101 18.3301 9.90006 18.4101 8.69006C18.4801 7.55006 19.6901 6.61006 20.9801 6.69006C21.6101 6.73006 22.1701 6.94006 22.6301 7.36006C22.9301 7.63006 22.9901 7.48006 23.0601 7.21006C23.2901 6.32006 23.1901 5.45006 22.8501 4.60006C22.8001 4.47006 22.7401 4.34006 22.6901 4.21006C22.5201 3.75006 22.6501 3.36006 23.0401 3.18006C23.4301 3.00006 23.8201 3.15006 24.0401 3.59006C24.4601 4.42006 24.7001 5.30006 24.6901 6.24006L24.7001 6.25006ZM20.7401 9.49006C21.1501 9.49006 21.9801 9.09006 21.9901 8.88006C22.0101 8.56006 21.1901 8.14006 20.6801 8.20006C20.2401 8.25006 19.9001 8.56006 19.9201 8.88006C19.9501 9.20006 20.3301 9.49006 20.7401 9.49006Z" fill="#F17609"/>
<path d="M33.0399 20.7101C31.7599 20.4001 30.6799 20.7601 29.6599 21.3901C28.9499 21.8301 28.3599 22.4001 27.8199 23.0401C27.4299 23.5101 27.0299 23.6001 26.6599 23.3001C26.2899 23.0101 26.2699 22.5701 26.6499 22.1101C28.0999 20.3701 29.8499 19.1601 32.2099 19.0801C32.8199 19.0601 33.4199 19.1901 33.9899 19.4101C34.1999 19.4901 34.3599 19.4701 34.5499 19.3601C36.2699 18.4001 38.0099 18.4901 39.7399 19.3001C40.1999 19.5201 40.3699 19.9301 40.1799 20.3301C39.9999 20.7201 39.5799 20.8701 39.0999 20.6501C38.1599 20.2301 37.2099 20.0501 36.1899 20.2901C35.8799 20.3601 35.7199 20.4201 36.0199 20.7601C36.6499 21.4901 36.8299 22.3601 36.5599 23.3001C36.2199 24.4501 35.1499 25.1601 34.1199 24.9401C33.0199 24.7001 32.2299 23.5101 32.3899 22.3501C32.4699 21.7701 32.6999 21.2501 33.0399 20.7001V20.7101ZM35.1799 22.5301C35.1799 22.1201 34.7699 21.3701 34.5399 21.4301C34.1299 21.5401 34.0599 21.9801 33.9399 22.3301C33.9399 22.3401 33.9399 22.3601 33.9299 22.3801C33.8199 22.7601 33.8999 23.0901 34.2099 23.3401C34.3599 23.4701 34.5399 23.5401 34.7199 23.4301C35.0599 23.2301 35.1799 22.9101 35.1799 22.5301Z" fill="#F17609"/>
<path d="M37.5699 7.64005C37.5399 7.87005 37.4499 8.06005 37.2899 8.22005C36.7399 8.76005 36.0699 9.01005 35.3199 9.07005C35.0599 9.09005 34.7899 9.11005 34.5299 9.16005C33.9399 9.28005 33.4699 9.78005 33.3899 10.3701C33.3399 10.7201 33.3299 11.0901 33.2699 11.4401C33.0299 12.8801 31.8799 13.9001 30.3699 14.0301C30.1099 14.0501 29.8399 14.0701 29.5799 14.1201C28.9699 14.2501 28.5099 14.7501 28.4199 15.3701C28.3699 15.7101 28.3599 16.0501 28.3099 16.3901C28.0699 17.8301 26.9399 18.8601 25.4599 18.9701C24.8399 19.0201 24.2699 19.1101 23.7799 19.5501C23.4799 19.8201 23.0999 19.7601 22.8199 19.4501C22.5499 19.1601 22.5499 18.7401 22.8399 18.4401C23.2699 17.9901 23.7899 17.6801 24.4099 17.5901C24.6999 17.5401 24.9999 17.5201 25.2899 17.5001C26.2099 17.4201 26.7699 16.8601 26.8499 15.9501C26.8899 15.4901 26.8999 15.0101 27.0799 14.5701C27.6199 13.3001 28.5799 12.6301 29.9599 12.5501C31.2599 12.4701 31.6999 12.0501 31.8199 10.7601C31.8799 10.0701 32.0199 9.41005 32.4599 8.84005C33.0999 8.03005 33.9299 7.62005 34.9599 7.59005C35.4699 7.58005 35.9399 7.47005 36.3299 7.09005C36.5699 6.86005 36.8599 6.84005 37.1599 6.97005C37.4399 7.10005 37.5599 7.35005 37.5799 7.64005H37.5699Z" fill="#3D21F2"/>
<path d="M10.3699 24.5601C10.4899 24.5601 10.6399 24.6901 10.7799 24.8501C12.4299 26.8401 14.2099 28.7101 16.0799 30.4801C16.8299 31.1901 17.6199 31.8701 18.3899 32.5701C18.5299 32.7001 18.6999 32.8201 18.7399 33.0301C18.7899 33.3001 18.7199 33.5201 18.4799 33.6701C18.2499 33.8101 18.0099 33.8001 17.7999 33.6301C17.4699 33.3601 17.1499 33.0801 16.8299 32.7901C14.3599 30.5601 12.0399 28.1901 9.89988 25.6401C9.70988 25.4101 9.61988 25.1801 9.73988 24.9001C9.83988 24.6801 10.0299 24.5701 10.3799 24.5701L10.3699 24.5601Z" fill="#F17609"/>
<path d="M43.39 2.23995C43.39 3.45995 42.36 4.46995 41.15 4.46995C39.92 4.46995 38.89 3.43995 38.9 2.20995C38.9 0.959955 39.91 -0.0100454 41.19 -4.54465e-05C42.43 0.0199546 43.4 0.999954 43.39 2.23995ZM41.13 2.96995C41.53 2.97995 41.88 2.65995 41.89 2.25995C41.91 1.83995 41.61 1.50995 41.19 1.48995C40.75 1.46995 40.41 1.78995 40.4 2.20995C40.4 2.60995 40.73 2.95995 41.12 2.96995H41.13Z" fill="#F17609"/>
<path d="M13.4601 35.17C13.4401 35.4 13.3401 35.61 13.1101 35.71C12.8701 35.82 12.6301 35.79 12.4301 35.61C12.0501 35.27 11.6701 34.92 11.3101 34.57C10.1301 33.43 8.99008 32.27 7.88008 31.06C7.78008 30.95 7.67008 30.84 7.63008 30.68C7.57008 30.44 7.63008 30.25 7.80008 30.09C7.98008 29.92 8.19008 29.86 8.43008 29.96C8.57008 30.01 8.66008 30.11 8.76008 30.22C10.1701 31.74 11.6301 33.21 13.1501 34.61C13.3201 34.76 13.4401 34.93 13.4601 35.18V35.17Z" fill="#F1760A"/>
<path d="M41.15 14.92C41.14 15.45 40.68 15.81 40.2 15.66C39.43 15.43 38.66 15.17 37.9 14.89C37.48 14.74 37.31 14.32 37.45 13.95C37.59 13.57 37.97 13.36 38.4 13.49C39.14 13.72 39.88 13.97 40.61 14.22C40.95 14.34 41.13 14.59 41.15 14.91V14.92Z" fill="#3D21F2"/>
<path d="M16.5399 0.73999C16.5399 0.73999 16.7099 0.77999 16.8199 0.82999C17.3199 1.06999 17.8299 1.30999 18.3099 1.57999C18.6899 1.78999 18.7999 2.16999 18.6299 2.52999C18.4599 2.90999 18.0599 3.07999 17.6599 2.89999C17.1199 2.65999 16.5999 2.39999 16.0799 2.11999C15.7599 1.94999 15.6399 1.63999 15.7399 1.28999C15.8299 0.94999 16.1199 0.73999 16.5399 0.74999V0.73999Z" fill="#F1760A"/>
<path d="M41.15 27.7499C41.13 27.9899 40.98 28.2199 40.71 28.3499C40.23 28.5999 39.75 28.8499 39.26 29.0699C38.83 29.2699 38.42 29.1199 38.24 28.7299C38.07 28.3599 38.19 27.9599 38.59 27.7499C39.08 27.4799 39.58 27.2299 40.09 26.9999C40.63 26.7599 41.18 27.1299 41.16 27.7399L41.15 27.7499Z" fill="#F1760A"/>
<path d="M8.5401 36.6999C8.5401 37.0499 8.4101 37.2699 8.1601 37.4199C7.8901 37.5699 7.6001 37.5799 7.3801 37.3799C6.9001 36.9399 6.4301 36.4899 6.0001 35.9899C5.7501 35.6999 5.8001 35.3399 6.0801 35.0599C6.3401 34.7999 6.6801 34.7199 6.9701 34.9399C7.5201 35.3699 8.0001 35.8799 8.4501 36.4099C8.5201 36.4999 8.5301 36.6399 8.5501 36.6999H8.5401Z" fill="#F1760A"/>
<path d="M33.67 2.96999C33.67 3.21999 33.68 3.46999 33.67 3.70999C33.65 4.13999 33.33 4.45999 32.94 4.46999C32.55 4.46999 32.2 4.15999 32.19 3.73999C32.17 3.22999 32.17 2.71999 32.19 2.20999C32.21 1.76999 32.53 1.48999 32.94 1.48999C33.35 1.48999 33.65 1.77999 33.67 2.22999C33.68 2.47999 33.67 2.72999 33.67 2.96999Z" fill="#3D20F2"/>
<path d="M26.9299 1.47998C27.3399 1.47998 27.6699 1.78998 27.6799 2.19998C27.6799 2.60998 27.3199 2.97998 26.9099 2.96998C26.5099 2.95998 26.1799 2.60998 26.1799 2.20998C26.1799 1.79998 26.5099 1.47998 26.9199 1.47998H26.9299Z" fill="#F1760A"/>
<path d="M14.2099 5.96998C14.2099 6.36998 13.8799 6.71998 13.4799 6.71998C13.0599 6.72998 12.7099 6.36998 12.7199 5.94998C12.7299 5.53998 13.0599 5.22998 13.4699 5.22998C13.8799 5.22998 14.2099 5.55998 14.2099 5.96998Z" fill="#4024F2"/>
<path d="M27.6799 8.18997C27.6899 7.77997 28.0299 7.46997 28.4399 7.46997C28.8699 7.46997 29.1999 7.82997 29.1699 8.25997C29.1399 8.65997 28.7799 8.97997 28.3899 8.95997C27.9899 8.93997 27.6699 8.57997 27.6799 8.18997Z" fill="#4024F2"/>
<path d="M41.8999 8.95997C41.8999 9.35997 41.5599 9.69997 41.1699 9.70997C40.7499 9.70997 40.3999 9.35997 40.4099 8.93997C40.4199 8.52997 40.7499 8.21997 41.1699 8.21997C41.5799 8.21997 41.9099 8.54997 41.9099 8.95997H41.8999Z" fill="#4024F2"/>
<path d="M34.3999 16.45C33.9999 16.44 33.6699 16.09 33.6699 15.69C33.6699 15.26 34.0199 14.94 34.4599 14.96C34.8699 14.98 35.1799 15.32 35.1699 15.73C35.1499 16.13 34.7999 16.46 34.4099 16.45H34.3999Z" fill="#4024F2"/>
<path d="M2.19009 41.29C2.19009 41.29 2.12009 41.3 2.09009 41.31C2.10009 41.28 2.11009 41.25 2.12009 41.22C2.14009 41.24 2.17009 41.27 2.19009 41.29Z" fill="#FEFDFE"/>
<path d="M20.74 9.48999C20.33 9.48999 19.94 9.19999 19.92 8.87999C19.89 8.55999 20.24 8.24999 20.68 8.19999C21.19 8.13999 22.01 8.55999 21.99 8.87999C21.99 9.08999 21.15 9.48999 20.74 9.48999Z" fill="#FEFDFE"/>
<path d="M35.1799 22.53C35.1799 22.91 35.0599 23.23 34.7199 23.43C34.5299 23.54 34.3599 23.46 34.2099 23.34C33.8999 23.08 33.8299 22.75 33.9299 22.38C33.9299 22.37 33.9299 22.35 33.9399 22.33C34.0699 21.98 34.1299 21.54 34.5399 21.43C34.7699 21.37 35.1799 22.12 35.1799 22.53Z" fill="#FEFDFE"/>
<path d="M41.1299 2.97005C40.7299 2.96005 40.3999 2.61005 40.4099 2.21005C40.4099 1.78005 40.7699 1.47005 41.1999 1.49005C41.6099 1.51005 41.9099 1.84005 41.8999 2.26005C41.8799 2.66005 41.5399 2.98005 41.1399 2.97005H41.1299Z" fill="#FEFDFE"/>
<path d="M16.4001 21.4099L15.7801 20.6799L13.2101 22.8599C12.9001 23.1199 12.5901 23.2499 12.2901 23.2299C11.9901 23.2099 11.7101 23.0599 11.4601 22.7599L10.6101 21.7599L11.3101 21.1699L11.9801 21.9599C12.1101 22.1099 12.2201 22.1799 12.3301 22.1599C12.4301 22.1399 12.5401 22.0899 12.6501 21.9899L15.1201 19.8999L14.1801 18.7899L14.8801 18.1899L17.1001 20.8099L16.4001 21.3999V21.4099Z" fill="#B838FF"/>
<path d="M14.0599 25.73C13.9299 25.59 13.8399 25.46 13.7799 25.35C13.7299 25.23 13.6999 25.12 13.7099 25.02C13.7099 24.92 13.7499 24.82 13.8099 24.73C13.8699 24.64 13.9499 24.55 14.0499 24.46L15.9899 22.62C16.1399 22.48 16.2799 22.4 16.4099 22.37C16.5399 22.34 16.6599 22.35 16.7599 22.37C16.8699 22.41 16.9599 22.46 17.0399 22.53C17.1199 22.6 17.1899 22.66 17.2399 22.72L18.4599 24.01C18.5899 24.15 18.6899 24.27 18.7399 24.39C18.7899 24.51 18.8199 24.61 18.8199 24.72C18.8199 24.82 18.7799 24.92 18.7199 25.01C18.6599 25.1 18.5799 25.19 18.4799 25.29L16.5599 27.11C16.4699 27.2 16.3699 27.27 16.2799 27.32C16.1899 27.38 16.0899 27.4 15.9899 27.41C15.8899 27.41 15.7799 27.39 15.6599 27.33C15.5399 27.27 15.4199 27.18 15.2899 27.04L14.0599 25.75V25.73ZM17.5099 24.78C17.5999 24.69 17.6499 24.62 17.6399 24.57C17.6299 24.52 17.5999 24.45 17.5199 24.37L16.8099 23.62C16.7499 23.55 16.6899 23.51 16.6399 23.5C16.5899 23.48 16.5099 23.53 16.3999 23.63L14.9699 24.99C14.8999 25.06 14.8499 25.12 14.8399 25.16C14.8299 25.2 14.8799 25.28 14.9899 25.41L15.6399 26.09C15.7199 26.18 15.7899 26.23 15.8599 26.25C15.9299 26.27 16.0099 26.23 16.1099 26.14L17.5199 24.8L17.5099 24.78Z" fill="#B838FF"/>
<path d="M16.8301 28.55L19.3301 25.91L20.0701 26.61L17.5701 29.25L16.8301 28.55ZM19.8601 25.34L20.6601 24.5L21.4001 25.2L20.6001 26.04L19.8601 25.34Z" fill="#B838FF"/>
<path d="M22.59 29.11C22.63 29.06 22.66 29.01 22.67 28.97C22.68 28.93 22.64 28.88 22.55 28.8L21.58 27.99L19.26 30.77L18.48 30.12L21.28 26.76L23.28 28.43C23.43 28.56 23.54 28.68 23.61 28.78C23.68 28.89 23.71 28.99 23.71 29.1C23.71 29.21 23.69 29.3 23.64 29.4C23.59 29.5 23.53 29.6 23.44 29.69L21.19 32.39L20.41 31.74L22.59 29.12V29.11Z" fill="#B838FF"/>
</g>
<defs>
<clipPath id="clip0_51_3282">
<rect width="43.39" height="43.4" fill="white"/>
</clipPath>
</defs>
</svg>
