<svg width="40" height="40" viewBox="0 0 40 40" fill="none" xmlns="http://www.w3.org/2000/svg">
<rect width="40" height="40" rx="8" fill="#807FFF"/>
<path d="M26.2816 15.4916L26.2758 15.4923L10.9933 17.4969C10.8645 17.5133 10.7418 17.5615 10.6362 17.6369C10.5306 17.7124 10.4454 17.8129 10.3881 17.9294C10.3267 18.0511 10.2966 18.186 10.3004 18.3222C10.3041 18.4584 10.3417 18.5915 10.4097 18.7095L12.298 21.9802C12.3912 22.1415 12.5377 22.2652 12.7123 22.33C12.8869 22.3948 13.0786 22.3967 13.2544 22.3354L20.6971 19.6963C20.7264 19.686 20.7584 19.6863 20.7875 19.6971C20.8166 19.7079 20.841 19.7286 20.8565 19.7555C20.8721 19.7824 20.8777 19.8138 20.8725 19.8445C20.8673 19.8751 20.8516 19.9029 20.8281 19.9232L14.8215 25.049C14.6805 25.1705 14.5862 25.3373 14.5549 25.5209C14.5236 25.7044 14.5574 25.8931 14.6502 26.0544L16.5389 29.3257C16.6039 29.4384 16.6958 29.5332 16.8065 29.6016C16.9171 29.67 17.043 29.7099 17.1728 29.7176C17.3293 29.7275 17.4853 29.691 17.6212 29.6128C17.7155 29.5582 17.7981 29.4853 17.8639 29.3984L27.2577 17.1949L27.2617 17.1892C27.3865 17.022 27.4595 16.822 27.4718 16.6137C27.484 16.4055 27.435 16.1983 27.3307 16.0176C27.2264 15.837 27.0714 15.6909 26.885 15.5974C26.6985 15.5039 26.4887 15.4671 26.2816 15.4916Z" fill="#FCFBFE"/>
</svg>
